<svg width="325" height="325" viewBox="0 0 325 325" fill="none" xmlns="http://www.w3.org/2000/svg">
<circle cx="162.177" cy="162.177" r="162.177" fill="#FF6464" fill-opacity="0.6"/>
<mask id="mask0_1645_8542" style="mask-type:alpha" maskUnits="userSpaceOnUse" x="0" y="0" width="325" height="325">
<circle cx="162.177" cy="162.177" r="162.177" fill="#D9D9D9"/>
</mask>
<g mask="url(#mask0_1645_8542)">
<path d="M86.7636 170.331C93.2055 199.335 114.621 185.097 114.621 185.097C128.318 209.711 129.303 224.553 166.737 227.366C204.171 230.178 221.003 185.097 221.003 185.097C236.833 189.713 246.424 186.152 250.254 168.574C254.084 150.995 241.026 145.195 241.026 145.195C232.307 144.046 228.783 145.461 224.486 150.995C234.013 100.965 211.253 72.9485 171.904 70.6634C132.555 68.3784 104.954 107.864 107.483 148.886C107.483 148.886 80.3217 141.327 86.7636 170.331Z" fill="#FFE1E2"/>
<ellipse cx="140.068" cy="183.494" rx="14.6745" ry="13.9408" fill="#FFBED0"/>
<ellipse cx="190.256" cy="183.494" rx="14.6745" ry="13.9408" fill="#FFBED0"/>
<path d="M162.565 195.68C150.576 195.065 143.595 190.327 143.595 190.327C143.595 190.327 152.112 198.586 162.565 198.586C173.018 198.586 173.792 198.586 180.761 190.327C180.761 190.327 174.554 196.295 162.565 195.68Z" fill="black"/>
<ellipse cx="139.309" cy="162.24" rx="5.34993" ry="7.31158" fill="black"/>
<ellipse cx="191.027" cy="162.24" rx="5.34993" ry="7.31158" fill="black"/>
<path d="M164.24 165.55V177.938V176.21" stroke="black" stroke-width="0.5"/>
<path d="M124.684 143.76C135.839 141.808 137.799 142.251 148.663 140.372C148.663 140.372 142.16 136.448 136.81 136.805C131.46 137.162 126.824 140.015 124.684 143.76Z" fill="black"/>
<path d="M182.818 140.876C194.588 141.347 197.442 142.417 207.654 144.65C207.654 144.65 202.748 137.809 197.457 136.941C192.166 136.072 185.315 138.022 182.818 140.876Z" fill="black"/>
<path d="M93.3008 162.825L107.567 174.952" stroke="black" stroke-width="0.5"/>
<path d="M242.784 159.211L231.229 173.944" stroke="black" stroke-width="0.5"/>
<path d="M143.518 244.694V223.363C160.478 227.985 170.943 230.829 192.234 223.363V244.694C222.881 232.634 247.805 232.429 268.013 240.25C288.221 248.072 315.105 287.713 312.759 330.731H11.4453C15.435 284.18 25.5187 258.204 63.228 240.25C93.2869 230.999 110.798 231.362 143.518 244.694Z" fill="#CAFFBF"/>
<path d="M193.109 220.388C173.399 226.486 161.635 225.997 143.586 220.389L143.586 229.557L143.586 241.944C143.047 267.905 154.614 277.046 169.976 277.046C185.337 277.046 193.767 265.21 193.109 243.321V220.388Z" fill="#FFE1E2"/>
<path d="M193.149 231.625L143.595 244.013V233.802V222.638C162.178 229.56 175.576 227.093 193.149 220.685V231.625Z" fill="#C59798"/>
<path d="M84.0042 231.654L76.3154 335.801H248.032C246.429 293.782 248.087 276.426 240.526 230.78C233.319 231.109 226.305 230.738 215.263 233.49C206.209 268.216 187.986 287.113 168.215 287.113C148.444 287.113 126.678 263.118 117.322 231.654C103.827 227.506 95.1713 228.651 84.0042 231.654Z" fill="#FFD6A5"/>
<path d="M117.066 133.287L111.9 165.933L104.418 128.114C96.4356 131.557 90.1666 134.536 86.7821 129.363C83.3976 124.19 91.5919 113.843 91.5919 113.843C91.5919 113.843 77.3406 122.048 75.025 113.843C72.7093 105.638 85.7133 94.9339 85.7133 94.9339C85.7133 94.9339 68.612 103.14 65.2273 91.0093C61.8427 78.8785 143.965 25.5412 201.86 54.0829C215.096 47.3794 222.453 44.2371 234.103 52.8342C243.284 63.8157 239.016 71.4327 233.034 84.7657C240.064 83.108 241.585 84.5869 244.613 89.0471C247.642 93.5073 244.084 105.067 239.091 115.27C246.584 116.952 249.772 115.957 250.848 122.049C251.924 128.141 244.613 133.287 244.613 133.287L233.034 136.856L223.949 169.679L221.455 135.25C207.77 124.53 202.393 117.323 201.86 99.7504C193.582 105.54 188.832 106.691 179.949 100.821C168.157 116.138 160.575 122.75 134.167 108.313C134.005 121.652 130.184 127.072 117.066 133.287Z" fill="#BDB2FF"/>
</g>
</svg>
