<svg width="325" height="325" viewBox="0 0 325 325" fill="none" xmlns="http://www.w3.org/2000/svg">
<circle cx="162.177" cy="162.177" r="162.177" fill="#D5F4D8"/>
<mask id="mask0_1645_8501" style="mask-type:alpha" maskUnits="userSpaceOnUse" x="0" y="0" width="325" height="325">
<circle cx="162.177" cy="162.177" r="162.177" fill="#D9D9D9"/>
</mask>
<g mask="url(#mask0_1645_8501)">
<path d="M80.9978 137.801C78.9249 110.164 108.723 122.752 111.82 129.019C111.506 85.3146 127.835 61.8051 168.361 61.8052C209.414 61.8052 222.511 93.7039 222.678 130.736C227.652 121.464 254.973 112.214 256.754 132.454C258.529 152.62 246.735 166.531 227.386 162.478C230.587 164.207 212.853 213.688 165.305 214.56C116.815 215.45 113.334 163.773 106.877 162.433C100.42 161.092 83.2892 168.352 80.9978 137.801Z" fill="#C59798"/>
<ellipse cx="139.627" cy="166.881" rx="13.8442" ry="13.152" fill="#B36A62"/>
<ellipse cx="192.38" cy="166.881" rx="13.8442" ry="13.152" fill="#B36A62"/>
<ellipse cx="138.183" cy="146.013" rx="5.72832" ry="7.82871" fill="black"/>
<ellipse cx="193.559" cy="146.013" rx="5.72832" ry="7.82871" fill="black"/>
<path d="M169.116 157.468L165.679 144.292L164.151 158.422L169.116 157.468Z" fill="#B26A62"/>
<path d="M165.295 143.148L163.004 159.569L169.878 157.278" stroke="black" stroke-width="0.5"/>
<path d="M88.9141 137.09L104.19 150.074" stroke="black" stroke-width="0.5"/>
<path d="M248.977 133.218L236.604 148.993" stroke="black" stroke-width="0.5"/>
<path d="M262.484 323.191L257.45 275.853" stroke="black" stroke-width="0.5"/>
<path d="M65.1224 323.54L70.5127 275.281" stroke="black" stroke-width="0.5"/>
<path d="M165.1 183.544C156.89 183.544 152.458 177.646 149.252 168.269C162.516 165.018 170.05 165.121 183.622 168.269C178.755 179.519 173.311 183.544 165.1 183.544Z" fill="#FFD6D6"/>
<path d="M166.056 174.461C155.276 173.761 146.198 163.577 146.198 163.577C146.198 163.577 154.785 180.067 166.056 179.043C177.328 178.02 182.342 173.584 186.296 162.622C186.296 162.622 176.837 175.16 166.056 174.461Z" fill="black"/>
<path d="M137.606 137.556C127.295 135.646 119.466 139.656 119.466 139.656C119.466 139.656 132.068 139.847 136.842 140.802C141.615 141.756 152.69 145.766 152.69 145.766C152.69 145.766 147.916 139.465 137.606 137.556Z" fill="black"/>
<path d="M124.046 138.564C124.046 138.564 122.519 137.8 122.328 134.554C122.137 131.308 124.046 130.544 124.046 130.544" stroke="black" stroke-width="0.5"/>
<path d="M205.012 137.421C205.012 137.421 206.36 136.657 206.528 133.411C206.697 130.165 205.012 129.401 205.012 129.401" stroke="black" stroke-width="0.5"/>
<path d="M126.72 139.33C126.72 139.33 125.036 138.675 124.825 135.893C124.615 133.111 126.72 132.456 126.72 132.456" stroke="black" stroke-width="0.5"/>
<path d="M202.905 137.421C202.905 137.421 204.016 137.53 204.226 134.748C204.437 131.965 202.332 131.311 202.332 131.311" stroke="black" stroke-width="0.5"/>
<path d="M129.013 139.712C129.013 139.712 127.666 139.167 127.497 136.848C127.329 134.529 129.013 133.984 129.013 133.984" stroke="black" stroke-width="0.5"/>
<path d="M200.421 136.657C200.421 136.657 201.386 138.021 201.555 135.702C201.723 133.383 200.039 132.838 200.039 132.838" stroke="black" stroke-width="0.5"/>
<path d="M184.226 142.991C196.132 137.092 199.012 137.453 210.692 138.188C210.692 138.188 203.34 134.711 197.679 135.669C192.019 136.627 185.764 139.234 184.226 142.991Z" fill="black"/>
<path d="M221.236 107.824C194.185 107.168 184.104 99.2176 165.481 77.2136C148.143 100.386 139.131 111.07 112.971 107.824L111.635 129.21C89.676 110.306 81.4654 126.036 81.4654 139.079C81.4654 152.123 89.9209 165.503 107.625 160.333C115.732 178.761 124.469 190.09 140.276 202.473V239.516L56.8337 228.632L2.41459 322.386H-5.03223C54.1604 73.2038 96.0845 10.6423 165.481 29.6685C236.784 5.46315 271.383 74.9297 325.11 322.386H314.226L255.797 221.949L190.495 239.516V204.191C203.127 196.394 214.196 187.595 227.729 162.816C245.453 167.282 255.797 143.78 255.797 136.847C255.797 129.914 248.16 111.834 222.764 130.737L221.236 107.824Z" fill="#FFC6FF"/>
<path d="M140.09 231.363L140.281 207.877C159.077 214.726 168.661 216.41 190.499 207.686V231.363C222.932 218.409 249.31 218.188 270.695 226.589C292.081 234.991 320.532 277.572 318.049 323.78H-0.827148C3.39508 273.777 14.0665 245.875 53.9738 226.589C85.7847 216.652 105.462 217.043 140.09 231.363Z" fill="#C59798"/>
<path d="M140.085 230.98L140.276 208.831C160.409 217.4 170.36 217.195 190.494 208.831V217.996L140.085 230.98Z" fill="#937773"/>
<path d="M122.138 125.838C133.976 118.2 136.268 120.301 147.814 122.21C147.814 122.21 140.85 118.009 135.122 118.391C129.394 118.773 124.429 121.828 122.138 125.838Z" fill="black"/>
<path d="M184.388 122.208C197.564 120.489 200.171 121.765 210.981 126.249C210.981 126.249 205.154 120.575 199.489 119.645C193.824 118.715 187.062 119.153 184.388 122.208Z" fill="black"/>
<path d="M257.097 323.546L255.099 271.843" stroke="black" stroke-width="0.5"/>
<path d="M60.9775 323.711L70.7119 272.89" stroke="black" stroke-width="0.5"/>
<path d="M254.079 287.691C213.62 311.853 123.855 270.214 122.519 225.061C109.053 217.169 99.3282 218.971 83.566 220.288L65.2354 324.352H254.079V287.691Z" fill="#9BF6FF"/>
<path d="M108.961 250.076L115.678 260.879L128.029 263.929L119.83 273.656L120.746 286.345L108.961 281.553L97.1767 286.345L98.0926 273.656L89.8934 263.929L102.244 260.879L108.961 250.076Z" fill="white"/>
</g>
</svg>
