<svg width="325" height="325" viewBox="0 0 325 325" fill="none" xmlns="http://www.w3.org/2000/svg">
<circle cx="162.177" cy="162.177" r="162.177" fill="#D197FF"/>
<mask id="mask0_517_2524" style="mask-type:alpha" maskUnits="userSpaceOnUse" x="0" y="0" width="325" height="325">
<circle cx="162.177" cy="162.177" r="162.177" fill="#B9FF82"/>
</mask>
<g mask="url(#mask0_517_2524)">
<path d="M141.489 244.257V211.402C160.614 220.459 171.024 219.984 189.156 211.402V244.257C202.596 231.825 215.677 228.273 241.661 228.628C267.645 228.984 302.468 252.885 311.727 324.353H7.62793C13.2597 277.114 33.9701 237.508 70.8849 231.648C107.8 225.787 115.876 228.657 141.489 244.257Z" fill="#FFADAD"/>
<path d="M86.8118 157.973C93.2499 187.287 114.653 172.897 114.653 172.897C128.341 197.774 129.326 212.775 166.737 215.618C204.148 218.46 220.97 172.897 220.97 172.897C236.791 177.562 246.376 173.963 250.204 156.196C254.032 138.43 240.981 132.567 240.981 132.567C232.268 131.406 228.745 132.836 224.451 138.43C233.973 87.8644 206.062 61.7617 166.737 59.4522C127.412 57.1427 104.992 94.8366 107.518 136.298C107.518 136.298 80.3738 128.659 86.8118 157.973Z" fill="#FFBFAD"/>
<path d="M142.302 263.533V211.583C162.782 218.122 171.286 219.74 190.089 211.402V224.298V237.74L189.73 263.533H165.836H142.302Z" fill="#FFBFAD"/>
<ellipse cx="139.61" cy="142.776" rx="5.41137" ry="7.39554" fill="black"/>
<ellipse cx="191.923" cy="142.776" rx="5.41137" ry="7.39554" fill="black"/>
<path d="M168.368 158.391L165.36 146.239L164.023 159.272L168.368 158.391Z" fill="#FFA08C"/>
<path d="M166.92 146.239L164.023 163.616L172.712 161.191" stroke="black" stroke-width="0.5"/>
<ellipse cx="136.362" cy="169.469" rx="18.0379" ry="17.136" fill="#FFA08C"/>
<ellipse cx="198.051" cy="169.469" rx="18.0379" ry="17.136" fill="#FFA08C"/>
<path d="M89.8271 148.372L104.257 160.637" stroke="black" stroke-width="0.5"/>
<path d="M243.909 145.845L232.221 160.748" stroke="black" stroke-width="0.5"/>
<path d="M184.125 171.819L146.245 172.901C140.086 173.094 146.038 191.267 166.989 188.955C187.939 186.643 189.356 172.18 184.125 171.819Z" fill="black"/>
<path d="M151.299 179.216C150.036 178.675 148.849 175.119 148.773 173.083L182.685 172.361C182.367 176.355 181.242 177.051 178.716 178.494C176.191 179.937 152.561 179.757 151.299 179.216Z" fill="white"/>
<path d="M151.104 182.774C149.841 183.231 149.643 184.27 151.104 185.892C152.476 187.414 163.351 192.171 176.032 187.022C177.579 186.395 179.575 184.661 178.522 183.366C177.493 182.102 152.367 182.316 151.104 182.774Z" fill="white"/>
<path d="M190.089 211.402C170.97 216.994 160.795 216.921 142.302 211.402V233.123L190.089 225.813V211.402Z" fill="#FFA08C"/>
<path d="M184.227 324.353H143.375L98.8584 224.707C111.879 222.848 128.028 230.756 140.208 240.851H184.227C191.616 230.067 202.389 226.282 222.774 224.893L184.227 324.353Z" fill="white"/>
<rect x="118.574" y="131.303" width="39.1834" height="25.4746" stroke="black" stroke-width="0.5"/>
<rect x="170.158" y="131.303" width="39.1834" height="25.4746" stroke="black" stroke-width="0.5"/>
<path d="M157.288 142.957H170.095" stroke="black" stroke-width="0.5"/>
<path d="M122.651 238.433L154.398 277.338L167.025 253.348L141.772 228.275V221.782L122.651 238.433Z" fill="#CAFFBF"/>
<path d="M207.071 238.183L178.211 277.157L167.208 253.708L189.935 227.914V221.42L207.071 238.183Z" fill="#CAFFBF"/>
<path d="M167.033 253.348L154.407 277.158L157.834 281.306L148.454 323.876H184.53L176.232 281.306L178.397 277.158L167.033 253.348Z" fill="#A0C4FF"/>
<path d="M100.015 137.837L110.261 141.893L115.183 121.667C138.331 119.182 143.042 113.026 144.861 98.2546C166.017 118.205 185.039 123.099 217.821 117.243L225.619 141.893L236.9 135.31C242.781 87.0413 222.414 40.1842 166.413 42.0275C110.413 43.8708 94.0505 91.6264 100.015 137.837Z" fill="#9BF6FF"/>
</g>
</svg>
