<svg width="325" height="325" viewBox="0 0 325 325" fill="none" xmlns="http://www.w3.org/2000/svg">
<mask id="mask0_517_2525" style="mask-type:alpha" maskUnits="userSpaceOnUse" x="0" y="0" width="325" height="325">
<circle cx="162.177" cy="162.177" r="162.177" fill="#D9D9D9"/>
</mask>
<g mask="url(#mask0_517_2525)">
<circle cx="162.177" cy="162.177" r="162.177" fill="#D8FFD1"/>
<path d="M77.5481 152.833C75.4055 124.825 106.206 137.582 109.408 143.933C109.083 99.6422 125.961 75.8171 167.85 75.8171C210.284 75.8172 223.823 108.144 223.995 145.673C229.136 136.277 255.312 125.162 257.153 145.673C258.987 166.11 248.846 181.936 228.862 177.842C232.171 179.592 213.84 229.739 164.692 230.623C114.57 231.525 110.972 179.154 104.298 177.796C97.6233 176.437 79.9166 183.795 77.5481 152.833Z" fill="#4B3939"/>
<ellipse cx="137.813" cy="184.184" rx="15.7573" ry="14.9694" fill="#E8B0A4" fill-opacity="0.5"/>
<ellipse cx="191.707" cy="184.184" rx="15.7573" ry="14.9694" fill="#E8B0A4" fill-opacity="0.5"/>
<path d="M190.419 234.819V259.925H136.023V245.956L190.419 234.819Z" fill="#4B3939"/>
<path d="M136.023 247.373V223.567C156.945 232.728 171.59 230.636 190.419 224.36V234.924L136.023 247.373Z" fill="#342929"/>
<ellipse cx="136.996" cy="161.363" rx="5.74469" ry="7.85108" fill="black"/>
<ellipse cx="192.528" cy="161.363" rx="5.74469" ry="7.85108" fill="black"/>
<path d="M169.5 179.295L163.707 163.688L161.132 180.426L169.5 179.295Z" fill="#D38E7F"/>
<path d="M163.921 163.688L161.132 180.426L169.5 178.09" stroke="black" stroke-width="0.5"/>
<path d="M121.294 141.515C133.166 133.856 135.464 135.962 147.043 137.877C147.043 137.877 140.06 133.664 134.315 134.047C128.571 134.43 123.592 137.494 121.294 141.515Z" fill="black"/>
<path d="M183.72 137.878C196.932 136.154 199.547 137.434 210.388 141.93C210.388 141.93 204.545 136.241 198.863 135.308C193.182 134.375 186.4 134.814 183.72 137.878Z" fill="black"/>
<path d="M87.5908 152.414L102.91 165.435" stroke="black" stroke-width="0.5"/>
<path d="M248.104 148.531L235.697 164.352" stroke="black" stroke-width="0.5"/>
<path d="M182.046 187.115C169.43 183.719 162.086 183.828 148.572 187.115C150.506 199.14 157.433 205.53 166.458 205.53C175.483 205.53 180.5 198.565 182.046 187.115Z" fill="#FFB2D7"/>
<path d="M262.792 349.774L257.744 302.301" stroke="black" stroke-width="0.5"/>
<path d="M59.8951 349.736L65.3008 301.34" stroke="black" stroke-width="0.5"/>
<path d="M165.123 197.161C153.843 197.23 152.348 192.405 148.572 181.889L149.316 180.424C153.516 190.998 152.85 194.441 165.123 194.859C174.05 194.859 176.653 191.931 181.86 181.47L182.046 181.889C177.769 192.349 175.493 196.745 165.123 197.161Z" fill="black"/>
<path d="M232.74 180.894V184.724C232.74 184.724 239.25 184.724 239.25 187.213C239.25 189.703 232.165 188.937 232.165 191.809C232.165 194.682 239.25 191.809 239.25 195.448C239.25 199.086 232.165 197.171 232.165 199.852C232.165 202.533 239.25 199.852 239.25 203.107C239.25 206.362 232.165 206.745 232.165 206.745" stroke="#BDB2FF" stroke-width="0.5"/>
<circle cx="232.548" cy="175.151" r="5.93618" fill="#BDB2FF"/>
<path d="M102.677 180.706V184.564C102.677 184.564 95.6383 184.564 95.6383 187.072C95.6383 189.579 103.298 188.808 103.298 191.701C103.298 194.595 95.6383 191.701 95.6383 195.367C95.6383 199.032 103.298 197.103 103.298 199.803C103.298 202.504 95.6383 199.803 95.6383 203.083C95.6383 206.362 103.298 206.748 103.298 206.748" stroke="#BDB2FF" stroke-width="0.5"/>
<circle cx="103.1" cy="175.151" r="5.93618" fill="#BDB2FF"/>
<path d="M125.167 98.5368C124.359 125.663 118.228 136.339 102.286 151.384V144.263H87.4235C77.197 123.355 76.3663 115.13 78.2322 102.847C85.5888 101.043 89.1419 100.609 92.5081 102.847C95.4363 65.0549 105.555 53.1796 134.358 43.8157C170.968 33.7522 190.95 35.8151 225.097 60.6818C237.035 59.3834 243.589 57.9353 255.018 54.1228L257.365 55.4346C257.016 82.7157 249.214 92.7418 236.244 111.28C239.15 125.279 238.532 131.187 236.244 140.702L228.226 142.389C224.364 151.591 223.102 152.843 220.795 155.319C214.745 140.284 213.073 130.581 212.777 111.28C170.518 114.338 150.008 112.873 125.167 98.5368Z" fill="#FFD6A5"/>
<path d="M163.035 349.978C86.0566 353.041 30.5244 266.296 30.5244 266.296C33.5882 264.573 36.6521 256.148 55.4182 252.509L163.035 301.531L271.801 253.467C278.695 254.807 292.135 268.09 293.823 272.233C293.823 272.233 240.014 346.914 163.035 349.978Z" fill="#FFC6FF"/>
<path d="M165.718 316.469C88.7393 319.533 55.0371 252.32 55.0371 252.32C63.3075 248.236 69.3639 247.591 83.1861 246.767L165.718 268.022L242.697 246.767C255.265 246.776 261.7 248.415 272.378 253.469C272.378 253.469 242.697 313.406 165.718 316.469Z" fill="#A0C4FF"/>
<path d="M148.106 245.426C144.839 242.118 139.899 240.02 136.024 239.004V249.465V255.741C112.963 240.018 101.639 245.127 81.085 246.766C105.189 274.817 136.425 286.021 161.894 286.021C187.362 286.021 221.54 280.116 243.468 246.766C221.864 243.916 211.898 243.761 190.419 257.834V239.004C184.946 240.646 180.529 241.884 179.511 246.766C177.815 242.794 176.248 241.31 172.234 240.064C167.237 240.199 165.879 241.882 165.149 246.766C162.848 241.637 161.103 239.832 156.532 240.064C152.615 240.253 150.749 241.37 148.106 245.426Z" fill="#FDFFB6"/>
</g>
</svg>
