<svg width="326" height="325" viewBox="0 0 326 325" fill="none" xmlns="http://www.w3.org/2000/svg">
<ellipse cx="163" cy="162" rx="163" ry="162" fill="#FF64F9" fill-opacity="0.6"/>
<mask id="mask0_517_2569" style="mask-type:alpha" maskUnits="userSpaceOnUse" x="1" y="0" width="325" height="325">
<circle cx="163.477" cy="162.504" r="162.177" fill="#D9D9D9"/>
</mask>
<g mask="url(#mask0_517_2569)">
<path d="M321.998 287.615C318.902 317.931 292.798 326.894 264.281 317.029L17.2021 295.735C10.4814 281.831 13.8778 260.366 17.2021 251.705C20.5265 243.043 28.2352 226.131 46.3316 211.824C39.5872 203.294 39.2011 194.783 42.5321 175.192C51.1321 156.226 67.8622 148.846 78.8988 137.838C89.9355 126.831 88.3071 92.9055 88.3071 92.9055L106.219 68.3638L181.235 53.7471L245.715 115.643C249.762 125.098 252.797 129.864 252.952 137.838C275.103 143.49 282.001 149.278 286.062 167.072C290.123 184.866 286.062 211.824 286.062 211.824C311.085 239.643 325.093 257.299 321.998 287.615Z" fill="#FFD6A5"/>
<path d="M139.92 255.666V233.097C157.456 239.625 167.645 241.412 188.019 233.097V255.666C218.277 243.318 242.887 243.107 262.839 251.116C282.791 259.124 309.334 299.712 307.018 343.758H9.51855C13.4577 296.095 23.4138 269.499 60.6458 251.116C90.3242 241.643 107.613 242.015 139.92 255.666Z" fill="#BDB2FF"/>
<path d="M83.0279 173.328C89.5758 203.656 111.344 188.767 111.344 188.767C125.266 214.505 126.268 230.024 164.317 232.965C202.367 235.906 219.477 188.767 219.477 188.767C235.567 193.594 245.315 189.87 249.209 171.49C253.102 153.11 239.829 147.044 239.829 147.044C230.967 145.843 227.384 147.322 223.016 153.11C232.701 100.796 209.566 71.5009 169.569 69.1116C129.573 66.7223 101.518 108.009 104.088 150.904C104.088 150.904 76.48 143 83.0279 173.328Z" fill="#D5ADAC"/>
<ellipse cx="132.911" cy="185.772" rx="14.7782" ry="14.0393" fill="#D98A8D"/>
<ellipse cx="198.386" cy="185.772" rx="14.7782" ry="14.0393" fill="#D98A8D"/>
<ellipse cx="137.532" cy="164.373" rx="5.38776" ry="7.36327" fill="black"/>
<ellipse cx="189.617" cy="164.373" rx="5.38776" ry="7.36327" fill="black"/>
<path d="M160.884 164.409L158.34 183.489L165.972 180.827" stroke="black" stroke-width="0.5"/>
<path d="M122.804 145.758C133.938 138.574 136.094 140.55 146.953 142.346C146.953 142.346 140.404 138.395 135.016 138.754C129.628 139.113 124.959 141.987 122.804 145.758Z" fill="black"/>
<path d="M181.349 142.346C193.741 140.73 196.193 141.93 206.36 146.147C206.36 146.147 200.88 140.811 195.552 139.936C190.223 139.061 183.863 139.473 181.349 142.346Z" fill="black"/>
<path d="M91.1885 164.958L105.556 177.171" stroke="black" stroke-width="0.5"/>
<path d="M241.73 161.317L230.094 176.155" stroke="black" stroke-width="0.5"/>
<path d="M162.73 210.2C154.525 210.2 150.097 205.107 146.894 197.009C160.147 194.202 167.675 194.29 181.237 197.009C176.374 206.724 170.934 210.2 162.73 210.2Z" fill="#E29595"/>
<path d="M163.902 202.094C154.668 201.446 146.894 192.006 146.894 192.006C146.894 192.006 154.248 207.29 163.902 206.342C173.556 205.393 177.85 201.281 181.237 191.121C181.237 191.121 173.135 202.743 163.902 202.094Z" fill="black"/>
<path d="M188.869 226.552C169.124 232.282 157.342 230.736 139.262 225.466L139.805 247.197C146.901 260.182 150.449 239.89 163.522 251.544C178.131 239.275 184.566 260.571 188.869 248.103V226.552Z" fill="#B49190"/>
<path d="M86.0911 112.032C88.7493 139.501 127.647 106.463 157.952 112.032C188.257 117.601 253.738 160.01 253.738 122.104C253.738 84.1975 190.028 48.7796 145.813 42.8118C101.598 36.844 83.4328 84.5637 86.0911 112.032Z" fill="#CAFFBF"/>
<path d="M167.226 277.528L169.791 297.463L188.488 306.443L169.791 315.777L167.559 335.6L155.776 320.091L133.362 324.705L144.103 306.443L133.156 288.815L154.16 292.614L167.226 277.528Z" fill="#CAFFBF" fill-opacity="0.5"/>
<path d="M90.3596 314.332L92.9244 334.266L110.581 342.693L93.3401 342.693L85.9768 342.693L78.434 342.693L67.1197 342.873L56.2895 325.618L77.2936 329.417L90.3596 314.332Z" fill="#CAFFBF" fill-opacity="0.5"/>
<path d="M255.876 248.599L262.105 250.395C268.699 252.846 271.858 255.001 276.888 259.734L262.105 266.569L259.873 286.391L248.09 270.883L225.676 275.496L236.417 257.234L230.374 245.905C236.451 245.838 239.898 245.949 246.178 246.624C250.042 247.243 252.172 247.664 255.876 248.599Z" fill="#CAFFBF" fill-opacity="0.5"/>
<path d="M43.7646 262.168L43.473 282.265L60.7062 293.809L40.8727 300.394L35.8493 319.699L26.3878 302.675L15.5782 302.675L17.3739 296.732L20.4269 289.548C21.9486 286.376 22.8758 284.58 24.9167 281.287C26.411 279.029 27.307 277.736 29.0474 275.361L43.7646 262.168Z" fill="#CAFFBF" fill-opacity="0.5"/>
<path d="M283.243 286.875L285.808 306.81L304.506 315.79L285.808 322.959L281.32 322.959L269.826 322.959L257.434 322.959L260.12 315.79L249.173 298.162L270.177 301.961L283.243 286.875Z" fill="#CAFFBF" fill-opacity="0.5"/>
<path d="M247.329 342.698L242.879 294.304" stroke="black" stroke-width="0.5"/>
<path d="M80.5521 342.56L85.4854 294.226" stroke="black" stroke-width="0.5"/>
<path d="M82.3906 313.797L13.2477 311.822C9.94348 323.676 10.4202 330.445 8.9375 342.712H79.6967L82.3906 313.797Z" fill="#D5ADAC"/>
<path d="M245.639 313.438L305.799 311.822C309.008 323.676 310.289 330.445 311.729 342.712H248.244L245.639 313.438Z" fill="#D5ADAC"/>
</g>
</svg>
