<svg width="325" height="325" viewBox="0 0 325 325" fill="none" xmlns="http://www.w3.org/2000/svg">
<ellipse cx="163.422" cy="162" rx="161.5" ry="162" fill="#6473FF" fill-opacity="0.6"/>
<mask id="mask0_517_2570" style="mask-type:alpha" maskUnits="userSpaceOnUse" x="0" y="0" width="325" height="325">
<circle cx="162.177" cy="162.504" r="162.177" fill="#D9D9D9"/>
</mask>
<g mask="url(#mask0_517_2570)">
<path d="M236.752 188.481C239.985 186.685 238.881 177.831 235.315 167.109L229.928 165.672L209.634 167.109L220.23 190.097C220.23 190.097 222.744 195.305 227.593 193.868C232.442 192.432 229.928 186.685 229.928 186.685C229.928 186.685 233.52 190.276 236.752 188.481Z" fill="#CAFFBF"/>
<path d="M107.398 194.389C110.929 195.487 116.57 188.574 121.862 178.59L119.18 173.701L104.125 160.017L94.8181 183.556C94.8181 183.556 92.788 188.972 97.176 191.486C101.564 194.001 103.984 188.213 103.984 188.213C103.984 188.213 103.867 193.292 107.398 194.389Z" fill="#CAFFBF"/>
<path d="M142.013 243.503V210.204C161.211 219.383 171.662 218.903 189.863 210.204V243.503C203.355 230.904 216.487 227.304 242.571 227.664C268.655 228.024 303.613 252.248 312.908 324.682H7.63477C13.2883 276.804 34.0786 236.664 71.136 230.724C108.193 224.784 116.301 227.693 142.013 243.503Z" fill="#FFD6A5"/>
<path d="M84.9556 159.456C91.5036 189.078 113.272 174.537 113.272 174.537C127.194 199.676 128.195 214.834 166.245 217.706C204.295 220.579 221.404 174.537 221.404 174.537C237.495 179.251 247.243 175.614 251.137 157.661C255.03 139.708 241.757 133.784 241.757 133.784C232.895 132.611 229.312 134.055 224.944 139.708C234.628 88.6113 211.494 59.9972 171.497 57.6635C131.501 55.3298 103.446 95.6567 106.016 137.554C106.016 137.554 78.4077 129.834 84.9556 159.456Z" fill="#886B65"/>
<path d="M141.189 236.916V214.689C159.274 222.536 168.895 221.692 186.98 214.021V224.549L141.189 236.916Z" fill="#6A4A45"/>
<ellipse cx="138.829" cy="144.117" rx="5.38776" ry="7.36327" fill="black"/>
<ellipse cx="190.911" cy="144.117" rx="5.38776" ry="7.36327" fill="black"/>
<path d="M164.089 163.641L161.448 152.966L160.273 164.414L164.089 163.641Z" fill="#B66147"/>
<path d="M161.545 149.149L160.273 168.229L164.089 165.566" stroke="black" stroke-width="0.5"/>
<ellipse cx="135.593" cy="170.701" rx="17.9592" ry="17.0612" fill="#B66147"/>
<ellipse cx="197.013" cy="170.701" rx="17.9592" ry="17.0612" fill="#B66147"/>
<path d="M92.1357 150.814L106.503 163.027" stroke="black" stroke-width="0.5"/>
<path d="M242.681 147.173L231.044 162.011" stroke="black" stroke-width="0.5"/>
<path d="M183.167 175.859H148.824C150.808 190.811 157.915 198.755 167.174 198.755C176.434 198.755 181.581 190.096 183.167 175.859Z" fill="black"/>
<path d="M183.167 175.859H148.824C150.808 190.811 157.915 198.755 167.174 198.755C176.434 198.755 181.581 190.096 183.167 175.859Z" fill="white"/>
<path d="M91.583 134.951C101.11 134.894 104.37 135.963 105.234 141.517V124.24C121.798 129.348 140.181 124.24 142.183 102.535C170.032 124.24 198.244 136.461 225.183 117.492L223.545 139.328C227.491 134.618 229.779 132.081 236.468 131.12C237.516 107.962 231.728 93.846 217.902 75.7219C175.347 36.486 130.17 58.3425 111.423 75.7219C92.6747 93.1012 92.8432 117.392 91.583 134.951Z" fill="#CAFFBF"/>
<path d="M175.537 195.168C170.038 200.327 165.482 199.563 160.454 195.168C160.454 195.168 158.726 192.684 165.953 191.346C173.18 190.008 175.537 195.168 175.537 195.168Z" fill="#FFADAD"/>
<path d="M160.273 206.387C166.073 201.423 169.409 201.176 175.537 206.387" stroke="black" stroke-width="0.5"/>
<rect x="99.3193" y="211.106" width="128.947" height="61.0612" rx="30" fill="#FFC6FF"/>
<path d="M144.218 324.607L144.218 262.827L218.569 262.827L218.569 324.607L144.218 324.607Z" fill="#FFC6FF"/>
<path d="M159.215 271.091C158.639 272.657 159.155 308.206 159.395 324.609M174.688 272.266C174.112 273.832 174.628 308.206 174.868 324.609M193.4 272.266C192.824 273.832 193.34 308.206 193.58 324.609M211.572 272.266C210.996 273.832 211.512 308.206 211.752 324.609" stroke="#A0C4FF" stroke-width="0.5"/>
<path d="M144.218 283.661H218.928" stroke="#A0C4FF" stroke-width="0.5"/>
<path d="M144.218 301.622H218.928" stroke="#A0C4FF" stroke-width="0.5"/>
<path d="M144.218 319.583H218.928" stroke="#A0C4FF" stroke-width="0.5"/>
<path d="M99.6777 230.143H228.086" stroke="#A0C4FF" stroke-width="0.5"/>
<path d="M99.6777 247.025H228.086" stroke="#A0C4FF" stroke-width="0.5"/>
<path d="M110.664 263.625H217.51" stroke="#A0C4FF" stroke-width="0.5"/>
<path d="M119.08 211.467V272.169" stroke="#A0C4FF" stroke-width="0.5"/>
<path d="M137.033 211.467V272.169" stroke="#A0C4FF" stroke-width="0.5"/>
<path d="M154.993 211.467V272.169" stroke="#A0C4FF" stroke-width="0.5"/>
<path d="M172.955 211.467V272.169" stroke="#A0C4FF" stroke-width="0.5"/>
<path d="M190.92 211.106V271.809" stroke="#A0C4FF" stroke-width="0.5"/>
<path d="M208.873 211.106V271.809" stroke="#A0C4FF" stroke-width="0.5"/>
<path d="M263.635 323.667L258.901 279.144" stroke="black" stroke-width="0.5"/>
<path d="M73.3433 324.578L78.4131 279.188" stroke="black" stroke-width="0.5"/>
<path d="M122.843 136.907C133.977 133.494 135.953 133.969 146.992 133.494C146.992 133.494 139.545 127.452 134.157 127.811C128.769 128.17 124.998 133.135 122.843 136.907Z" fill="black"/>
<path d="M179.596 133.314C191.449 133.789 194.322 134.867 204.607 137.115C204.607 137.115 200.025 129.867 194.697 128.992C189.368 128.118 182.11 130.441 179.596 133.314Z" fill="black"/>
</g>
</svg>
