<svg width="325" height="325" viewBox="0 0 325 325" fill="none" xmlns="http://www.w3.org/2000/svg">
<circle cx="162.177" cy="162.177" r="162.177" fill="#B9F992" fill-opacity="0.6"/>
<mask id="mask0_1645_8828" style="mask-type:alpha" maskUnits="userSpaceOnUse" x="0" y="0" width="325" height="325">
<circle cx="162.177" cy="162.177" r="162.177" fill="#D9D9D9"/>
</mask>
<g mask="url(#mask0_1645_8828)">
<path d="M131.181 246.313V209.339C151.227 218.722 163.399 218.23 182.404 209.339V247.933C206.723 243.175 210.227 245.784 243.533 252.163C276.84 258.541 263.999 270.5 312.746 331.043H17.499C23.402 282.107 41.5241 265.493 59.499 257C77.474 248.507 88.2999 240.531 131.181 246.313Z" fill="#F3CBAE"/>
<path d="M129.34 245.29C149.43 271.723 162.646 273.838 182.736 247.933C190.666 243.175 219.5 244 219.5 244L170.988 328.929H158.233H142.242L92.5 243C105 243 114.008 245.29 129.34 245.29Z" fill="#B4ADFF"/>
<path d="M131.183 240.163V201.938C151.356 207.438 160.213 211.69 182.404 205.639V227.843L131.183 240.163Z" fill="#E99E93"/>
<path d="M91.2747 167.575C97.0896 187.136 110.308 184.781 110.308 184.781C119.296 184.781 116.123 222.556 157.361 222.556C198.599 222.556 203.355 184.781 203.355 184.781C211.813 190.836 216.794 182.856 221.097 163.873C225.401 144.891 211.284 142.726 211.284 142.726C221.989 88.6991 197.342 71.7085 153.129 69.2409C108.916 66.7733 94.2487 102.127 97.0896 146.427C97.0896 146.427 85.4597 148.014 91.2747 167.575Z" fill="#F3CBAE"/>
<path d="M96.5618 146.427L107.596 145.243L116.777 121.239C122.895 107.63 130.822 100.616 137.175 99.3253C154.006 95.9059 164.22 94.9326 175.426 97.8599C192.257 102.256 189.197 101.768 189.197 101.768L200.417 113.491L204.497 127.658L206.526 151.714L216.228 145.243L217.47 118.377L216.228 108.363L213.399 99.3253L210.227 90.9164L204.497 84.0436L189.197 74.5275L173.22 69.2407H137.175L125.64 72.9477L115.595 79.2856L106.079 89.5562L99.2059 106.248L94.8458 125.809L96.5618 146.427Z" fill="#371B00"/>
<path d="M217 244L168.88 332.423L240.819 331.75L244.513 331.715L248.952 331.673L314.022 331.064C265.5 269 264.958 247.78 217 244Z" fill="#B4ADFF"/>
<ellipse cx="139.232" cy="146.235" rx="5.66225" ry="7.73841" fill="black"/>
<ellipse cx="176.238" cy="146.235" rx="5.66225" ry="7.73841" fill="black"/>
<path d="M155.345 156L154 176.174L158.035 173.359" stroke="black"/>
<path d="M95.249 156.472L102.452 174.933" stroke="black" stroke-width="0.5"/>
<path d="M215.415 158.586L208.523 177.166" stroke="black" stroke-width="0.5"/>
<path d="M124 128.383C135.702 124.797 135.553 125.807 147.154 125.308C147.154 125.308 142.497 120.644 136.834 121.022C131.172 121.399 126.265 124.419 124 128.383Z" fill="black"/>
<path d="M167 124.253C179.457 124.752 180.203 125.573 191.012 127.936C191.012 127.936 187.095 121.983 181.495 121.064C175.895 120.144 169.642 121.233 167 124.253Z" fill="black"/>
<path d="M94.5 243L151.572 342.778L77.3126 335.151L73.7417 335.344L69.4498 335.575L33.0001 349C42.5311 263.542 47.9423 243 94.5 243Z" fill="#B4ADFF"/>
<path d="M219 244L220.768 339.051L229.206 339.202L232.101 339.254L235.58 339.316L294.987 340.375C280.336 268.045 263.999 242.5 219 244Z" fill="#B4ADFF"/>
<path d="M239.475 328.944L235 278.08" stroke="black" stroke-width="0.5"/>
<path d="M94.5 243L92.9152 338.194L84.4777 338.345L81.5826 338.397L78.1029 338.459L18.6965 339.518C33.3475 267.188 49.5005 241.5 94.5 243Z" fill="#B4ADFF"/>
<path d="M77.165 332.797L82.3496 282" stroke="black" stroke-width="0.5"/>
<path d="M157.563 303C140.946 282.626 135.394 270.889 129.5 245.5C152.641 269.997 158.944 273.769 183 247.5C184.973 259.033 172.215 284.877 157.563 303Z" fill="#FDFFB6"/>
<path d="M206.353 149L215.999 145.512V135.409L213.769 108.359L200.525 85.4247L172.977 79.0435L178.805 65.7502L180.924 58.8373C191.519 33.314 89.912 31.834 159.203 89.6787C110.094 89.6787 110.556 108.359 110.556 108.359L96.999 137.562V145.512L108.047 149L108.047 127.23L110.556 108.359L123.111 99.0893C123.111 99.0893 120.098 99.6202 136.668 94.8416C147.701 91.6597 157.756 92.7178 174.326 96.4345C180.58 97.8374 197.151 106.841 203.174 121.634L206.353 149Z" fill="#371B00"/>
<path d="M177.73 185.021L138.094 186.153C131.649 186.355 137.878 205.371 159.8 202.951C181.721 200.532 183.203 185.398 177.73 185.021Z" fill="black"/>
<path d="M170.252 198.376C169.434 194.835 147.917 194.08 145.652 198.044C143.388 202.007 153.965 202.762 156.795 202.573C159.626 202.385 171.071 201.917 170.252 198.376Z" fill="#FF80AE"/>
<path d="M143.378 192.761C142.057 192.195 140.815 188.474 140.735 186.344L176.219 185.589C175.886 189.768 174.709 190.496 172.066 192.006C169.424 193.516 144.699 193.327 143.378 192.761Z" fill="white"/>
</g>
</svg>
