<svg width="325" height="325" viewBox="0 0 325 325" fill="none" xmlns="http://www.w3.org/2000/svg">
<circle cx="162.177" cy="162.177" r="162.177" fill="#64ABFF" fill-opacity="0.6"/>
<mask id="mask0_585_2899" style="mask-type:alpha" maskUnits="userSpaceOnUse" x="0" y="0" width="325" height="325">
<circle cx="162.177" cy="162.177" r="162.177" fill="#D9D9D9"/>
</mask>
<g mask="url(#mask0_585_2899)">
<path d="M133.556 256.967V226.439C152.514 235.313 165.791 234.848 183.765 226.439V258.629C197.088 246.449 210.056 242.969 235.814 243.317C261.572 243.665 296.093 267.082 305.272 337.101H3.81445C9.39729 290.819 29.9278 252.017 66.5219 246.275C103.116 240.533 108.165 241.683 133.556 256.967Z" fill="#FFC0B4"/>
<path d="M126.439 250.502C152.672 288.321 172.529 294.963 195.484 249.784C208.526 242.661 215.002 241.949 227 241.546L170.526 338H158.32H143.017L88 241.546C99.939 239.505 113.869 243.33 126.439 250.502Z" fill="#535353"/>
<path d="M133.558 253.151V226.439C152.637 231.641 162.177 232.163 183.165 226.439V230.255V232.163V235.979V241.702L133.558 253.151Z" fill="#FFA295"/>
<path d="M85.4999 173.898C92.3454 203.52 105.033 190.773 105.033 190.773C119.587 215.913 120.635 231.071 160.414 233.943C200.193 236.816 218.08 190.773 218.08 190.773C234.902 195.488 232.001 187.999 239.358 170.499C246.715 152.999 239.358 150.02 239.358 150.02C230.093 148.848 226.347 150.292 221.781 155.945C231.906 104.848 207.719 76.2341 165.905 73.9003C124.09 71.5666 94.76 111.894 97.4468 153.791C97.4468 153.791 78.6543 144.276 85.4999 173.898Z" fill="#FFC0B4"/>
<path d="M106.005 93.0001C106.005 93.0001 101.001 102 97.501 114L96.001 134.5L97.501 154L111.001 117.499C113.501 104 123.501 94.4995 131.501 86.9995C142.501 82.4995 157.761 81.4581 169.149 81.4994C187.672 81.5666 202.001 96.4994 202.001 96.4994L215.501 120.832L221.499 158L226.387 150.122L229.001 134L226.387 112.5C226.387 112.5 218.501 72.4994 169.149 70.0001C119.796 67.5007 106.005 93.0001 106.005 93.0001Z" fill="#353535"/>
<path d="M89.4307 241.379L143.339 337.414H72.2943H68.3672H64.2616H0C19.0407 267.635 37.2854 243.096 89.4307 241.379Z" fill="#535353"/>
<path d="M225.453 241.148L169.581 337.236H240.892H244.553H248.954H313.456C293.301 264.298 273.686 237.628 225.453 241.148Z" fill="#535353"/>
<ellipse cx="137" cy="159.5" rx="4" ry="2.5" fill="black"/>
<ellipse cx="186" cy="159.5" rx="4" ry="2.5" fill="black"/>
<path d="M159.602 161.57L158.33 180.649L162.146 177.987" stroke="black" stroke-width="1.5"/>
<path d="M181.5 232.165C168.948 236.491 155.273 235.896 141 232.165L130 215.5L132.5 191.5L141 188.913V188H144L141 188.913V202L150.5 210L162.5 212.5L174.5 210L181.5 199L178.5 194H190.5L192.5 199V212.5L181.5 232.165Z" fill="#3E3B39"/>
<path d="M90.0586 166L97.9825 182.984" stroke="black" stroke-width="0.5"/>
<path d="M232.05 167.268L222.642 183.478" stroke="black" stroke-width="0.5"/>
<path d="M122 137.81C133.067 134.419 135.031 134.891 146.003 134.419C146.003 134.419 139.493 130.492 134.138 130.849C128.783 131.206 124.142 134.062 122 137.81Z" fill="black" stroke="black" stroke-width="2.5"/>
<path d="M180.19 134.418C191.972 134.89 194.828 135.961 205.05 138.196C205.05 138.196 199.603 132.892 194.307 132.023C189.011 131.153 182.69 131.562 180.19 134.418Z" fill="black" stroke="black" stroke-width="2.5"/>
<path d="M155.306 163.871C161.513 161.349 164.736 161.261 169.943 163.871" stroke="#E6E6E6" stroke-width="3"/>
<path d="M115.5 165.568C115.5 169.27 115.978 171.469 116.707 172.79C117.369 173.99 118.303 174.581 119.715 174.879C121.242 175.203 123.178 175.152 125.726 175.062C125.783 175.06 125.84 175.058 125.897 175.056C128.342 174.969 131.216 174.868 134.401 175.157C139.85 175.653 143.815 175.591 146.7 175.095C149.573 174.6 151.26 173.696 152.305 172.596C153.351 171.495 153.925 170.022 154.217 168.041C154.501 166.122 154.5 163.895 154.5 161.281C154.5 161.158 154.5 161.035 154.5 160.91L154.5 160.746C154.5 158.042 154.5 156.036 154.227 154.449C153.962 152.9 153.466 151.949 152.585 151.25C151.635 150.497 150.049 149.885 147.262 149.488C144.498 149.094 140.742 148.934 135.616 148.934C133.331 148.934 131.142 148.801 129.191 148.683C128.15 148.62 127.177 148.561 126.294 148.529C123.625 148.431 121.674 148.563 120.191 149.234C118.823 149.853 117.671 151.021 116.836 153.5C115.979 156.046 115.5 159.862 115.5 165.568Z" stroke="#E6E6E6" stroke-width="3"/>
<path d="M209.5 165.568C209.5 169.27 209.022 171.469 208.293 172.79C207.631 173.99 206.697 174.581 205.285 174.879C203.758 175.203 201.822 175.152 199.274 175.062C199.217 175.06 199.16 175.058 199.103 175.056C196.658 174.969 193.784 174.868 190.599 175.157C185.15 175.653 181.185 175.591 178.3 175.095C175.427 174.6 173.74 173.696 172.695 172.596C171.649 171.495 171.075 170.022 170.783 168.041C170.499 166.122 170.5 163.895 170.5 161.281C170.5 161.158 170.5 161.035 170.5 160.91L170.5 160.746C170.5 158.042 170.5 156.036 170.773 154.449C171.038 152.9 171.534 151.949 172.415 151.25C173.365 150.497 174.951 149.885 177.738 149.488C180.502 149.094 184.258 148.934 189.384 148.934C191.669 148.934 193.858 148.801 195.809 148.683C196.85 148.62 197.823 148.561 198.706 148.529C201.375 148.431 203.326 148.563 204.809 149.234C206.177 149.853 207.329 151.021 208.164 153.5C209.021 156.046 209.5 159.862 209.5 165.568Z" stroke="#E6E6E6" stroke-width="3"/>
<path d="M248.901 337.19L244.668 289.084" stroke="black" stroke-width="0.5"/>
<path d="M59.7675 337.157L64.6709 289.115" stroke="black" stroke-width="0.5"/>
</g>
<path d="M147.587 184.025C155.444 183.075 162.388 182.499 169.297 183.601L177.587 185.427L184.743 188.611L188.046 190.777L190.799 195.108L186.67 196L178.688 195.108L174 192.051L168.229 190.268L163.275 189.758H158.596L154.743 190.395L151.991 191.287L148.413 192.688L141.807 195.108H133.001L133 190.65L137.404 187.592L141.807 185.427L147.587 184.025Z" fill="#262626"/>
<path d="M177.555 197.172L147.06 196.914C142.101 196.885 147.73 207.494 163.231 207.495C178.732 207.496 181.752 197.609 177.555 197.172Z" fill="black"/>
<path d="M150.23 203.604C149.017 203.031 145.921 199.248 145.92 197.257L179.046 197.759C178.594 201.646 177.247 202.286 174.73 203.604C172.214 204.923 151.444 204.177 150.23 203.604Z" fill="white"/>
</svg>
