<svg width="326" height="325" viewBox="0 0 326 325" fill="none" xmlns="http://www.w3.org/2000/svg">
<ellipse cx="163" cy="162" rx="163" ry="162" fill="#FF64F9" fill-opacity="0.6"/>
<mask id="mask0_619_11097" style="mask-type:alpha" maskUnits="userSpaceOnUse" x="1" y="0" width="325" height="325">
<circle cx="163.177" cy="162.177" r="162.177" fill="#D9D9D9"/>
</mask>
<g mask="url(#mask0_619_11097)">
<path d="M269.5 220C283.5 246.5 298.096 275.184 295 305.5L17.2029 295.735C10.4821 281.831 35.6757 272.162 39 263.5C50 256.5 57.5 229.5 65.5 204C68 182 71 159 89 115C107 71 132.5 71 132.5 71H150.5H178.001H200.5C220 71 250.939 130.706 255 148.5C259.061 166.294 269.5 220 269.5 220Z" fill="black"/>
<path d="M60.6458 251.116C90.3242 241.643 107.613 242.015 139.92 255.666L139.999 244.5L139.92 233.097C157.456 239.625 167.645 241.412 188.019 233.097V255.666C218.277 243.318 242.887 243.107 262.839 251.116C282.791 259.124 309.334 299.712 307.018 343.758H9.51855C13.4577 296.095 23.4138 269.499 60.6458 251.116Z" fill="#F4FFB2"/>
<path d="M92.0011 174C98.549 204.328 111.344 188.767 111.344 188.767C125.266 214.505 126.268 230.024 164.318 232.965C202.368 235.906 219.477 188.767 219.477 188.767C235.567 193.594 234.608 189.88 238.501 171.5C242.394 153.12 237.001 147.5 237.001 147.5C228.138 146.299 229.368 146.713 225.001 152.5C234.685 100.187 209.566 71.5009 169.57 69.1116C129.573 66.7223 101.518 108.009 104.088 150.904C104.088 150.904 85.4531 143.672 92.0011 174Z" fill="#F3CFCE"/>
<ellipse cx="132.911" cy="185.772" rx="14.7782" ry="14.0393" fill="#F4B2B5"/>
<ellipse cx="198.386" cy="185.772" rx="14.7782" ry="14.0393" fill="#F4B2B5"/>
<ellipse cx="138.39" cy="162.365" rx="5.39" ry="7.365" fill="black"/>
<path d="M197.781 163.365C197.781 167.433 195.368 170.73 192.391 170.73C189.414 170.73 187.001 167.433 187.001 163.365C187.001 159.297 189.414 156 192.391 156C195.368 156 197.781 159.297 197.781 163.365Z" fill="black"/>
<path d="M162.667 170L161 183L166 181.186" stroke="black" stroke-width="0.5"/>
<path d="M179.393 147.891C191.785 146.275 194.726 145.173 204.893 149.391C204.893 149.391 202.721 144.766 197.393 143.891C192.064 143.016 177.242 144.044 179.393 147.891Z" fill="black" stroke="black"/>
<path d="M232.869 167L228.149 177.776" stroke="black" stroke-width="0.5"/>
<path d="M162.678 210C154.556 210 150.172 205.996 147 199.629C160.121 197.422 167.574 197.492 181 199.629C176.185 207.267 170.8 210 162.678 210Z" fill="#E29595"/>
<path d="M188 227.5C168.255 233.23 158.08 232.77 140 227.5V248C140 255.5 147.479 259 164.5 259C181.521 259 188 255.5 188 248V236.5V227.5Z" fill="#EABDBC"/>
<path d="M90.3596 314.332L92.9244 334.266L110.581 342.693L93.3401 342.693L85.9768 342.693L78.434 342.693L67.1197 342.873L56.2895 325.618L77.2936 329.417L90.3596 314.332Z" fill="#CAFFBF" fill-opacity="0.5"/>
<path d="M43.7646 262.168L43.473 282.265L60.7062 293.809L40.8727 300.394L35.8493 319.699L26.3878 302.675L15.5782 302.675L17.3739 296.732L20.4269 289.548C21.9486 286.376 22.8758 284.58 24.9167 281.287C26.411 279.029 27.307 277.736 29.0474 275.361L43.7646 262.168Z" fill="#CAFFBF" fill-opacity="0.5"/>
<path d="M283.243 286.875L285.808 306.81L304.506 315.79L285.808 322.959L281.32 322.959L269.826 322.959L257.434 322.959L260.12 315.79L249.173 298.162L270.177 301.961L283.243 286.875Z" fill="#CAFFBF" fill-opacity="0.5"/>
<path d="M247.329 342.698L242.879 294.304" stroke="black" stroke-width="0.5"/>
<path d="M80.5521 342.56L85.4854 294.226" stroke="black" stroke-width="0.5"/>
<path d="M82.3906 313.797L13.2477 311.822C9.94348 323.676 10.4202 330.445 8.9375 342.712H79.6967L82.3906 313.797Z" fill="#D5ADAC"/>
<path d="M245.639 313.438L305.799 311.822C309.008 323.676 310.289 330.445 311.729 342.712H248.244L245.639 313.438Z" fill="#D5ADAC"/>
<path d="M149.353 148.115C136.962 146.498 134.021 145.397 123.853 149.614C123.853 149.614 125.554 145.018 130.883 144.143C136.211 143.268 153.882 143.642 149.353 148.115Z" fill="black" stroke="black"/>
<path d="M104.5 153.499C115 203.999 106.499 98.4997 164.999 98.4997C223.499 98.4997 213.501 210.499 226.001 148.999C238.501 87.4989 212.999 58.3757 157.499 63.0001C102 67.6244 94.001 102.999 104.5 153.499Z" fill="black"/>
<path d="M225.895 172.346C231.45 182.911 230.895 207.344 230.895 207.344L228.895 201.344L227.395 187.344L219.935 167.495L220.545 156.11L222.8 153.303C227.61 156.852 220.341 161.78 225.895 172.346Z" fill="#0E0E0E"/>
<path d="M196.899 161.422C196.899 161.422 198.605 161.495 200.347 158.748C202.088 156.002 200.788 154.408 200.788 154.408" stroke="black" stroke-width="0.6"/>
<path d="M194.189 160.796C194.189 160.796 195.979 161.04 197.513 158.709C199.046 156.377 197.522 154.784 197.522 154.784" stroke="black" stroke-width="0.6"/>
<path d="M192 160.018C192 160.018 193.442 160.194 194.714 158.248C195.986 156.302 194.777 155.008 194.777 155.008" stroke="black" stroke-width="0.6"/>
</g>
<path d="M102.869 178.776L98.1487 168" stroke="black" stroke-width="0.5"/>
<path d="M237.501 155.5C237.369 171.069 235.544 196.105 235.544 196.105L233.626 149.46C233.457 148.554 237.632 139.931 237.501 155.5Z" fill="#0E0E0E"/>
<path d="M233.838 155.196C236.661 170.508 242.68 188.651 242.68 188.651L236.999 149L236.992 149.003C237.002 148.082 231.015 139.885 233.838 155.196Z" fill="#0E0E0E"/>
<path d="M133.512 160.428C133.512 160.428 131.807 160.531 130.018 157.816C128.228 155.101 129.5 153.484 129.5 153.484" stroke="black" stroke-width="0.6"/>
<path d="M136.21 159.754C136.21 159.754 134.425 160.03 132.85 157.726C131.276 155.422 132.771 153.802 132.771 153.802" stroke="black" stroke-width="0.6"/>
<path d="M138.386 158.938C138.386 158.938 136.946 159.14 135.64 157.216C134.335 155.293 135.52 153.978 135.52 153.978" stroke="black" stroke-width="0.6"/>
</svg>
