<svg width="325" height="327" viewBox="0 0 325 327" fill="none" xmlns="http://www.w3.org/2000/svg">
<path d="M324.353 164.085C324.353 253.652 251.744 326.261 162.177 326.261C72.6089 326.261 0 253.652 0 164.085C0 74.5171 72.6089 1.9082 162.177 1.9082C251.744 1.9082 324.353 74.5171 324.353 164.085Z" fill="#B1ECFF"/>
<mask id="mask0_1645_8144" style="mask-type:alpha" maskUnits="userSpaceOnUse" x="0" y="0" width="325" height="325">
<circle cx="162.177" cy="162.177" r="162.177" fill="#D9D9D9"/>
</mask>
<g mask="url(#mask0_1645_8144)">
<path d="M187.587 188.064C167.843 193.608 156.061 192.111 137.98 187.012L138.886 217.851C145.982 230.415 154.238 244.423 167.31 255.699C181.92 243.828 183.285 228.864 187.587 216.8V188.064Z" fill="#FFADAD"/>
<path d="M138.505 219.239L163.153 249.644L185.37 219.239C214.853 204.504 238.832 204.253 258.272 213.809C277.713 223.365 303.576 271.796 301.319 324.353H11.4473C15.2854 267.48 24.9862 235.744 61.2635 213.809C90.181 202.507 107.027 202.951 138.505 219.239Z" fill="#BDB2FF"/>
<path d="M223.005 160.476C223.008 159.218 226.426 161.035 229.743 158.241C233.06 155.447 228.519 150.208 228.519 150.208L215.248 148.112L190.619 185.213C190.619 185.213 198.5 189.92 201.111 187.265C203.723 184.61 200.188 180.01 200.188 180.01C200.188 180.01 208.263 181.467 210.132 179.542C212.001 177.618 211.593 175.073 211.593 175.073C211.593 175.073 215.248 174.482 217.03 173.637C218.812 172.792 218.096 164.678 218.096 164.678C218.096 164.678 221.011 165.925 223.002 165.306C224.993 164.687 223.002 161.734 223.005 160.476Z" fill="#CAFFBF"/>
<path d="M101.559 153.118C101.671 151.807 97.9352 153.022 94.7293 149.451C91.5234 145.881 96.746 141.321 96.746 141.321L105.681 143.02L133.094 185.331C133.094 185.331 124.433 188.672 121.951 185.387C119.469 182.102 123.583 178.008 123.583 178.008C123.583 178.008 115.018 177.924 113.244 175.547C111.469 173.17 112.129 170.598 112.129 170.598C112.129 170.598 108.368 169.256 106.585 168.022C104.802 166.788 106.296 158.473 106.296 158.473C106.296 158.473 103.138 159.193 101.117 158.153C99.0956 157.113 101.446 154.43 101.559 153.118Z" fill="#CAFFBF"/>
<path d="M220.662 117.201L217.519 99.563H234.458C233.789 102.093 233.172 103.166 231.14 103.754C233.44 104.523 234.807 104.802 234.458 107.247C234.109 109.692 231.14 110.739 231.14 110.739C232.247 111.226 232.946 111.436 232.712 113.01L220.662 117.201Z" fill="#CAFFBF"/>
<path d="M103.419 117.376L106.455 99.563H90.0919C90.7384 102.118 91.3342 103.202 93.2971 103.796C91.0756 104.572 89.7545 104.854 90.0919 107.323C90.4293 109.792 93.2971 110.85 93.2971 110.85C92.2279 111.342 91.5522 111.554 91.7788 113.143L103.419 117.376Z" fill="#CAFFBF"/>
<path d="M81.7467 137.655C88.2946 166.572 110.063 152.376 110.063 152.376C123.985 176.917 124.986 191.714 163.036 194.518C201.086 197.322 218.195 152.376 218.195 152.376C234.286 156.978 244.034 153.428 247.928 135.902C251.821 118.377 238.548 112.593 238.548 112.593C229.686 111.449 226.103 112.859 221.735 118.377C231.419 68.4967 208.285 40.5639 168.288 38.2857C128.292 36.0075 100.237 75.3744 102.807 116.274C102.807 116.274 75.1987 108.738 81.7467 137.655Z" fill="#FFADAD"/>
<ellipse cx="134.44" cy="148.141" rx="14.3701" ry="13.6516" fill="#D66A6E"/>
<ellipse cx="192.867" cy="148.141" rx="14.3701" ry="13.6516" fill="#D66A6E"/>
<ellipse cx="136.487" cy="127.329" rx="5.23898" ry="7.15994" fill="black"/>
<ellipse cx="187.129" cy="127.329" rx="5.23898" ry="7.15994" fill="black"/>
<path d="M122.164 109.23C131.792 106.799 132.991 108.295 145.647 105.912C145.647 105.912 139.278 102.07 134.039 102.419C128.8 102.769 124.26 105.563 122.164 109.23Z" fill="black"/>
<path d="M179.093 105.91C190.146 108.396 192.488 109.574 203.367 109.691C203.367 109.691 198.085 104.417 192.904 103.567C187.722 102.716 181.538 103.116 179.093 105.91Z" fill="black"/>
<path d="M91.4346 127.903L105.405 139.778" stroke="black"/>
<path d="M237.818 124.361L226.503 138.788" stroke="black"/>
<path d="M162.394 155.127C151.377 154.64 145.612 145.037 145.612 145.037C145.612 145.037 150.875 157.166 162.394 156.454C173.913 155.743 175.914 152.658 179.956 145.037C179.956 145.037 173.411 155.613 162.394 155.127Z" fill="black"/>
<path d="M244.218 305.274L238.934 253.675" stroke="black"/>
<path d="M80.2136 305.895L85.8896 253.603" stroke="black"/>
<path d="M82.872 272.919L15.6385 270.708C12.4255 283.973 12.889 291.547 11.4473 305.273H80.2525L82.872 272.919Z" fill="#FFADAD"/>
<path d="M241.615 272.517L300.114 270.708C303.234 283.973 304.48 291.547 305.88 305.273H244.149L241.615 272.517Z" fill="#FFADAD"/>
<path d="M138.524 206.092L137.98 187.012C156.703 195.096 168.149 195.016 187.587 187.379V191.782L138.524 206.092Z" fill="#D09595"/>
<path d="M18.001 263.598L83.4857 265.588" stroke="black" stroke-linecap="round"/>
<path d="M241.3 266.257L296.601 261.786" stroke="black" stroke-linecap="round"/>
<rect x="158.643" y="240.818" width="10.1765" height="34.9743" rx="5.08825" stroke="black"/>
<path d="M164.43 240.666L139.109 214.995V210.105L120.423 226.346L152.905 264.591L164.43 240.666Z" fill="white"/>
<path d="M163.558 240.842L186.435 215.171V210.281L204.247 226.697L175.083 265.291L163.558 240.842Z" fill="white"/>
<circle cx="163.212" cy="256.906" r="2.61949" fill="white"/>
<circle cx="163.212" cy="267.387" r="2.61949" fill="white"/>
<path d="M164.693 140.705L159.41 133.589L157.062 141.221L164.693 140.705Z" fill="#D66A6E"/>
<path d="M159.605 133.589L157.062 145.037L164.693 143.439" stroke="black"/>
<path d="M177.878 34.4258C137.037 33.3228 97.9247 42.7436 88.291 99.5681L223.457 99.5681C228.16 99.4924 218.718 35.5287 177.878 34.4258Z" fill="#D9D9D9"/>
<path d="M265.195 71.7286C265.195 55.313 237.551 52.0907 207.741 52.8683L223.807 99.4952C250.464 95.6626 265.195 88.1442 265.195 71.7286Z" fill="#D9D9D9"/>
<rect x="135.441" y="76.5127" width="58.6766" height="9.77943" rx="4.88971" fill="#CAFFBF"/>
<path d="M188.878 36.3467L192.37 37.7437C194.143 38.5411 195.096 39.0151 196.562 40.014L194.335 42.5253L196.844 51.0927L190.275 45.7977L183.706 51.0927L186.215 42.5253L179.646 37.2303H187.766L188.878 36.3467Z" fill="#A0C4FF"/>
<path d="M129.732 53.052L130.334 61.959L138.263 63.7103L130.707 67.4638L131.309 76.3708L126.036 69.7837L118.48 73.5372L122.778 65.7126L117.505 59.1254L125.434 60.8767L129.732 53.052Z" fill="#A0C4FF"/>
<path d="M90.612 88.7371L93.6029 90.7318L100.609 86.6261L97.6181 94.5159L102.261 99.5643L95.7997 99.5643L92.1324 99.5643L88.2908 99.5643L88.8144 96.9449C88.8144 96.9449 89.0332 94.4832 89.2731 93.2692C89.5129 92.0552 90.612 88.7371 90.612 88.7371Z" fill="#A0C4FF"/>
<path d="M168.306 62.6192L174.564 68.986L181.721 65.1511L178.431 72.9209L182.245 76.5105L176.482 76.5105L174.386 76.5105L171.243 76.5105L162.983 75.191L170.14 71.3561L168.306 62.6192Z" fill="#A0C4FF"/>
<path d="M239.778 63.0593L246.138 69.3248L253.233 65.3755L250.068 73.1971L256.427 79.4626L248.112 78.0311L244.947 85.8527L242.973 77.1464L234.658 75.715L241.753 71.7656L239.778 63.0593Z" fill="#A0C4FF"/>
</g>
</svg>
