<svg width="325" height="325" viewBox="0 0 325 325" fill="none" xmlns="http://www.w3.org/2000/svg">
<circle cx="162.177" cy="162.177" r="162.177" fill="#7A64FF" fill-opacity="0.6"/>
<mask id="mask0_619_11108" style="mask-type:alpha" maskUnits="userSpaceOnUse" x="0" y="0" width="325" height="325">
<circle cx="162.177" cy="162.177" r="162.177" fill="#D9D9D9"/>
</mask>
<g mask="url(#mask0_619_11108)">
<path d="M136.742 248.968V214C155.701 222.873 167.213 222.409 185.187 214V250.5C208.187 246 216.187 242.936 247.687 248.968C279.187 255 299.279 259.083 308.459 329.102H7.00098C12.5838 282.82 44.6865 257 61.6865 248.968C78.6865 240.936 96.1865 243.5 136.742 248.968Z" fill="#F5C6BC"/>
<path d="M136.187 246.5C163.687 270.5 151.818 271.656 186.187 249C191.187 243 210.329 243.896 222.187 243.5L174.389 327.103H162.326H147.202L85.1865 241.5C96.9858 239.493 121.687 246.5 136.187 246.5Z" fill="#3FA4DD"/>
<path d="M136.743 243.152V207C155.823 212.202 164.199 216.224 185.187 210.5V231.5L136.743 243.152Z" fill="#ECB5AD"/>
<path d="M98.0005 175.5C102.884 193 117.001 190.774 117.001 190.774C125.502 190.774 124.002 226.5 161.502 226.5C199.002 226.5 205.001 190.774 205.001 190.774C213.001 196.5 217.711 188.953 221.781 171C225.852 153.047 221.781 155.945 221.781 155.945C231.906 104.848 207.72 76.2343 165.905 73.9006C124.091 71.5668 95.3134 114.048 98.0002 155.945C98.0002 155.945 93.1172 158 98.0005 175.5Z" fill="#F5C6BC"/>
<path d="M112.002 153.5L98.502 156L96.002 158.5L94.002 128.93V111L99.502 95L107.002 82.4997L117.002 72.9997L133.978 65.4997L134.128 65.8608C133.45 64.1534 132.742 62.3676 132.002 60.4997C115.813 19.6226 207.732 19.7164 186.074 63.399C220.11 75.7689 227.002 123.5 227.002 123.5L223.502 157L222.002 156L207 156V135.5L203 121L192 109C192 109 195 109.5 178.5 105C167.513 102.004 157.5 103 141 106.5C134.772 107.821 127 115 121.002 128.93L112.002 153.5Z" fill="#371B00"/>
<path d="M221.187 243.5L172.769 327.236H244.079H247.741H252.142L316.644 327.236C302.187 251 268.687 247.5 221.187 243.5Z" fill="#3FA4DD"/>
<ellipse cx="138.356" cy="156.319" rx="5.35513" ry="7.31868" fill="black"/>
<ellipse cx="183.356" cy="157.319" rx="5.35513" ry="7.31868" fill="black"/>
<path d="M159.273 166L158.001 185.08L161.817 182.417" stroke="black"/>
<path d="M102.759 164L109.571 181.46" stroke="black" stroke-width="0.5"/>
<path d="M216.407 166L209.889 183.572" stroke="black" stroke-width="0.5"/>
<path d="M126.001 143.982C137.068 140.591 136.927 141.546 147.899 141.074C147.899 141.074 143.494 136.664 138.139 137.021C132.784 137.378 128.143 140.234 126.001 143.982Z" fill="black"/>
<path d="M176.002 140.914C187.783 141.386 188.489 142.163 198.711 144.397C198.711 144.397 195.007 138.767 189.711 137.898C184.415 137.028 178.501 138.058 176.002 140.914Z" fill="black"/>
<path d="M248.901 337.191L244.668 289.085" stroke="black" stroke-width="0.5"/>
<path d="M92.6953 241.078L151.217 330.637L83.8461 328.398L80.6469 328.813L76.8017 329.312L20.447 336.626C22.8423 256.116 48.6394 243.137 92.6953 241.078Z" fill="#3FA4DD"/>
<path d="M90.9931 335.042L95.8965 287" stroke="black" stroke-width="0.5"/>
</g>
<path d="M211 154.271L224.5 156.771L229 129.701V111.771L223.5 95.7705L216 83.2702L206 73.7702L189.024 66.2702L188.874 66.6313C189.552 64.9239 190.26 63.1381 191 61.2702C207.189 20.3931 115.27 20.4869 136.928 64.1695C102.892 76.5394 96 124.271 96 124.271L97.5 155.5L101 156.771L116.002 156.771V136.271L120.002 121.771L131.002 109.771C131.002 109.771 128.002 110.271 144.502 105.771C155.488 102.774 165.502 103.771 182.002 107.271C188.23 108.592 196.002 115.771 202 129.701L211 154.271Z" fill="#371B00"/>
<path d="M180.766 191L143.28 192.071C137.184 192.262 143.075 210.246 163.808 207.958C184.54 205.67 185.942 191.357 180.766 191Z" fill="black"/>
<path d="M173.694 203.631C172.92 200.282 152.57 199.568 150.428 203.316C148.286 207.065 158.29 207.779 160.967 207.6C163.644 207.422 174.468 206.98 173.694 203.631Z" fill="#FF80AE"/>
<path d="M148.276 198.32C147.027 197.785 145.853 194.266 145.777 192.251L179.336 191.537C179.021 195.49 177.908 196.178 175.409 197.606C172.91 199.034 149.526 198.856 148.276 198.32Z" fill="white"/>
</svg>
