<svg width="325" height="325" viewBox="0 0 325 325" fill="none" xmlns="http://www.w3.org/2000/svg">
<circle cx="162.177" cy="162.177" r="162.177" fill="#9FFF64" fill-opacity="0.6"/>
<mask id="mask0_1617_7887" style="mask-type:alpha" maskUnits="userSpaceOnUse" x="0" y="0" width="325" height="325">
<circle cx="162.177" cy="162.177" r="162.177" fill="#D9D9D9"/>
</mask>
<g mask="url(#mask0_1617_7887)">
<path d="M131.182 246.313V209.339C151.228 218.722 163.4 218.23 182.405 209.339V247.933C206.724 243.175 210.227 245.784 243.534 252.163C276.84 258.541 303.041 257.007 312.746 331.043H-6C-0.0969839 282.107 35.7643 262.77 53.7393 254.277C71.7142 245.784 88.3004 240.531 131.182 246.313Z" fill="#F3CBAE"/>
<path d="M129.34 245.29C149.43 271.723 162.646 273.838 182.736 247.933C190.666 243.175 207.055 244.761 219.215 243.704L170.988 328.929H158.233H142.242L75.415 243.175C87.891 241.053 114.008 245.29 129.34 245.29Z" fill="#BDB2FF"/>
<path d="M131.183 240.163V201.938C151.356 207.438 160.213 211.69 182.404 205.639V227.843L131.183 240.163Z" fill="#E99E93"/>
<path d="M91.2747 167.575C97.0896 187.136 110.308 184.781 110.308 184.781C119.296 184.781 116.123 222.556 157.361 222.556C198.599 222.556 203.355 184.781 203.355 184.781C211.813 190.836 216.794 182.856 221.097 163.873C225.401 144.891 211.284 142.726 211.284 142.726C221.989 88.6991 197.342 71.7085 153.129 69.2409C108.916 66.7733 94.2487 102.127 97.0896 146.427C97.0896 146.427 85.4597 148.014 91.2747 167.575Z" fill="#F3CBAE"/>
<path d="M96.5618 146.427L107.596 145.243L116.777 121.239C122.895 107.63 130.822 100.616 137.175 99.3253C154.006 95.9059 164.22 94.9326 175.426 97.8599C192.257 102.256 189.197 101.768 189.197 101.768L200.417 113.491L204.497 127.658L206.526 151.714L216.228 145.243L217.47 118.377L216.228 108.363L213.399 99.3253L210.227 90.9164L204.497 84.0436L189.197 74.5275L173.22 69.2407H137.175L125.64 72.9477L115.595 79.2856L106.079 89.5562L99.2059 106.248L94.8458 125.809L96.5618 146.427Z" fill="#371B00"/>
<path d="M219.214 243.704L168.88 332.423L244.277 331.717L248.148 331.681L252.801 331.637L320.999 330.999C304.959 250.537 269.476 247.462 219.214 243.704Z" fill="#BDB2FF"/>
<ellipse cx="139.232" cy="146.235" rx="5.66225" ry="7.73841" fill="black"/>
<ellipse cx="176.238" cy="146.235" rx="5.66225" ry="7.73841" fill="black"/>
<path d="M155.345 156L154 176.174L158.035 173.359" stroke="black"/>
<path d="M95.25 156.472L102.453 174.933" stroke="black" stroke-width="0.5"/>
<path d="M215.416 158.586L208.524 177.166" stroke="black" stroke-width="0.5"/>
<path d="M124 128.383C135.702 124.797 135.553 125.807 147.154 125.308C147.154 125.308 142.497 120.644 136.834 121.022C131.172 121.399 126.265 124.419 124 128.383Z" fill="black"/>
<path d="M167 124.253C179.457 124.752 180.203 125.573 191.012 127.936C191.012 127.936 187.095 121.983 181.495 121.064C175.895 120.144 169.642 121.233 167 124.253Z" fill="black"/>
<path d="M249.772 339.595L245.297 288.73" stroke="black" stroke-width="0.5"/>
<path d="M94.5578 242.952L151.571 342.779L77.3125 335.151L73.7416 335.344L69.4497 335.575L6.54731 338.968C16.0782 253.51 45.696 241.712 94.5578 242.952Z" fill="#BDB2FF"/>
<path d="M82.8095 337.323L87.9941 286.526" stroke="black" stroke-width="0.5"/>
<path d="M206.353 149L215.999 145.512V135.409L213.769 108.359L200.525 85.4247L172.977 79.0435L178.805 65.7502L180.924 58.8373C191.519 33.314 89.912 31.834 159.203 89.6787C110.094 89.6787 110.556 108.359 110.556 108.359L96.999 137.562V145.512L108.047 149L108.047 127.23L110.556 108.359L123.111 99.0893C123.111 99.0893 120.098 99.6202 136.668 94.8416C147.701 91.6597 157.756 92.7178 174.326 96.4345C180.58 97.8374 197.151 106.841 203.174 121.634L206.353 149Z" fill="#371B00"/>
<path d="M177.73 185.021L138.094 186.153C131.649 186.355 137.878 205.371 159.8 202.951C181.721 200.532 183.203 185.398 177.73 185.021Z" fill="black"/>
<path d="M170.252 198.376C169.434 194.835 147.917 194.08 145.652 198.044C143.388 202.007 153.965 202.762 156.795 202.573C159.626 202.385 171.071 201.917 170.252 198.376Z" fill="#FF80AE"/>
<path d="M143.378 192.761C142.057 192.195 140.815 188.474 140.735 186.344L176.219 185.589C175.886 189.768 174.709 190.496 172.066 192.006C169.424 193.516 144.699 193.327 143.378 192.761Z" fill="white"/>
</g>
</svg>
