<svg width="325" height="325" viewBox="0 0 325 325" fill="none" xmlns="http://www.w3.org/2000/svg">
<circle cx="162.177" cy="162.177" r="162.177" fill="#BB64FF" fill-opacity="0.6"/>
<mask id="mask0_1533_6917" style="mask-type:alpha" maskUnits="userSpaceOnUse" x="0" y="0" width="325" height="325">
<circle cx="162.177" cy="162.177" r="162.177" fill="#D9D9D9"/>
</mask>
<g mask="url(#mask0_1533_6917)">
<path d="M94.4999 167C106.499 194.5 114.621 185.097 114.621 185.097C128.317 209.711 129.303 224.553 166.737 227.366C204.17 230.178 221.003 185.097 221.003 185.097C231.5 189.5 236.5 180 243.5 163C250.5 146 237 144.5 237 144.5C228.281 143.352 228.782 145.461 224.485 150.995C234.013 100.965 211.252 72.9485 171.903 70.6634C132.554 68.3784 104.954 107.864 107.482 148.886C107.482 148.886 82.5005 139.5 94.4999 167Z" fill="#FFE1E2"/>
<path d="M167.5 202C155.767 202 150 198 150 198C150 198 158.47 205.5 167.5 205.5C176.53 205.5 183.5 198 183.5 198C183.5 198 179.233 202 167.5 202Z" fill="black"/>
<ellipse cx="139.309" cy="162.24" rx="5.34993" ry="7.31158" fill="black"/>
<ellipse cx="191.027" cy="162.24" rx="5.34993" ry="7.31158" fill="black"/>
<path d="M124.684 143.76C135.839 141.808 137.799 142.251 148.663 140.372C148.663 140.372 142.16 136.448 136.81 136.805C131.46 137.162 126.824 140.015 124.684 143.76Z" fill="black"/>
<path d="M182.818 140.876C194.588 141.347 197.442 142.417 207.654 144.65C207.654 144.65 202.748 137.809 197.457 136.941C192.166 136.072 185.315 138.022 182.818 140.876Z" fill="black"/>
<path d="M100.001 164L108.687 175.601" stroke="black" stroke-width="0.5"/>
<path d="M236.027 162L229.452 175.281" stroke="black" stroke-width="0.5"/>
<path d="M143.518 244.694V223.362C160.478 227.984 170.943 230.828 192.234 223.362V244.694C231 244.694 236.292 241.678 256.5 249.5C276.708 257.322 298.346 290.482 296 333.5L47.5 339C51.4897 292.449 37.2905 270.454 74.9999 252.5C105.059 243.249 108.5 244.694 143.518 244.694Z" fill="#FDFFB6"/>
<path d="M193.109 220.388C173.399 226.486 161.635 225.997 143.586 220.389L143.586 229.557L143.586 241.944C143.047 267.905 154.614 277.046 169.976 277.046C185.337 277.046 193.767 265.21 193.109 243.321V220.388Z" fill="#FFE1E2"/>
<path d="M143 243C158 273.139 184 268 193.5 244.5C204 244.5 223 243.5 234.5 244.5L183.202 322.964H171.139H156.016L94.5 247C106.299 244.993 128.5 243 143 243Z" fill="#FDFFB6"/>
<path d="M193.149 231.624L143.595 244.013V233.802V222.638C162.178 229.559 175.576 227.093 193.149 220.685V231.624Z" fill="#C59798"/>
<path d="M117.066 133.287L111.9 165.932L107 149C99.018 152.443 104.384 129.673 101 124.5C97.6151 119.327 97.9996 108.5 99.4998 104C101 99.4998 100.5 100.32 103 91C105.5 81.6795 148.605 31.9581 206.5 60.4998C221.14 69.9998 223.634 75.5001 229 81C229 81 235 91.5 237 96.5C239 101.5 239.5 101 241.5 113.843C241.5 120 241.5 118.5 238.5 132.5C235.752 145.317 231.217 146.4 230.471 146.492L223.95 169.678L221.456 135.249C207.771 124.53 202.394 117.323 201.86 99.7501C193.583 105.539 188.833 106.691 179.949 100.82C168.157 116.137 160.576 122.75 134.168 108.313C134.006 121.651 130.185 127.072 117.066 133.287Z" fill="#170303"/>
<path d="M165.272 167L164 186.08L167.816 183.417" stroke="black"/>
<circle cx="178.5" cy="192.5" r="1.5" fill="#511315"/>
<path d="M157 163.872C163.207 161.35 169.793 161.889 175 164.5" stroke="#1B1B2D" stroke-opacity="0.8" stroke-width="3"/>
<path d="M120.808 161.447C117.675 161.814 115.421 158.112 113.19 157.654" stroke="#1B1B2D" stroke-opacity="0.8" stroke-width="3"/>
<path d="M223.221 156.618C217.867 157.126 215.399 161.272 211.364 162.539" stroke="#1B1B2D" stroke-opacity="0.8" stroke-width="3"/>
<mask id="mask1_1533_6917" style="mask-type:alpha" maskUnits="userSpaceOnUse" x="169" y="157" width="48" height="25">
<rect x="169" y="159.194" width="46.5212" height="22.0603" transform="rotate(-2.70298 169 159.194)" fill="#D9D9D9"/>
</mask>
<g mask="url(#mask1_1533_6917)">
<g opacity="0.8" filter="url(#filter0_i_1533_6917)">
<path d="M210.552 166.009C210.552 169.164 210.152 171.26 209.482 172.671C208.845 174.011 207.931 174.806 206.655 175.318C205.304 175.86 203.521 176.094 201.168 176.169C199.664 176.217 198.028 176.201 196.204 176.183C195.161 176.172 194.055 176.161 192.878 176.161C187.666 176.161 183.979 176.056 181.349 175.705C178.685 175.35 177.404 174.774 176.715 174.086C176.061 173.433 175.693 172.426 175.561 170.472C175.475 169.189 175.496 167.7 175.522 165.87C175.536 164.899 175.551 163.833 175.552 162.65C175.896 160.802 176.077 159.044 176.236 157.509C176.303 156.858 176.365 156.247 176.435 155.686C176.684 153.674 177.019 152.249 177.752 151.157C178.443 150.127 179.617 149.214 181.953 148.554C184.327 147.884 187.786 147.509 192.878 147.509C193.499 147.509 194.098 147.507 194.679 147.504C197.121 147.495 199.221 147.486 201.078 147.664C203.354 147.881 205.04 148.364 206.328 149.313C207.59 150.244 208.649 151.757 209.394 154.4C210.147 157.07 210.552 160.796 210.552 166.009Z" stroke="white" stroke-width="3"/>
</g>
</g>
<mask id="mask2_1533_6917" style="mask-type:alpha" maskUnits="userSpaceOnUse" x="118" y="158" width="40" height="21">
<rect x="118.932" y="158" width="39" height="19" transform="rotate(2.81199 118.932 158)" fill="#D9D9D9"/>
</mask>
<g mask="url(#mask2_1533_6917)">
<g opacity="0.8" filter="url(#filter1_i_1533_6917)">
<path d="M121 165C121 168.155 121.4 170.251 122.07 171.661C122.707 173.002 123.62 173.796 124.897 174.309C126.248 174.851 128.03 175.084 130.384 175.16C131.887 175.208 133.523 175.192 135.348 175.173C136.391 175.163 137.496 175.152 138.674 175.152C143.886 175.152 147.573 175.047 150.203 174.696C152.867 174.34 154.148 173.765 154.837 173.077C155.491 172.423 155.859 171.417 155.99 169.462C156.076 168.18 156.055 166.691 156.03 164.861C156.016 163.89 156.001 162.823 156 161.64C155.655 159.793 155.474 158.035 155.316 156.499C155.249 155.848 155.186 155.238 155.117 154.677C154.867 152.664 154.532 151.239 153.8 150.148C153.109 149.118 151.935 148.205 149.599 147.545C147.225 146.874 143.766 146.5 138.674 146.5C138.053 146.5 137.453 146.498 136.873 146.495C134.43 146.485 132.331 146.477 130.474 146.654C128.198 146.872 126.512 147.355 125.224 148.304C123.962 149.235 122.903 150.747 122.157 153.391C121.404 156.061 121 159.787 121 165Z" stroke="white" stroke-width="3"/>
</g>
</g>
<mask id="mask3_1533_6917" style="mask-type:alpha" maskUnits="userSpaceOnUse" x="167" y="141" width="48" height="26">
<rect x="167.146" y="143.996" width="46.5212" height="22.0603" transform="rotate(-2.70298 167.146 143.996)" fill="#D9D9D9"/>
</mask>
<g mask="url(#mask3_1533_6917)">
<path d="M210.552 166.009C210.552 169.164 210.152 171.26 209.482 172.671C208.845 174.011 207.931 174.806 206.655 175.318C205.304 175.86 203.521 176.094 201.168 176.169C199.664 176.217 198.028 176.201 196.204 176.183C195.161 176.172 194.055 176.161 192.878 176.161C187.666 176.161 183.979 176.056 181.349 175.705C178.685 175.35 177.404 174.774 176.715 174.086C176.061 173.433 175.693 172.426 175.561 170.472C175.475 169.189 175.496 167.7 175.522 165.87C175.536 164.899 175.551 163.833 175.552 162.65C175.896 160.802 176.077 159.044 176.236 157.509C176.303 156.858 176.365 156.247 176.435 155.686C176.684 153.674 177.019 152.249 177.752 151.157C178.443 150.127 179.617 149.214 181.953 148.554C184.327 147.884 187.786 147.509 192.878 147.509C193.499 147.509 194.098 147.507 194.679 147.504C197.121 147.495 199.221 147.486 201.078 147.664C203.354 147.881 205.04 148.364 206.328 149.313C207.59 150.244 208.649 151.757 209.394 154.4C210.147 157.07 210.552 160.796 210.552 166.009Z" stroke="#1B1B2D" stroke-opacity="0.8" stroke-width="3"/>
</g>
<mask id="mask4_1533_6917" style="mask-type:alpha" maskUnits="userSpaceOnUse" x="118" y="144" width="41" height="21">
<rect x="119.489" y="144.055" width="39" height="19" transform="rotate(2.81199 119.489 144.055)" fill="#D9D9D9"/>
</mask>
<g mask="url(#mask4_1533_6917)">
<path d="M121 165C121 168.155 121.4 170.251 122.07 171.661C122.707 173.002 123.62 173.796 124.897 174.309C126.248 174.851 128.03 175.084 130.384 175.16C131.887 175.208 133.523 175.192 135.348 175.173C136.391 175.163 137.496 175.152 138.674 175.152C143.886 175.152 147.573 175.047 150.203 174.696C152.867 174.34 154.148 173.765 154.837 173.077C155.491 172.423 155.859 171.417 155.99 169.462C156.076 168.18 156.055 166.691 156.03 164.861C156.016 163.89 156.001 162.823 156 161.64C155.655 159.793 155.474 158.035 155.316 156.499C155.249 155.848 155.186 155.238 155.117 154.677C154.867 152.664 154.532 151.239 153.8 150.148C153.109 149.118 151.935 148.205 149.599 147.545C147.225 146.874 143.766 146.5 138.674 146.5C138.053 146.5 137.453 146.498 136.873 146.495C134.43 146.485 132.331 146.477 130.474 146.654C128.198 146.872 126.512 147.355 125.224 148.304C123.962 149.235 122.903 150.747 122.157 153.391C121.404 156.061 121 159.787 121 165Z" stroke="#1B1B2D" stroke-opacity="0.8" stroke-width="3"/>
</g>
</g>
<defs>
<filter id="filter0_i_1533_6917" x="174" y="146" width="38.0518" height="35.7007" filterUnits="userSpaceOnUse" color-interpolation-filters="sRGB">
<feFlood flood-opacity="0" result="BackgroundImageFix"/>
<feBlend mode="normal" in="SourceGraphic" in2="BackgroundImageFix" result="shape"/>
<feColorMatrix in="SourceAlpha" type="matrix" values="0 0 0 0 0 0 0 0 0 0 0 0 0 0 0 0 0 0 127 0" result="hardAlpha"/>
<feOffset dy="4"/>
<feGaussianBlur stdDeviation="2"/>
<feComposite in2="hardAlpha" operator="arithmetic" k2="-1" k3="1"/>
<feColorMatrix type="matrix" values="0 0 0 0 0 0 0 0 0 0 0 0 0 0 0 0 0 0 0.25 0"/>
<feBlend mode="normal" in2="shape" result="effect1_innerShadow_1533_6917"/>
</filter>
<filter id="filter1_i_1533_6917" x="119.5" y="144.991" width="38.0518" height="35.7007" filterUnits="userSpaceOnUse" color-interpolation-filters="sRGB">
<feFlood flood-opacity="0" result="BackgroundImageFix"/>
<feBlend mode="normal" in="SourceGraphic" in2="BackgroundImageFix" result="shape"/>
<feColorMatrix in="SourceAlpha" type="matrix" values="0 0 0 0 0 0 0 0 0 0 0 0 0 0 0 0 0 0 127 0" result="hardAlpha"/>
<feOffset dy="4"/>
<feGaussianBlur stdDeviation="2"/>
<feComposite in2="hardAlpha" operator="arithmetic" k2="-1" k3="1"/>
<feColorMatrix type="matrix" values="0 0 0 0 0 0 0 0 0 0 0 0 0 0 0 0 0 0 0.25 0"/>
<feBlend mode="normal" in2="shape" result="effect1_innerShadow_1533_6917"/>
</filter>
</defs>
</svg>
