<svg width="325" height="325" viewBox="0 0 325 325" fill="none" xmlns="http://www.w3.org/2000/svg">
<circle cx="162.177" cy="162.177" r="162.177" fill="#CAFFBF"/>
<mask id="mask0_1645_8795" style="mask-type:alpha" maskUnits="userSpaceOnUse" x="0" y="0" width="325" height="325">
<circle cx="162.177" cy="162.177" r="162.177" fill="#D9D9D9"/>
</mask>
<g mask="url(#mask0_1645_8795)">
<path d="M284.213 228.5C285.213 284 284.213 323 177.213 329C106.868 332.945 47.7134 330 58.2134 228.5C58.2134 172.443 108.805 127 171.213 127C233.622 127 283.213 173 284.213 228.5Z" fill="#B5B5B5"/>
<path d="M136.742 248.968V214C155.701 222.873 167.213 222.409 185.187 214V250.5C208.187 246 216.187 242.936 247.687 248.968C279.187 255 299.279 259.083 308.459 329.102H7.00098C12.5838 282.82 44.6865 257 61.6865 248.968C78.6865 240.936 96.1865 243.5 136.742 248.968Z" fill="#F5C6BC"/>
<path d="M136.187 246.5C163.687 270.5 151.818 271.656 186.187 249C191.187 243 210.329 243.896 222.187 243.5L174.389 327.103H162.326H147.202L85.1865 241.5C96.9858 239.493 121.687 246.5 136.187 246.5Z" fill="#FEFEFE"/>
<path d="M136.743 243.152V207C155.823 212.202 164.199 216.224 185.187 210.5V231.5L136.743 243.152Z" fill="#ECB5AD"/>
<path d="M98.0647 175.885C102.71 193.424 116.139 191.193 116.139 191.193C124.226 191.193 122.799 227 158.472 227C194.145 227 199.852 191.193 199.852 191.193C207.462 196.932 211.942 189.368 215.814 171.375C219.686 153.381 215.815 156.286 215.815 156.286C225.446 105.074 202.438 76.395 162.661 74.056C122.884 71.717 104.247 143.311 98.0644 156.286C98.0644 156.286 93.4193 158.345 98.0647 175.885Z" fill="#F5C6BC"/>
<path d="M221.187 243.5L172.769 327.236H244.079H247.741H252.142L316.644 327.236C302.187 251 268.687 247.5 221.187 243.5Z" fill="#FEFEFE"/>
<ellipse cx="141" cy="159.5" rx="6" ry="3.5" fill="black"/>
<ellipse cx="181" cy="159.5" rx="6" ry="3.5" fill="black"/>
<path d="M159.273 166L158.001 185.08L161.817 182.417" stroke="black"/>
<path d="M102.759 164L109.571 181.46" stroke="black" stroke-width="0.5"/>
<path d="M216.407 166L209.889 183.572" stroke="black" stroke-width="0.5"/>
<path d="M127 145.982C138.067 142.591 137.926 143.546 148.898 143.074C148.898 143.074 144.493 138.664 139.138 139.021C133.783 139.378 129.142 142.234 127 145.982Z" fill="black"/>
<path d="M172 143.914C183.781 144.386 184.487 145.163 194.709 147.397C194.709 147.397 191.005 141.767 185.709 140.898C180.413 140.028 174.499 141.058 172 143.914Z" fill="black"/>
<path d="M248.901 337.191L244.668 289.085" stroke="black" stroke-width="0.5"/>
<path d="M92.6953 241.078L151.217 330.637L83.8461 328.398L80.6469 328.813L76.8017 329.312L20.447 336.626C22.8423 256.116 48.6394 243.137 92.6953 241.078Z" fill="#FEFEFE"/>
<path d="M90.9931 335.042L95.8965 287" stroke="black" stroke-width="0.5"/>
<path d="M129.651 191.532C126.291 189.836 124.136 187.685 122.135 184.594C121.136 183.05 118.852 183.36 118.606 185.183C116.783 198.689 116.248 234 160.5 234C203.941 234 204.222 199.333 202.493 185.044C202.26 183.121 199.76 182.875 198.656 184.468C196.812 187.13 194.315 189.196 190.122 191.233C186.815 192.839 182.994 192.775 179.468 191.734C164.641 187.357 154.465 187.207 139.55 191.796C136.282 192.802 132.703 193.072 129.651 191.532Z" fill="#323232"/>
<ellipse cx="160.5" cy="203" rx="15.5" ry="8" fill="#F5C6BC"/>
<path d="M159.774 206.101C150.484 205.634 147 199.091 147 199.091C147 199.091 151.065 208.594 159.919 207.971C168.774 207.347 170.893 204.675 174 198C174 198 169.065 206.569 159.774 206.101Z" fill="black"/>
<path d="M105.901 150.174C98.465 227.514 65.9009 212.514 58.4008 295.014C50.2849 293.055 21.4009 231.514 58.4009 167.514C95.4009 103.514 93.9008 59.0141 163.401 58.0141C232.901 57.014 244.133 109.514 270.517 167.514C296.901 225.514 276.531 291.137 267.901 294.014C267.901 223.014 221.901 224.514 223.401 150.174C175.527 127.696 149.444 127.546 105.901 150.174Z" fill="white"/>
<path d="M71.4004 118.274C71.4004 113.171 75.1575 108.831 80.2106 108.124C144.524 99.1256 184.203 99.4865 248.491 108.16C253.593 108.848 257.4 113.219 257.4 118.366V118.366C257.4 124.735 251.681 129.58 245.385 128.621C183.14 119.146 143.972 118.74 83.4827 128.484C77.1739 129.501 71.4004 124.664 71.4004 118.274V118.274Z" fill="#BBBABA"/>
<ellipse cx="139.837" cy="175.145" rx="13.8369" ry="13.1451" fill="#F0A9A9"/>
<ellipse cx="182.837" cy="175.145" rx="13.8369" ry="13.1451" fill="#F0A9A9"/>
</g>
</svg>
