<svg width="325" height="325" viewBox="0 0 325 325" fill="none" xmlns="http://www.w3.org/2000/svg">
<circle cx="162.177" cy="162.177" r="162.177" fill="#82FFB4" fill-opacity="0.6"/>
<mask id="mask0_459_3416" style="mask-type:alpha" maskUnits="userSpaceOnUse" x="0" y="0" width="325" height="325">
<circle cx="162.177" cy="162.177" r="162.177" fill="#D9D9D9"/>
</mask>
<g mask="url(#mask0_459_3416)">
<path d="M233.333 23.2303C189.51 20.3487 171.119 36.0708 152.635 69.8754L179.346 219.415V244.219L300.849 324.353C313.209 316.188 320.238 316.648 325.788 295.537C331.837 272.53 326.612 259.893 307.084 237.186C319.752 203.136 331.489 183.672 323.651 163.706C315.813 143.741 306.727 142.84 287.488 141.194C285.885 69.5405 277.156 26.1118 233.333 23.2303Z" fill="#BDB2FF"/>
<path d="M76.4157 148.453C74.4617 122.22 102.551 134.168 105.471 140.117C105.174 98.6331 120.567 76.3181 158.768 76.3181C197.467 76.3182 209.813 106.596 209.971 141.747C214.659 132.946 238.531 122.535 240.21 141.747C241.883 160.888 232.634 175.711 214.409 171.876C217.427 173.515 200.71 220.484 155.888 221.312C110.179 222.157 106.897 173.106 100.81 171.833C94.7236 170.561 78.5757 177.452 76.4157 148.453Z" fill="#C59798"/>
<path d="M130.4 236.261V213.692C147.937 220.22 158.974 222.007 179.347 213.692V225.139V236.261C209.606 223.913 233.367 223.702 253.319 231.711C273.271 239.719 299.815 280.307 297.499 324.353H-0.000976562C3.9382 276.69 13.8942 250.094 51.1263 231.711C80.8047 222.238 98.0938 222.61 130.4 236.261Z" fill="#C59798"/>
<ellipse cx="130.438" cy="178.094" rx="14.7782" ry="14.0393" fill="#CB7D7B"/>
<ellipse cx="180.975" cy="178.094" rx="14.7782" ry="14.0393" fill="#CB7D7B"/>
<path d="M129.742 236.586V217.507C149.114 224.889 159.975 222.804 179.349 215.599V225.139L129.742 236.586Z" fill="#8C6E6F"/>
<path d="M117.039 120.661C135.409 120.957 145.872 117.728 165.107 99.9306C172.06 118.478 178.386 125.457 197.669 126.635L203.182 152.636C209.118 148.171 212.684 143.731 213.691 126.635C213.691 126.635 210.763 102.917 195.429 87.1056C180.096 71.2941 169.955 68.686 155.459 68.8345C106.955 65.0688 85.487 133.833 108.425 147.014L117.039 120.661Z" fill="#BDB2FF"/>
<path d="M177.407 63.1117C160.207 56.8983 152.159 59.9804 148.247 69.3267C172.446 69.5422 182.885 74.5608 197.375 89.9926C201.579 78.2005 194.608 69.3251 177.407 63.1117Z" fill="white"/>
<ellipse cx="129.663" cy="156.69" rx="5.38776" ry="7.36327" fill="black"/>
<ellipse cx="181.745" cy="156.69" rx="5.38776" ry="7.36327" fill="black"/>
<path d="M156.451 174.5L153.809 160.268L152.635 175.532L156.451 174.5Z" fill="#CB7D7B"/>
<path d="M153.907 160.268L152.635 175.532L156.451 173.402" stroke="black" stroke-width="0.5"/>
<path d="M114.938 138.078C126.073 130.895 128.228 132.87 139.088 134.666C139.088 134.666 132.538 130.715 127.151 131.074C121.763 131.433 117.094 134.307 114.938 138.078Z" fill="black"/>
<path d="M173.489 134.666C185.881 133.049 188.333 134.249 198.501 138.466C198.501 138.466 193.021 133.13 187.692 132.255C182.364 131.381 176.004 131.792 173.489 134.666Z" fill="black"/>
<path d="M83.3311 148.298L97.6984 160.51" stroke="black" stroke-width="0.5"/>
<path d="M233.873 144.658L222.236 159.495" stroke="black" stroke-width="0.5"/>
<path d="M172.05 183.808H139.005C140.914 194.832 147.752 200.69 156.661 200.69C165.57 200.69 170.524 194.305 172.05 183.808Z" fill="#FFC6FF"/>
<path d="M167.385 186.322H143.679C145.048 194.062 149.954 198.175 156.345 198.175C162.737 198.175 166.29 193.692 167.385 186.322Z" fill="white"/>
<path d="M184.446 212.185C183.185 215.677 172.257 218.686 170.976 219.189C166.326 220.57 163.479 221.139 157.866 221.703C157.028 220.386 156.968 219.009 154.633 217.572C152.299 216.136 151.939 212.185 153.735 210.748C155.531 209.311 160.201 208.234 160.201 208.234C163.352 204.409 154.454 206.438 161.637 202.307C168.821 198.177 172.952 199.613 180.674 196.74C188.397 193.866 185.706 208.692 184.446 212.185Z" fill="#FFE1E2"/>
<path d="M190.597 267.739C190.597 267.739 180.909 284.322 177.308 283.755C170.124 282.625 182.458 278.303 179.463 276.36C176.468 274.416 168.867 280.131 166.532 278.694C164.197 277.258 156.892 274.237 158.688 272.8C160.484 271.363 172.322 274.531 173.357 273.666C174.391 272.8 166.971 266.439 170.842 265.584C174.714 264.729 178.565 264.507 179.463 266.841C180.361 269.176 190.597 267.739 190.597 267.739Z" fill="#FFE1E2"/>
<path d="M113.255 158.451C112.002 155.661 109.465 155.721 107.938 152.92C105.224 149.985 106.861 150.226 108.836 143.043C110.991 140.887 110.395 143.297 112.699 141.811C115.003 140.325 118.722 141.706 119.243 143.946C119.764 146.186 116.558 148.071 116.558 148.071C115.301 154.718 124.346 150.856 123.446 154.718C122.546 158.579 120.902 160.867 118.409 160.669C115.915 160.471 114.509 161.24 113.255 158.451Z" fill="#FFE1E2"/>
<path d="M38.7957 275.402C34.1263 272.708 54.4202 285.1 38.7957 285.1C23.1712 285.1 14.3016 270.794 19.9935 267.172C25.6855 263.549 30.0641 257.695 30.355 246.129C30.6459 234.562 82.1139 222.818 83.6938 225.475C85.2736 228.133 83.155 270.373 83.6937 273.247C84.2325 276.12 69.3877 322.243 48.6733 306.112C27.9588 289.981 47.8393 292.849 48.6733 285.1C49.5073 277.351 43.4651 278.096 38.7957 275.402Z" fill="#FFE1E2"/>
<path d="M236.342 237.508C231.673 234.814 228.799 232.659 232.212 245.05C235.624 257.442 218.438 241.13 224.13 237.508C229.822 233.885 230.395 230.091 230.395 227.955C230.395 225.82 244.603 229.246 249.632 230.503C254.661 231.761 275.314 240.777 269.926 248.103C264.538 255.43 241.73 266.781 240.293 262.83C238.857 258.879 244.424 237.508 240.293 237.508C236.163 237.508 241.012 240.201 236.342 237.508Z" fill="#FFE1E2"/>
<path d="M194.145 184.348C197.916 176.985 193.635 170.973 190.763 167.671C188.049 164.736 185.704 166.389 187.859 160.103C189.476 158.846 189.653 163.261 191.957 161.775C194.26 160.29 197.979 161.671 198.5 163.911C199.021 166.151 204.741 158.487 205.998 165.132C207.255 171.777 207.794 174.682 202.704 174.682C197.614 174.682 202.745 183.468 200.251 183.27C197.758 183.073 190.373 191.711 194.145 184.348Z" fill="#FFE1E2"/>
<path d="M99.4772 223.024C91.1472 221.874 86.3939 221.477 77.729 221.323L77.9181 293.349L64.8691 324.353H236.585L224.293 293.349V222.646C215.723 222.594 210.843 223.237 201.977 225.671C195.929 294.376 127.552 334.925 99.4772 223.024Z" fill="#FFD6A5"/>
<path d="M235.88 323.512L231.43 275.118" stroke="black" stroke-width="0.5"/>
<path d="M69.1038 324.096L74.0371 275.761" stroke="black" stroke-width="0.5"/>
</g>
</svg>
