<svg width="325" height="327" viewBox="0 0 325 327" fill="none" xmlns="http://www.w3.org/2000/svg">
<path d="M324.353 164.085C324.353 253.652 251.744 326.261 162.177 326.261C72.6089 326.261 0 253.652 0 164.085C0 74.5169 72.6089 1.90796 162.177 1.90796C251.744 1.90796 324.353 74.5169 324.353 164.085Z" fill="#B1ECFF"/>
<mask id="mask0_459_3443" style="mask-type:alpha" maskUnits="userSpaceOnUse" x="0" y="0" width="325" height="325">
<circle cx="162.177" cy="162.177" r="162.177" fill="#D9D9D9"/>
</mask>
<g mask="url(#mask0_459_3443)">
<path d="M187.587 188.064C167.843 193.608 156.061 192.111 137.98 187.012L138.886 217.851C145.982 230.415 154.238 244.423 167.31 255.699C181.92 243.828 183.285 228.864 187.587 216.8V188.064Z" fill="#FFADAD"/>
<path d="M138.505 219.239L163.153 249.644L185.37 219.239C214.853 204.504 238.832 204.253 258.272 213.809C277.713 223.365 303.576 271.796 301.319 324.353H11.4473C15.2854 267.48 24.9862 235.744 61.2635 213.809C90.181 202.507 107.027 202.951 138.505 219.239Z" fill="#BDB2FF"/>
<path d="M223.005 160.476C223.008 159.218 226.426 161.035 229.743 158.241C233.06 155.447 228.519 150.208 228.519 150.208L215.248 148.112L190.619 185.213C190.619 185.213 198.5 189.92 201.111 187.265C203.723 184.61 200.188 180.01 200.188 180.01C200.188 180.01 208.263 181.467 210.132 179.542C212.001 177.618 211.593 175.073 211.593 175.073C211.593 175.073 215.248 174.482 217.03 173.637C218.812 172.792 218.096 164.678 218.096 164.678C218.096 164.678 221.011 165.925 223.002 165.306C224.993 164.687 223.002 161.734 223.005 160.476Z" fill="#CAFFBF"/>
<path d="M101.559 153.119C101.671 151.808 97.9352 153.023 94.7293 149.452C91.5234 145.881 96.746 141.322 96.746 141.322L105.681 143.02L133.094 185.332C133.094 185.332 124.433 188.673 121.951 185.388C119.469 182.102 123.583 178.009 123.583 178.009C123.583 178.009 115.018 177.924 113.244 175.547C111.469 173.17 112.129 170.599 112.129 170.599C112.129 170.599 108.368 169.257 106.585 168.022C104.802 166.788 106.296 158.473 106.296 158.473C106.296 158.473 103.138 159.194 101.117 158.154C99.0956 157.114 101.446 154.43 101.559 153.119Z" fill="#CAFFBF"/>
<path d="M220.662 117.201L217.519 99.5632H234.458C233.789 102.093 233.172 103.166 231.14 103.754C233.44 104.523 234.807 104.802 234.458 107.247C234.109 109.692 231.14 110.74 231.14 110.74C232.247 111.227 232.946 111.437 232.712 113.01L220.662 117.201Z" fill="#CAFFBF"/>
<path d="M103.419 117.376L106.455 99.5632H90.0919C90.7384 102.118 91.3342 103.202 93.2971 103.796C91.0756 104.573 89.7545 104.854 90.0919 107.323C90.4293 109.792 93.2971 110.85 93.2971 110.85C92.2279 111.342 91.5522 111.554 91.7788 113.143L103.419 117.376Z" fill="#CAFFBF"/>
<path d="M81.7467 137.655C88.2946 166.572 110.063 152.376 110.063 152.376C123.985 176.917 124.986 191.714 163.036 194.518C201.086 197.322 218.195 152.376 218.195 152.376C234.286 156.979 244.034 153.428 247.928 135.903C251.821 118.377 238.548 112.594 238.548 112.594C229.686 111.449 226.103 112.859 221.735 118.377C231.419 68.4969 208.285 40.5641 168.288 38.286C128.292 36.0078 100.237 75.3746 102.807 116.274C102.807 116.274 75.1987 108.738 81.7467 137.655Z" fill="#FFADAD"/>
<ellipse cx="134.44" cy="148.141" rx="14.3701" ry="13.6516" fill="#D66A6E"/>
<ellipse cx="192.867" cy="148.141" rx="14.3701" ry="13.6516" fill="#D66A6E"/>
<ellipse cx="136.487" cy="127.329" rx="5.23898" ry="7.15994" fill="black"/>
<ellipse cx="187.129" cy="127.329" rx="5.23898" ry="7.15994" fill="black"/>
<path d="M122.164 109.231C131.792 106.799 132.991 108.295 145.647 105.913C145.647 105.913 139.278 102.071 134.039 102.42C128.8 102.769 124.26 105.563 122.164 109.231Z" fill="black"/>
<path d="M179.093 105.911C190.146 108.397 192.488 109.575 203.367 109.691C203.367 109.691 198.085 104.418 192.904 103.567C187.722 102.717 181.538 103.117 179.093 105.911Z" fill="black"/>
<path d="M91.4346 127.903L105.405 139.778" stroke="black"/>
<path d="M237.818 124.361L226.503 138.788" stroke="black"/>
<path d="M162.394 155.127C151.377 154.64 145.612 145.037 145.612 145.037C145.612 145.037 150.875 157.166 162.394 156.454C173.913 155.743 175.914 152.658 179.956 145.037C179.956 145.037 173.411 155.613 162.394 155.127Z" fill="black"/>
<path d="M244.218 305.274L238.934 253.675" stroke="black"/>
<path d="M80.2136 305.895L85.8896 253.602" stroke="black"/>
<path d="M82.872 272.918L15.6385 270.708C12.4255 283.973 12.889 291.546 11.4473 305.273H80.2525L82.872 272.918Z" fill="#FFADAD"/>
<path d="M241.615 272.516L300.114 270.708C303.234 283.973 304.48 291.546 305.88 305.273H244.149L241.615 272.516Z" fill="#FFADAD"/>
<path d="M138.524 206.092L137.98 187.012C156.703 195.096 168.149 195.016 187.587 187.379V191.782L138.524 206.092Z" fill="#D09595"/>
<path d="M18.001 263.598L83.4857 265.588" stroke="black" stroke-linecap="round"/>
<path d="M241.3 266.258L296.601 261.786" stroke="black" stroke-linecap="round"/>
<rect x="158.643" y="240.818" width="10.1765" height="34.9743" rx="5.08825" stroke="black"/>
<path d="M164.43 240.666L139.109 214.995V210.105L120.423 226.346L152.905 264.591L164.43 240.666Z" fill="white"/>
<path d="M163.558 240.842L186.435 215.171V210.281L204.247 226.697L175.083 265.291L163.558 240.842Z" fill="white"/>
<circle cx="163.212" cy="256.906" r="2.61949" fill="white"/>
<circle cx="163.212" cy="267.387" r="2.61949" fill="white"/>
<path d="M164.693 140.705L159.41 133.589L157.062 141.22L164.693 140.705Z" fill="#D66A6E"/>
<path d="M159.605 133.589L157.062 145.036L164.693 143.439" stroke="black"/>
<path d="M177.878 34.4258C137.037 33.3228 97.9247 42.7436 88.291 99.5681L223.457 99.5681C228.16 99.4924 218.718 35.5287 177.878 34.4258Z" fill="#D9D9D9"/>
<path d="M265.195 71.7284C265.195 55.3128 237.551 52.0905 207.741 52.868L223.807 99.495C250.464 95.6624 265.195 88.144 265.195 71.7284Z" fill="#D9D9D9"/>
<rect x="135.441" y="76.5125" width="58.6766" height="9.77943" rx="4.88971" fill="#CAFFBF"/>
<path d="M188.878 36.3464L192.37 37.7435C194.143 38.5409 195.096 39.0149 196.562 40.0137L194.335 42.525L196.844 51.0925L190.275 45.7975L183.706 51.0925L186.215 42.525L179.646 37.23H187.766L188.878 36.3464Z" fill="#A0C4FF"/>
<path d="M129.732 53.052L130.334 61.959L138.263 63.7103L130.707 67.4638L131.309 76.3708L126.036 69.7837L118.48 73.5372L122.778 65.7126L117.505 59.1254L125.434 60.8767L129.732 53.052Z" fill="#A0C4FF"/>
<path d="M90.612 88.7369L93.6029 90.7315L100.609 86.6259L97.6181 94.5157L102.261 99.564L95.7997 99.564L92.1324 99.564L88.2908 99.564L88.8144 96.9447C88.8144 96.9447 89.0332 94.483 89.2731 93.269C89.5129 92.0549 90.612 88.7369 90.612 88.7369Z" fill="#A0C4FF"/>
<path d="M168.306 62.6192L174.564 68.986L181.721 65.1511L178.431 72.9209L182.245 76.5105L176.482 76.5105L174.386 76.5105L171.243 76.5105L162.983 75.191L170.14 71.3561L168.306 62.6192Z" fill="#A0C4FF"/>
<path d="M239.778 63.0593L246.138 69.3248L253.233 65.3755L250.068 73.1971L256.427 79.4626L248.112 78.0311L244.947 85.8527L242.973 77.1464L234.658 75.715L241.753 71.7656L239.778 63.0593Z" fill="#A0C4FF"/>
</g>
</svg>
