<svg width="325" height="325" viewBox="0 0 325 325" fill="none" xmlns="http://www.w3.org/2000/svg">
<circle cx="162.177" cy="162.177" r="162.177" fill="#82BBFF" fill-opacity="0.6"/>
<mask id="mask0_1645_8436" style="mask-type:alpha" maskUnits="userSpaceOnUse" x="0" y="0" width="325" height="325">
<circle cx="162.177" cy="162.177" r="162.177" fill="#82BBFF"/>
</mask>
<g mask="url(#mask0_1645_8436)">
<path d="M165.116 49.6074C77.9328 49.6074 48.6379 157.963 106.351 214.42C36.3937 237.237 20.4074 264.238 11.4492 324.354H305.275C299.347 259.07 278.031 236.074 214.408 214.42C286.505 149.372 235.985 49.6074 165.116 49.6074Z" fill="#FFC6FF"/>
<path d="M20.9774 281.255C14.73 298.535 12.0011 307.973 11.4492 324.353L308.412 323.814C313.176 301.367 291.297 263.298 291.297 263.298C291.297 263.298 276.652 268.506 241.715 276.227C206.778 283.949 109.555 276.047 82.3816 271.379C55.2085 266.71 33.8582 269.762 20.9774 281.255Z" fill="#FDFFB6"/>
<path d="M198.478 216.081L202.595 228.751H215.917L205.139 236.581L209.256 249.251L198.478 241.421L187.7 249.251L191.817 236.581L181.039 228.751H194.361L198.478 216.081Z" fill="#D1ABD1"/>
<path d="M93.7017 228.302L97.8185 240.972H111.141L100.363 248.803L104.48 261.473L93.7017 253.642L82.9238 261.473L87.0406 248.803L76.2627 240.972H89.5849L93.7017 228.302Z" fill="#D1ABD1"/>
<path d="M241.785 112.695L245.901 125.365H247.373L248.446 133.196L248.77 137.143V141.858L241.785 138.035L231.007 145.866L235.124 133.196L224.346 125.365H237.668L241.785 112.695Z" fill="#D1ABD1"/>
<path d="M126.861 57.5914L131.052 56.5436L142.729 54.7192L131.951 62.5498L136.067 75.22L125.29 67.3894L114.512 75.22L118.629 62.5498L123.369 59.5123L126.861 57.5914Z" fill="#D1ABD1"/>
<path d="M84.968 158.101L89.0848 170.771H102.407L91.6291 178.601L95.7459 191.272L84.968 183.441L82.8724 178.601L80.2529 170.771L84.968 158.101Z" fill="#D1ABD1"/>
<path d="M161.807 252.404L165.924 265.074H179.246L168.468 272.905L170.888 280.17H166.173L161.807 277.744L157.791 279.647H153.774L155.146 272.905L144.368 265.074H157.69L161.807 252.404Z" fill="#D1ABD1"/>
<path d="M267.81 241.053L271.652 244.021L272.8 246.912L276.192 248.213L278.812 250.832L275.344 254.743L279.461 267.413L268.683 259.582L257.905 267.413L262.022 254.743L251.244 246.912H264.566L267.81 241.053Z" fill="#D1ABD1"/>
<ellipse cx="162.176" cy="154.545" rx="59.1467" ry="62.9627" fill="#FF9781"/>
<path d="M135.953 129.815C141.083 129.541 143.448 129.848 146.954 131.037C137.102 131.153 132.027 132.597 123.554 135.229C123.554 135.229 130.822 130.089 135.953 129.815Z" fill="black"/>
<path d="M187.288 130.36C192.277 131.587 194.45 132.567 197.461 134.724C187.999 131.974 182.724 131.882 173.851 131.94C173.851 131.94 182.299 129.132 187.288 130.36Z" fill="black"/>
<ellipse cx="134.736" cy="152.691" rx="5.23898" ry="7.50921" fill="black"/>
<ellipse cx="185.724" cy="152.691" rx="5.23898" ry="7.50921" fill="black"/>
<path d="M164.085 167.126L158.801 156.452L156.453 167.9L164.085 167.126Z" fill="#FFADAD"/>
<path d="M160.46 148.82L156.453 167.899L164.085 165.779" stroke="black"/>
<path d="M175.531 178.335C165.024 174.531 158.286 174.664 145.004 178.335C146.149 187.94 153.908 195.723 162.448 194.481C170.988 193.239 174.786 186.736 175.531 178.335Z" fill="#FFADAD"/>
<path d="M162.009 186.978C151.896 187.046 148.389 183.777 145.004 173.547L145.671 172.123C149.436 182.408 150.672 183.315 162.009 184.129C170.011 184.129 174.012 181.891 178.68 171.716L179.347 172.53C175.513 182.705 171.305 186.574 162.009 186.978Z" fill="black"/>
<path d="M252.958 323.814L248.354 280.52" stroke="black"/>
<path d="M67.9159 323.785L72.8457 279.648" stroke="black"/>
</g>
</svg>
