<svg width="325" height="325" viewBox="0 0 325 325" fill="none" xmlns="http://www.w3.org/2000/svg">
<circle cx="162.177" cy="162.177" r="162.177" fill="#64D0FF" fill-opacity="0.6"/>
<mask id="mask0_465_2738" style="mask-type:alpha" maskUnits="userSpaceOnUse" x="0" y="0" width="325" height="325">
<circle cx="162.177" cy="162.177" r="162.177" fill="#D9D9D9"/>
</mask>
<g mask="url(#mask0_465_2738)">
<path d="M87.8577 151.673C85.9492 126.13 113.385 137.764 116.237 143.556C115.948 103.164 130.982 81.4365 168.295 81.4365C206.094 81.4366 218.153 110.918 218.307 145.143C222.886 136.574 246.203 126.437 247.843 145.143C249.477 163.781 240.443 178.214 222.642 174.48C225.589 176.076 209.261 221.809 165.482 222.615C120.836 223.437 117.63 175.677 111.685 174.438C105.74 173.199 89.9675 179.909 87.8577 151.673Z" fill="#FFBFAD"/>
<path d="M141.188 241.705L141.847 218.81C159.384 225.339 170.421 223.31 190.794 214.994V228.35V241.705C221.053 229.357 244.814 228.82 264.767 236.829C284.719 244.837 311.262 285.425 308.946 329.472H11.4463C15.3855 281.808 25.3415 255.212 62.5735 236.829C92.2519 227.357 108.881 228.055 141.188 241.705Z" fill="#FFBFAD"/>
<ellipse cx="139.46" cy="181.551" rx="14.7782" ry="14.0393" fill="#D67679"/>
<ellipse cx="189.995" cy="181.551" rx="14.7782" ry="14.0393" fill="#D67679"/>
<path d="M141.187 237.887V216.9C160.559 224.282 169.806 224.533 190.793 216.902V220.717V226.441L141.187 237.887Z" fill="#DB9A8C"/>
<path d="M161.249 196.832C149.432 196.119 145.001 186.131 145.001 186.131C145.001 186.131 150.171 200.637 161.434 199.686C172.697 198.734 175.392 194.656 179.344 184.467C179.344 184.467 173.066 197.546 161.249 196.832Z" fill="black"/>
<ellipse cx="138.693" cy="160.15" rx="5.38776" ry="7.36327" fill="black"/>
<ellipse cx="190.77" cy="160.15" rx="5.38776" ry="7.36327" fill="black"/>
<path d="M167.899 176.06L162.616 165.386L160.268 176.834L167.899 176.06Z" fill="#FFBCBD"/>
<path d="M162.812 161.571L160.268 180.651L167.899 177.988" stroke="black" stroke-width="0.5"/>
<path d="M123.965 141.535C135.1 134.351 137.255 136.327 148.114 138.123C148.114 138.123 141.565 134.172 136.177 134.531C130.789 134.89 126.12 137.764 123.965 141.535Z" fill="black"/>
<path d="M182.51 138.122C194.902 136.506 197.354 137.706 207.521 141.923C207.521 141.923 202.041 136.587 196.713 135.712C191.384 134.837 185.024 135.249 182.51 138.122Z" fill="black"/>
<path d="M96.1123 149.083L102.974 166.646" stroke="black" stroke-width="0.5"/>
<path d="M242.9 148.116L231.264 162.954" stroke="black" stroke-width="0.5"/>
<path d="M243.55 326.689L234.953 278.858" stroke="black" stroke-width="0.5"/>
<path d="M82.7 327.351L90.71 279.43" stroke="black" stroke-width="0.5"/>
<path d="M153.656 36.7859C113.607 51.692 101.463 71.8646 96.3662 91.741C150.717 91.6804 179.821 66.8464 232.317 33.194L231.768 33.0357C207.221 25.9673 193.409 21.9899 153.656 36.7859Z" fill="#FFC6FF"/>
<path d="M227.648 161.423L229.983 140.051C236.049 133.05 241.748 134.412 246.865 140.051C248.504 134.438 245.037 131.338 241.657 125.863C246.856 123.503 249.676 121.373 254.587 116.525C258.18 108.019 257.711 103.7 254.587 96.4105C254.587 96.4105 256.922 91.2023 256.922 86.5329C256.922 81.8635 253.104 78.745 246.865 75.2187C246.865 75.2187 259.7 61.287 241.657 38.582C223.613 15.877 117.941 93.378 97.0852 91.2023C76.2292 89.0266 80.7238 121.556 89.6735 140.583C97.532 134.46 103.507 135.545 103.507 143.087L106.244 167.349H112.351L117.02 150.122V131.251C153.211 129.329 172.606 123.489 205.199 102.337L221.183 161.423H227.648Z" fill="#FFC6FF"/>
<path d="M228.313 326.99L228.852 230.19C210.713 231.088 203.037 232.255 189.341 238.092C170.859 270.425 159.754 269.011 138.876 238.092C138.876 238.092 133.309 233.961 121.995 230.908C110.68 227.855 98.6476 229.292 98.6476 229.292L97.0312 326.99H228.313Z" fill="#FFC6FF"/>
<path d="M97.3877 307.595V326.991H228.31V307.595H97.3877Z" fill="#BDB2FF"/>
<path d="M97.3877 288.199V307.595H228.31V288.199H97.3877Z" fill="#FFD6A5"/>
<path d="M97.9265 268.803L97.3877 288.199H228.31V268.803H97.9265Z" fill="#CAFFBF"/>
<path d="M98.2922 251.562L97.752 268.803H228.495V251.562L180.903 251.203C167.972 265.211 163.483 265.57 148.756 251.562H98.2922Z" fill="#A0C4FF"/>
<path d="M265.203 248.035L268.202 255.945H277.905L270.055 260.834L273.054 268.744L265.203 263.855L257.353 268.744L260.352 260.834L252.501 255.945H262.205L265.203 248.035Z" fill="black"/>
</g>
</svg>
