<svg width="325" height="325" viewBox="0 0 325 325" fill="none" xmlns="http://www.w3.org/2000/svg">
<circle cx="162.177" cy="162.177" r="162.177" fill="#C7F0E6"/>
<mask id="mask0_460_3773" style="mask-type:alpha" maskUnits="userSpaceOnUse" x="0" y="0" width="325" height="325">
<circle cx="162.177" cy="162.177" r="162.177" fill="#B9FF82"/>
</mask>
<g mask="url(#mask0_460_3773)">
<path d="M84.2707 153.737C82.4424 128.194 108.726 139.828 111.458 145.621C111.18 105.228 125.583 83.5007 161.328 83.5007C197.539 83.5008 209.092 112.982 209.239 147.208C213.626 138.638 235.963 128.501 237.534 147.208C239.099 165.845 230.445 180.278 213.392 176.544C216.215 178.14 200.573 223.873 158.634 224.679C115.863 225.502 112.792 177.741 107.097 176.502C101.402 175.263 86.2918 181.973 84.2707 153.737Z" fill="#FFD7D8"/>
<path d="M135.357 241.709V220.536C152.02 226.661 161.702 228.337 181.062 220.536V241.709C209.814 230.125 233.199 229.927 252.158 237.44C271.117 244.953 296.339 283.03 294.139 324.351H11.4463C15.1894 279.637 24.6499 254.686 60.0287 237.44C88.2299 228.554 104.659 228.903 135.357 241.709Z" fill="#FFD6A5"/>
<ellipse cx="134.768" cy="184.851" rx="13.8047" ry="13.4787" fill="#FFC5BF"/>
<ellipse cx="181.982" cy="184.851" rx="13.8047" ry="13.4787" fill="#FFC5BF"/>
<ellipse cx="134.061" cy="164.299" rx="5.03283" ry="7.06926" fill="black"/>
<ellipse cx="182.715" cy="164.299" rx="5.03283" ry="7.06926" fill="black"/>
<path d="M154.208 166.553L152.861 183.163L156.902 180.845" stroke="black" stroke-width="0.5"/>
<path d="M120.303 146.427C130.704 139.53 132.717 141.426 142.861 143.151C142.861 143.151 136.743 139.357 131.71 139.702C126.678 140.047 122.316 142.806 120.303 146.427Z" fill="black"/>
<path d="M174.987 143.157C186.563 141.605 188.853 142.757 198.351 146.806C198.351 146.806 193.232 141.683 188.255 140.843C183.277 140.003 177.336 140.398 174.987 143.157Z" fill="black"/>
<path d="M90.7705 156.241L104.191 167.966" stroke="black" stroke-width="0.5"/>
<path d="M231.394 152.744L220.523 166.989" stroke="black" stroke-width="0.5"/>
<path d="M131.018 324.353L99.2148 230.227C109.005 231.408 113.958 230.806 123.614 235.245C134.551 297.534 183.686 302.725 195.128 235.245C203.953 232.439 208.854 231.56 217.508 231.092L191.763 324.353H131.018Z" fill="#A0C4FF"/>
<path d="M110.269 147.724C105.614 144.591 101.477 142.876 90.8474 139.888C79.4659 108.602 82.5726 103.286 100.803 92.4141C100.803 92.4141 109.847 51.2905 165.826 42.9258C221.805 34.5611 254.052 83.5372 229.245 105.388C233.502 119.352 233.41 127.402 229.245 142.09C220.622 135.805 211.727 141.754 204.764 149.943L203.526 139.888C164.867 143.052 135.89 107.773 135.792 100.889C132.265 105.71 118.249 123.756 110.269 147.724Z" fill="#FFA08C"/>
<path d="M124.647 261.036L125.626 264.134H128.795L126.231 266.048L127.211 269.146L124.647 267.231L122.083 269.146L123.062 266.048L120.499 264.134H123.668L124.647 261.036Z" fill="white"/>
<path d="M150.323 286.552L152.093 292.152H157.822L153.188 295.612L154.958 301.212L150.323 297.751L145.689 301.212L147.459 295.612L142.824 292.152H148.553L150.323 286.552Z" fill="white"/>
<path d="M128.85 273.103L131.223 280.609H138.902L132.69 285.247L135.062 292.753L128.85 288.114L122.638 292.753L125.011 285.247L118.799 280.609H126.477L128.85 273.103Z" fill="white"/>
<path d="M174.477 294.828L175.87 299.236H180.38L176.732 301.961L178.125 306.369L174.477 303.644L170.828 306.369L172.222 301.961L168.573 299.236H173.083L174.477 294.828Z" fill="white"/>
<path d="M191.924 285.517L193.318 289.925H197.827L194.179 292.649L195.572 297.057L191.924 294.333L188.275 297.057L189.669 292.649L186.021 289.925H190.53L191.924 285.517Z" fill="white"/>
<path d="M160.216 306.207L161.421 310.019H165.322L162.166 312.375L163.371 316.188L160.216 313.832L157.061 316.188L158.266 312.375L155.11 310.019H159.011L160.216 306.207Z" fill="white"/>
<path d="M184.044 306.207L185.852 311.925H191.702L186.969 315.46L188.777 321.178L184.044 317.644L179.311 321.178L181.118 315.46L176.385 311.925H182.236L184.044 306.207Z" fill="white"/>
<path d="M185.726 276.897L186.705 279.995H189.874L187.311 281.909L188.29 285.007L185.726 283.092L183.162 285.007L184.142 281.909L181.578 279.995H184.747L185.726 276.897Z" fill="white"/>
<path d="M114.422 242.063L115.891 246.709H120.644L116.798 249.581L118.267 254.228L114.422 251.356L110.576 254.228L112.045 249.581L108.199 246.709H112.953L114.422 242.063Z" fill="white"/>
<path d="M138.411 307.24L139.39 310.337H142.559L139.995 312.252L140.974 315.349L138.411 313.435L135.847 315.349L136.826 312.252L134.262 310.337H137.431L138.411 307.24Z" fill="white"/>
<path d="M206.855 236.548L207.834 239.646H211.003L208.439 241.56L209.419 244.658L206.855 242.743L204.291 244.658L205.27 241.56L202.707 239.646H205.876L206.855 236.548Z" fill="white"/>
<path d="M199.143 255.517L200.725 260.521H205.844L201.702 263.614L203.284 268.618L199.143 265.525L195.001 268.618L196.583 263.614L192.442 260.521H197.561L199.143 255.517Z" fill="white"/>
<path d="M135.464 241.992V218.46C152.598 223.503 164.56 224.355 181.255 218.46V240.031L194.611 236.109C186.854 278.003 178.401 285.001 161.431 286.882C144.462 288.763 127.302 260.882 124.017 236.109L135.464 241.992Z" fill="#FFD7D8"/>
<path d="M150.237 168.611C150.237 170.846 148.415 172.937 145.315 174.484C142.229 176.023 137.949 176.982 133.208 176.982C128.467 176.982 124.187 176.023 121.101 174.484C118.001 172.937 116.179 170.846 116.179 168.611C116.179 166.377 118.001 164.286 121.101 162.739C124.187 161.2 128.467 160.24 133.208 160.24C137.949 160.24 142.229 161.2 145.315 162.739C148.415 164.286 150.237 166.377 150.237 168.611Z" stroke="black" stroke-width="0.5"/>
<path d="M198.892 169.3C198.892 171.535 197.07 173.626 193.969 175.173C190.884 176.712 186.604 177.671 181.862 177.671C177.121 177.671 172.841 176.712 169.756 175.173C166.655 173.626 164.833 171.535 164.833 169.3C164.833 167.066 166.655 164.975 169.756 163.428C172.841 161.889 177.121 160.929 181.862 160.929C186.604 160.929 190.884 161.889 193.969 163.428C197.07 164.975 198.892 167.066 198.892 169.3Z" stroke="black" stroke-width="0.5"/>
<path d="M149.481 167.75C155.707 164.1 159.193 163.884 165.419 167.75" stroke="black" stroke-width="0.5"/>
<path d="M140.732 183.166C153.355 199.499 160.433 200.051 173.055 183.166" stroke="black" stroke-width="0.5" stroke-linecap="round"/>
<path d="M135.466 241.992V218.46C150.983 226.924 165.993 225.184 181.257 219.301V228.265L135.466 241.992Z" fill="#D3AEAA"/>
</g>
</svg>
