<svg width="325" height="325" viewBox="0 0 325 325" fill="none" xmlns="http://www.w3.org/2000/svg">
<circle cx="162.177" cy="162.177" r="162.177" fill="#FFAC91"/>
<mask id="mask0_1645_8604" style="mask-type:alpha" maskUnits="userSpaceOnUse" x="0" y="0" width="325" height="325">
<circle cx="162.177" cy="162.177" r="162.177" fill="#D9D9D9"/>
</mask>
<g mask="url(#mask0_1645_8604)">
<path d="M84.927 165.725C91.3261 193.936 112.599 180.087 112.599 180.087C126.205 204.029 126.895 220.496 164.08 223.232C201.265 225.967 218.274 180.087 218.274 180.087C233.999 184.577 243.526 181.113 247.331 164.015C251.136 146.917 238.164 141.274 238.164 141.274C229.504 140.157 226.002 141.533 221.734 146.917C231.198 98.2531 208.589 71.0016 169.502 68.779C130.414 66.5564 102.997 104.963 105.508 144.865C105.508 144.865 78.5278 137.513 84.927 165.725Z" fill="#F0B6B8"/>
<ellipse cx="139.879" cy="177.692" rx="14.3701" ry="13.6516" fill="#D29496"/>
<ellipse cx="189.028" cy="177.692" rx="14.3701" ry="13.6516" fill="#D29496"/>
<path d="M161.252 195.529C149.435 194.816 145.004 184.829 145.004 184.829C145.004 184.829 150.174 199.334 161.437 198.383C172.7 197.432 175.395 193.353 179.347 183.164C179.347 183.164 173.069 196.243 161.252 195.529Z" fill="black"/>
<ellipse cx="139.138" cy="156.88" rx="5.23898" ry="7.15994" fill="black"/>
<ellipse cx="189.78" cy="156.88" rx="5.23898" ry="7.15994" fill="black"/>
<path d="M164.081 170.942L161.439 160.268L160.265 171.716L164.081 170.942Z" fill="#D29496"/>
<path d="M161.537 156.453L160.265 171.717L164.081 169.587" stroke="black"/>
<path d="M124.809 138.782C135.636 135.464 137.557 135.926 148.291 135.464C148.291 135.464 141.923 131.622 136.684 131.972C131.445 132.321 126.904 135.115 124.809 138.782Z" fill="black"/>
<path d="M181.737 135.463C193.263 135.925 196.057 136.973 206.058 139.159C206.058 139.159 200.729 133.97 195.548 133.12C190.367 132.269 184.182 132.669 181.737 135.463Z" fill="black"/>
<path d="M94.084 157.456L108.055 169.331" stroke="black"/>
<path d="M240.471 153.914L229.155 168.341" stroke="black"/>
<path d="M142.318 239.493V217.507C158.634 222.27 168.702 225.202 189.184 217.507V239.493C218.667 227.063 242.645 226.851 262.086 234.912C281.526 242.974 307.389 283.831 305.132 328.168H15.2607C19.0989 280.19 28.7997 253.417 65.077 234.912C93.9944 225.377 110.84 225.752 142.318 239.493Z" fill="#CAFFBF"/>
<path d="M120.719 196.288L113.909 179.349C105.875 182.667 100.986 184.225 95.3975 181.257C98.743 195.732 107.622 199.257 120.719 196.288Z" fill="#9BF6FF"/>
<path d="M238.491 179.349C242.508 196.463 226.811 204.496 209.872 195.589L213.689 188.888L217.505 179.349C227.044 179.349 223.997 184.413 238.491 179.349Z" fill="#9BF6FF"/>
<path d="M241.993 147.449C233.754 143.581 229.265 142.753 222.084 149.894C220.284 139.23 218.246 133.788 212.305 125.271C197.753 121.956 190.733 118.995 186.459 105.712L183.84 89.1219L209.336 81.9619L235.88 103.966C243.305 107.058 247.406 108.506 252.994 114.967C258.583 121.429 258.569 133.902 251.248 139.94C251.248 139.94 266.596 151.815 265.044 160.197C263.492 168.58 258.238 178.006 244.216 173.624C250.244 161.657 248.472 154.961 241.993 147.449Z" fill="#9BF6FF"/>
<path d="M88.9334 149.601C95.7481 145.74 101.935 141.194 107.875 148.322C109.365 137.678 111.168 134.995 116.083 126.493C128.12 123.184 134.768 131.383 151.184 121.953C160.09 113.919 164.579 103.371 168.298 92.9636L115.947 84.2319L93.9895 106.196C87.8475 109.282 84.4551 110.728 79.8324 117.178C75.2097 123.628 75.2209 136.078 81.277 142.105C81.277 142.105 67.6977 148.207 69.8646 162.326C72.0315 176.446 77.3342 180.5 88.9334 176.126C83.2095 162.771 83.5738 157.1 88.9334 149.601Z" fill="#9BF6FF"/>
<path d="M190.792 218.576C171.048 224.211 159.266 222.69 141.186 217.508L141.729 238.877C148.825 251.645 154.546 259.471 167.618 270.931C182.228 258.867 186.49 252.028 190.792 239.767V218.576Z" fill="#F0B6B8"/>
<path d="M141.729 236.587L141.186 217.507C162.173 221.323 169.805 219.251 190.792 215.599V224.744L141.729 236.587Z" fill="#C59798"/>
<path d="M163.211 30.5273C135.309 30.5273 115.526 55.6352 99.2119 89.845C146.877 73.5642 178.802 73.1062 228.953 91.5821C209.465 51.3393 191.112 30.5273 163.211 30.5273Z" fill="#BDB2FF"/>
<path d="M99.1028 90.9571C95.3323 95.4352 94.9342 98.5596 95.9594 104.753C106.361 99.1452 110.978 98.117 119.709 103.705C155.57 93.4451 176.218 92.8937 212.963 107.198C218.611 98.9019 222.219 97.7678 231.824 101.086C231.937 98.1967 231.516 96.5002 229.204 93.2273C177.675 68.5154 149.265 70.5316 99.1028 90.9571Z" fill="#FDFFB6"/>
<path d="M108.005 87.4644L108.878 100.213" stroke="black"/>
<path d="M120.929 82.9238L122.151 103.007" stroke="black"/>
<path d="M134.9 78.9072L136.647 99.3392" stroke="black"/>
<path d="M153.588 75.7637L155.16 96.545" stroke="black"/>
<path d="M172.1 75.7637L171.576 96.545" stroke="black"/>
<path d="M192.357 79.2554L188.864 99.3381" stroke="black"/>
<path d="M208.949 84.6714L204.933 104.23" stroke="black"/>
<path d="M221.87 89.9097L219.774 100.213" stroke="black"/>
<path d="M166.915 293.826C152.454 273.72 146.316 261.643 141.187 236.587C161.326 260.762 169.701 262.695 190.637 236.771C192.354 248.153 179.667 275.941 166.915 293.826Z" fill="#A0C4FF"/>
<path d="M253.857 323.378L249.254 280.084" stroke="black"/>
<path d="M68.8182 324.267L73.748 280.131" stroke="black"/>
<path d="M197.762 133.505C160.409 129.491 150.019 120.647 141.201 98.8065C129.35 145.131 120.379 151.43 106.841 156.453C108.264 129.599 107.153 114.905 130.805 95.454C141.915 86.4215 148.601 83.3687 169.393 84.0392C203.224 87.8945 227.676 108.59 228.95 156.453C215.145 153.104 206.418 149.54 197.762 133.505Z" fill="#9BF6FF"/>
</g>
</svg>
