<svg width="325" height="325" viewBox="0 0 325 325" fill="none" xmlns="http://www.w3.org/2000/svg">
<circle cx="162.177" cy="162.177" r="162.177" fill="#FF82DC" fill-opacity="0.6"/>
<mask id="mask0_1645_8463" style="mask-type:alpha" maskUnits="userSpaceOnUse" x="0" y="0" width="325" height="325">
<circle cx="162.177" cy="162.177" r="162.177" fill="#D9D9D9"/>
</mask>
<g mask="url(#mask0_1645_8463)">
<path d="M80.2379 165.596C78.1476 137.291 108.196 150.183 111.32 156.602C111.003 111.843 127.469 87.7661 168.336 87.7661C209.735 87.7662 222.943 120.434 223.111 158.36C228.127 148.864 253.663 137.632 255.46 158.36C257.249 179.012 247.356 195.006 227.859 190.868C231.087 192.637 213.204 243.314 165.255 244.207C116.356 245.118 112.846 192.195 106.335 190.822C99.8231 189.449 82.5486 196.884 80.2379 165.596Z" fill="#FFD7D8"/>
<path d="M54.4046 255.226C85.9855 245.427 102.996 245.36 137.373 259.481V248.034V236.586C156.034 243.34 169.116 245.188 190.796 236.586V259.481C222.995 246.707 248.328 246.942 269.559 255.226C290.79 263.511 319.035 305.498 316.57 351.064H0C4.19169 301.757 14.7859 274.243 54.4046 255.226Z" fill="#FFD7D8"/>
<ellipse cx="138.569" cy="196.17" rx="15.7" ry="14.915" fill="#FFC5BF"/>
<ellipse cx="192.267" cy="196.17" rx="15.7" ry="14.915" fill="#FFC5BF"/>
<path d="M137.372 255.668V237.109C156.744 244.491 171.421 245.701 190.795 238.496V249.944L137.372 255.668Z" fill="#D3AEAA"/>
<ellipse cx="137.76" cy="173.435" rx="5.72381" ry="7.82254" fill="black"/>
<ellipse cx="193.098" cy="173.435" rx="5.72381" ry="7.82254" fill="black"/>
<path d="M167.901 190.022L165.259 179.348L164.085 190.795L167.901 190.022Z" fill="#FFBCBD"/>
<path d="M165.357 179.348L164.085 190.795L167.901 189.198" stroke="black" stroke-width="0.5"/>
<path d="M122.107 155.185C133.937 147.553 136.226 149.652 147.763 151.56C147.763 151.56 140.805 147.362 135.081 147.744C129.358 148.125 124.397 151.178 122.107 155.185Z" fill="black"/>
<path d="M184.307 151.557C197.472 149.84 200.077 151.115 210.879 155.595C210.879 155.595 205.057 149.926 199.396 148.997C193.736 148.068 186.979 148.505 184.307 151.557Z" fill="black"/>
<path d="M88.5352 164.518L103.799 177.492" stroke="black" stroke-width="0.5"/>
<path d="M248.471 160.65L236.108 176.413" stroke="black" stroke-width="0.5"/>
<path d="M183.927 206.06H148.821C150.849 215.278 158.114 220.176 167.579 220.176C177.044 220.176 182.306 214.838 183.927 206.06Z" fill="#FFC6FF" stroke="#FFA9AE"/>
<path d="M180.486 207.562H152.63C154.239 214.819 160.003 218.675 167.514 218.675C175.024 218.675 179.199 214.472 180.486 207.562Z" fill="white" stroke="#FFA9AE"/>
<path d="M261.956 350.473L256.927 303.172" stroke="black" stroke-width="0.5"/>
<path d="M64.7536 350.817L70.1396 302.597" stroke="black" stroke-width="0.5"/>
<path d="M105.709 188.662L114.96 209.875H19.457C17.3389 204.377 24.462 189.781 33.5111 181.062C42.5601 172.343 35.6289 148.081 45.0627 139.93C54.4966 131.779 73.3643 126.282 73.3643 126.282C83.9533 123.249 89.558 112.948 95.6975 92.7324C87.5107 105.412 32.5482 82.5776 54.4966 52.9266C76.4449 23.2755 116.295 60.7911 110.137 68.28C138.499 55.2279 152.878 59.9393 166.355 71.1228C176.752 56.9064 195.538 56.654 215.45 62.9721C226.231 40.7946 247.602 28.852 267.817 47.0493C288.033 65.2466 271.639 100.078 234.318 92.7324C234.318 92.7324 237.013 113.203 251.645 124.008C266.277 134.812 278.792 132.917 288.033 145.237C297.274 157.558 288.075 167.772 294.771 173.67C301.467 179.568 315.517 198.235 312.484 209.875H217.192L226.006 187.255C226.017 187.218 226.031 187.182 226.048 187.146L226.006 187.255C225.11 190.294 247.641 194.263 251.645 169.897C255.698 145.237 235.694 152.738 221.62 156.628L219.695 138.052C197.554 150.184 181.95 136.139 174.056 109.412C154.611 136.139 128.244 147.909 111.687 133.313L109.377 156.628C87.8135 141.826 80.6899 159.282 79.5348 167.243C78.3796 175.204 89.5462 190.937 105.709 188.662Z" fill="#FDFFB6"/>
<path d="M101.78 187.441C102.412 185.494 105.167 185.494 105.8 187.441V187.441C106.083 188.312 106.894 188.902 107.81 188.902V188.902C109.857 188.902 110.708 191.522 109.052 192.725V192.725C108.311 193.263 108.001 194.217 108.284 195.088V195.088C108.917 197.035 106.688 198.654 105.032 197.451V197.451C104.291 196.913 103.288 196.913 102.547 197.451V197.451C100.891 198.654 98.6625 197.035 99.2952 195.088V195.088C99.5781 194.217 99.2682 193.263 98.5275 192.725V192.725C96.8711 191.522 97.7224 188.902 99.7697 188.902V188.902C100.685 188.902 101.497 188.312 101.78 187.441V187.441Z" fill="#A0C4FF"/>
<path d="M227.697 187.441C228.329 185.494 231.084 185.494 231.717 187.441V187.441C232 188.312 232.811 188.902 233.727 188.902V188.902C235.774 188.902 236.625 191.522 234.969 192.725V192.725C234.228 193.263 233.918 194.217 234.201 195.088V195.088C234.834 197.035 232.605 198.654 230.949 197.451V197.451C230.208 196.913 229.205 196.913 228.464 197.451V197.451C226.808 198.654 224.58 197.035 225.212 195.088V195.088C225.495 194.217 225.185 193.263 224.444 192.725V192.725C222.788 191.522 223.639 188.902 225.687 188.902V188.902C226.602 188.902 227.414 188.312 227.697 187.441V187.441Z" fill="#A0C4FF"/>
<path d="M103.79 194.994L106.274 202.64H114.314L107.81 207.366L110.294 215.012L103.79 210.287L97.2852 215.012L99.7697 207.366L93.2652 202.64H101.305L103.79 194.994Z" fill="#A0C4FF"/>
<path d="M229.707 194.994L232.191 202.64H240.231L233.727 207.366L236.211 215.012L229.707 210.287L223.202 215.012L225.687 207.366L219.182 202.64H227.222L229.707 194.994Z" fill="#A0C4FF"/>
<path d="M194.992 315.386L208.729 252.233L219.222 249.181L232.578 315.386C250.076 331.314 250.21 335.01 252.42 350.683H176.675C175.813 332.612 177.564 326.458 194.992 315.386Z" fill="#BDB2FF"/>
<path d="M95.5678 315.003L110.083 248.606L122.485 251.85L133.154 315.003C150.652 330.93 150.786 334.627 152.997 350.299H77.2515C76.3891 332.228 78.1405 326.074 95.5678 315.003Z" fill="#BDB2FF"/>
<path d="M138.141 258.335C138.375 274.164 142.338 285.047 161.608 285.047C180.878 285.047 187.785 278.992 192.898 258.335" stroke="black" stroke-width="0.5"/>
<path d="M161.796 274.363L164.28 282.009H172.32L165.815 286.735L168.3 294.381L161.796 289.656L155.291 294.381L157.776 286.735L151.271 282.009H159.311L161.796 274.363Z" fill="#A0C4FF"/>
</g>
</svg>
