<svg width="325" height="325" viewBox="0 0 325 325" fill="none" xmlns="http://www.w3.org/2000/svg">
<circle cx="162.177" cy="162.177" r="162.177" fill="#E9FF64" fill-opacity="0.6"/>
<mask id="mask0_465_2796" style="mask-type:alpha" maskUnits="userSpaceOnUse" x="0" y="0" width="325" height="325">
<circle cx="162.178" cy="162.177" r="162.177" fill="#D9D9D9"/>
</mask>
<g mask="url(#mask0_465_2796)">
<path d="M84.9348 168.046C91.3339 196.932 112.607 182.752 112.607 182.752C126.213 207.267 127.767 222.214 164.952 225.015C202.137 227.816 218.857 182.917 218.857 182.917C234.582 187.515 243.534 183.802 247.339 166.295C251.144 148.789 238.172 143.011 238.172 143.011C229.511 141.867 226.01 143.276 221.742 148.789C231.206 98.961 208.597 71.0577 169.509 68.782C130.422 66.5062 103.005 105.831 105.516 146.688C105.516 146.688 78.5357 139.16 84.9348 168.046Z" fill="#FFBFAD"/>
<path d="M141.191 270.138V221.324C162.613 227.468 171.132 229.159 190.798 221.324V267.919L167.31 274.747L141.191 270.138Z" fill="#FFBFAD"/>
<ellipse cx="138.666" cy="152.588" rx="5.35513" ry="7.31868" fill="black"/>
<ellipse cx="190.426" cy="152.588" rx="5.35513" ry="7.31868" fill="black"/>
<path d="M167.906 171.201L165.264 164.085L164.09 171.717L167.906 171.201Z" fill="#FFA08C"/>
<path d="M165.362 164.085L164.09 175.533L167.906 173.935" stroke="black" stroke-width="0.5"/>
<ellipse cx="135.44" cy="179.01" rx="17.8504" ry="16.9579" fill="#FFA08C"/>
<ellipse cx="196.49" cy="179.01" rx="17.8504" ry="16.9579" fill="#FFA08C"/>
<path d="M89.3906 158.12L103.671 170.258" stroke="black" stroke-width="0.5"/>
<path d="M241.876 155.622L230.31 170.37" stroke="black" stroke-width="0.5"/>
<path d="M182.71 181.326L145.224 182.397C139.129 182.588 145.02 200.572 165.752 198.284C186.485 195.996 187.887 181.683 182.71 181.326Z" fill="black"/>
<path d="M175.638 193.957C174.864 190.608 154.515 189.894 152.373 193.643C150.231 197.391 160.234 198.105 162.911 197.927C165.589 197.748 176.412 197.306 175.638 193.957Z" fill="#FF80AE"/>
<path d="M150.221 188.646C148.971 188.111 147.797 184.592 147.722 182.577L181.281 181.863C180.966 185.816 179.852 186.504 177.353 187.932C174.854 189.36 151.47 189.182 150.221 188.646Z" fill="white"/>
<path d="M190.798 221.324C170.952 226.236 160.389 226.172 141.191 221.324V240.403L190.798 233.982V221.324Z" fill="#FFA08C"/>
<path d="M111.674 178.023C111.925 155.432 110.084 146.757 101.639 147.954C87.704 145.59 82.6973 160.629 89.6799 178.023C64.1124 174.544 57.8702 176.21 54.2937 158.665C50.7172 141.12 57.9109 134.266 81.8835 121.36C79.2126 108.474 75.7525 102.892 81.8835 93.473C88.0146 84.0543 97.6329 82.1805 109.303 78.3292C121.289 45.371 134.289 41.6486 164.994 52.6587C198.061 29.9078 214.042 70.388 223.75 77.4058C233.457 84.4237 248.104 81.4688 252.191 93.473C256.279 105.477 254.037 114.983 250.659 121.36C270.244 126.161 278.419 136.319 278.419 151.093C280.122 176.21 264.435 179.294 242.317 178.023C251.343 152.906 246.263 143.847 228.519 146.107L221.329 173.625L215.234 176.21L211.828 151.093C189.675 137.318 179.841 126.214 164.994 102.892C150.039 128.865 139.66 138.339 119.522 151.093L118.316 178.023H111.674Z" fill="#FFADAD"/>
<path d="M96.5303 179.9C98.6104 197.314 99.9458 190.189 101.233 186.146" stroke="#FDFFB6" stroke-width="0.5" stroke-linecap="round"/>
<path d="M140.98 251.476L141.337 220.238C161.15 226.485 169.005 226.485 188.819 220.238L188.462 251.476C201.85 238.981 214.88 235.411 240.763 235.768C266.647 236.125 301.335 260.148 310.559 331.982H7.63672C13.2467 284.501 33.8769 244.693 70.6488 238.802C107.421 232.912 115.466 235.797 140.98 251.476Z" fill="#A0C4FF"/>
<path d="M141.325 252.19C107.223 230.658 100.203 214.085 116.523 192.034C124.064 204.513 127.242 210.895 141.325 220.237V252.19Z" fill="black"/>
<path d="M188.641 251.561C225.128 231.211 231.303 215.775 216.131 191.32C207.423 203.837 204.707 210.327 188.641 220.323L188.641 251.561Z" fill="black"/>
<path d="M132.947 242.552C115.157 240.931 104.754 204.912 116.525 192.214C90.7997 188.739 70.331 215.955 79.7918 235.234C89.2526 254.512 122.866 272.348 165.474 281.109C209.153 269.9 248.657 252.906 255.44 232.021C262.223 211.136 237.194 194.356 215.952 191.5C227.911 205.602 217.815 237.554 196.177 242.552C174.538 247.551 165.474 275.04 165.474 275.04C151.955 255.244 150.737 244.174 132.947 242.552Z" fill="#C4DAFF"/>
<circle cx="138.304" cy="261.652" r="2.85607" fill="black"/>
<circle cx="194.001" cy="261.652" r="2.85607" fill="black"/>
<path d="M138.485 261.294L133.487 298.423" stroke="white" stroke-width="0.5"/>
<circle cx="133.119" cy="303.065" r="5.53364" fill="white"/>
<path d="M194.296 261.331L197.084 298.691" stroke="white" stroke-width="0.5"/>
<circle cx="197.703" cy="303.307" r="5.53364" transform="rotate(-11.9346 197.703 303.307)" fill="white"/>
<path d="M229.516 286.998L233.383 293.636L240.891 295.262L235.772 300.99L236.546 308.633L229.516 305.535L222.487 308.633L223.26 300.99L218.142 295.262L225.65 293.636L229.516 286.998Z" fill="#CAFFBF"/>
<path d="M253.323 331.611L249.091 283.506" stroke="black" stroke-width="0.5"/>
<path d="M64.1767 331.583L69.0801 283.541" stroke="black" stroke-width="0.5"/>
</g>
</svg>
