<svg width="325" height="325" viewBox="0 0 325 325" fill="none" xmlns="http://www.w3.org/2000/svg">
<circle cx="162.177" cy="162.177" r="162.177" fill="#7A64FF" fill-opacity="0.6"/>
<mask id="mask0_465_2767" style="mask-type:alpha" maskUnits="userSpaceOnUse" x="0" y="0" width="325" height="325">
<circle cx="162.177" cy="162.177" r="162.177" fill="#D9D9D9"/>
</mask>
<g mask="url(#mask0_465_2767)">
<path d="M133.556 256.967V226.44C152.514 235.313 165.791 234.848 183.765 226.44V258.629C197.088 246.449 210.056 242.969 235.814 243.317C261.572 243.665 296.093 267.082 305.272 337.101H3.81445C9.39729 290.82 29.9277 252.017 66.5219 246.275C103.116 240.533 108.165 241.684 133.556 256.967Z" fill="#FF9782"/>
<path d="M127.632 251.05C153.558 288.245 173.183 294.777 195.868 250.344C208.758 243.338 215.158 242.639 227.016 242.242L171.202 337.102H159.139H144.016L89.6426 242.242C101.442 240.235 115.209 243.997 127.632 251.05Z" fill="#FDFFB6"/>
<path d="M133.558 253.151V226.44C152.637 231.642 162.177 232.163 183.165 226.44V230.255V232.163V235.979V241.702L133.558 253.151Z" fill="#E47B6C"/>
<path d="M75.429 175.693C82.2746 205.316 105.032 190.774 105.032 190.774C119.587 215.913 120.634 231.071 160.414 233.944C200.193 236.816 218.08 190.774 218.08 190.774C234.902 195.488 245.093 191.851 249.164 173.898C253.234 155.945 239.357 150.021 239.357 150.021C230.092 148.848 226.347 150.292 221.781 155.945C231.905 104.848 207.719 76.2343 165.904 73.9006C124.09 71.5668 94.7596 111.894 97.4463 153.791C97.4463 153.791 68.5835 146.071 75.429 175.693Z" fill="#FF9782"/>
<path d="M98.2021 150.122H109.687L115.429 120.832H127.47C128.1 105.556 132.286 94.472 135.806 93.6105C139.325 92.749 143.03 97.5732 143.03 97.5732C151.809 88.6961 157.761 85.4716 169.149 85.5129C187.672 85.5801 200.639 122.9 200.639 122.9H209.531L214.532 150.122H226.387L233.982 128.93H249.913C249.913 128.93 229.166 47.0921 180.263 47.092C131.36 47.092 127.47 67.7669 127.47 67.7669C127.47 67.7669 121.357 60.3584 107.834 60.703C94.3121 61.0476 82.642 84.6514 78.1963 128.93H92.4597L98.2021 150.122Z" fill="#CAFFBF"/>
<path d="M89.4307 241.379L143.339 337.414H72.2943H68.3672H64.2616H0C19.0407 267.635 37.2854 243.096 89.4307 241.379Z" fill="#FFC6FF"/>
<path d="M225.453 241.148L169.581 337.236H240.892H244.553H248.954H313.456C293.301 264.298 273.686 237.628 225.453 241.148Z" fill="#FFC6FF"/>
<ellipse cx="135.671" cy="157.84" rx="5.35513" ry="7.31868" fill="black"/>
<ellipse cx="187.431" cy="157.84" rx="5.35513" ry="7.31868" fill="black"/>
<path d="M159.602 161.57L158.33 180.649L162.146 177.987" stroke="black" stroke-width="0.5"/>
<ellipse cx="132.463" cy="184.255" rx="17.8504" ry="16.9579" fill="#FF845F"/>
<ellipse cx="193.501" cy="184.255" rx="17.8504" ry="16.9579" fill="#FF845F"/>
<path d="M149.977 207.361L143.066 231.423C157.34 235.154 164.887 236.491 177.439 232.165L171.127 207.361H149.977Z" fill="#CAFFBF"/>
<path d="M159.315 189.924C147.498 189.389 143.066 181.898 143.066 181.898C143.066 181.898 148.236 192.777 159.499 192.064C170.763 191.35 173.458 188.291 177.41 180.65C177.41 180.65 171.132 190.459 159.315 189.924Z" fill="black"/>
<path d="M89.2549 164.493L103.535 176.631" stroke="black" stroke-width="0.5"/>
<path d="M238.881 160.874L227.315 175.621" stroke="black" stroke-width="0.5"/>
<path d="M122.103 145.408C133.17 142.016 135.133 142.488 146.106 142.016C146.106 142.016 139.596 138.089 134.241 138.446C128.886 138.803 124.245 141.659 122.103 145.408Z" fill="black"/>
<path d="M180.291 142.016C192.072 142.488 194.929 143.559 205.151 145.794C205.151 145.794 199.704 140.49 194.408 139.62C189.112 138.751 182.79 139.16 180.291 142.016Z" fill="black"/>
<path d="M155.306 163.871C161.513 161.349 164.736 161.261 169.943 163.871" stroke="#A0C4FF" stroke-width="3"/>
<path d="M155.232 160.876C155.232 170.601 145.279 179.011 132.277 179.011C119.276 179.011 109.322 170.601 109.322 160.876C109.322 151.151 119.276 142.74 132.277 142.74C145.279 142.74 155.232 151.151 155.232 160.876Z" stroke="#A0C4FF" stroke-width="3"/>
<path d="M216.278 160.876C216.278 170.601 206.325 179.011 193.323 179.011C180.321 179.011 170.368 170.601 170.368 160.876C170.368 151.151 180.321 142.74 193.323 142.74C206.325 142.74 216.278 151.151 216.278 160.876Z" stroke="#A0C4FF" stroke-width="3"/>
<path d="M248.901 337.19L244.668 289.084" stroke="black" stroke-width="0.5"/>
<path d="M59.7675 337.158L64.6709 289.115" stroke="black" stroke-width="0.5"/>
</g>
</svg>
