<svg width="30" height="29" viewBox="0 0 30 29" fill="none" xmlns="http://www.w3.org/2000/svg">
<path d="M12.625 21.6964C12.625 23.0278 13.7043 24.1071 15.0357 24.1071C16.3671 24.1071 17.4464 23.0278 17.4464 21.6964V16.875H22.2678C23.5992 16.875 24.6785 15.7957 24.6785 14.4643C24.6785 13.1329 23.5992 12.0536 22.2678 12.0536H17.4464V7.23213C17.4464 5.90072 16.3671 4.82141 15.0357 4.82141C13.7043 4.82141 12.625 5.90072 12.625 7.23213V12.0536L7.80354 12.0536C6.47214 12.0536 5.39282 13.1329 5.39282 14.4643C5.39282 15.7957 6.47214 16.875 7.80354 16.875L12.625 16.875V21.6964Z" fill="#28303F"/>
</svg>
