<svg width="28" height="28" viewBox="0 0 28 28" fill="none" xmlns="http://www.w3.org/2000/svg">
<path fill-rule="evenodd" clip-rule="evenodd" d="M21.803 4.28993C20.7498 3.23669 19.0421 3.23669 17.9889 4.28993L16.298 5.98079C16.3638 6.11354 16.4348 6.25321 16.5111 6.39803C17.0242 7.37269 17.7444 8.52929 18.6076 9.39248C19.4708 10.2557 20.6274 10.9758 21.602 11.489C21.7468 11.5652 21.8865 11.6363 22.0192 11.702L23.7101 10.0111C24.7633 8.95788 24.7633 7.25024 23.7101 6.19699L21.803 4.28993ZM20.7194 13.0018C19.6906 12.4553 18.3916 11.6514 17.3701 10.6299C16.3487 9.60846 15.5447 8.3094 14.9982 7.28061L8.34886 13.93C7.93623 14.3426 7.66856 14.8779 7.58603 15.4556L7.01391 19.4604C6.88678 20.3504 7.6496 21.1132 8.53956 20.9861L12.5444 20.414C13.1221 20.3314 13.6574 20.0638 14.07 19.6511L20.7194 13.0018Z" fill="#28303F"/>
</svg>
