<svg width="30" height="23" viewBox="0 0 30 23" fill="none" xmlns="http://www.w3.org/2000/svg">
<path fill-rule="evenodd" clip-rule="evenodd" d="M13.8153 1.92388C13.8153 1.36024 14.3027 0.90332 14.9039 0.90332H19.2583C19.8595 0.90332 20.3469 1.36024 20.3469 1.92388C20.3469 2.48753 19.8595 2.94445 19.2583 2.94445H14.9039C14.3027 2.94445 13.8153 2.48753 13.8153 1.92388ZM14.9039 11.1089C14.3027 11.1089 13.8153 10.652 13.8153 10.0884C13.8153 9.52473 14.3027 9.0678 14.9039 9.0678H23.6127C24.2139 9.0678 24.7013 9.52473 24.7013 10.0884C24.7013 10.652 24.2139 11.1089 23.6127 11.1089H14.9039ZM14.9039 19.2736C14.3027 19.2736 13.8153 18.8167 13.8153 18.253C13.8153 17.6894 14.3027 17.2325 14.9039 17.2325H27.9671C28.5683 17.2325 29.0557 17.6894 29.0557 18.253C29.0557 18.8167 28.5683 19.2736 27.9671 19.2736H14.9039ZM2.10356 17.2814C3.28359 18.9906 5.12289 21.6547 6.28576 21.6547C7.30169 21.6547 9.3164 18.9612 10.5813 17.2702C11.0106 16.6962 11.3535 16.2377 11.5417 16.0393C11.9411 15.618 11.9006 14.9729 11.4513 14.5985C11.0019 14.224 10.3138 14.262 9.91442 14.6832L7.22107 17.9317L7.46224 2.264C7.46224 1.70036 6.97486 1.24344 6.37365 1.24344C5.77243 1.24344 5.28505 1.70036 5.28505 2.264V17.9317L2.8329 14.6832C2.43347 14.262 1.7454 14.224 1.29605 14.5985C0.846694 14.9729 0.806219 15.618 1.20564 16.0393C1.40391 16.268 1.71866 16.7239 2.10356 17.2814Z" fill="#28303F"/>
<path d="M2.10356 17.2814L1.81554 17.4803H1.81554L2.10356 17.2814ZM10.5813 17.2702L10.301 17.0605H10.301L10.5813 17.2702ZM11.5417 16.0393L11.2877 15.7985L11.5417 16.0393ZM11.4513 14.5985L11.6753 14.3296H11.6753L11.4513 14.5985ZM9.91442 14.6832L9.66043 14.4424L9.65242 14.4509L9.64498 14.4598L9.91442 14.6832ZM7.22107 17.9317L6.87111 17.9263L6.8558 18.9206L7.4905 18.1551L7.22107 17.9317ZM7.46224 2.264L7.81224 2.26939V2.264H7.46224ZM5.28505 17.9317L5.0057 18.1426L5.63505 18.9763V17.9317H5.28505ZM2.8329 14.6832L3.11225 14.4724L3.10041 14.4567L3.08688 14.4424L2.8329 14.6832ZM1.29605 14.5985L1.07198 14.3296H1.07198L1.29605 14.5985ZM1.20564 16.0393L1.47011 15.81L1.465 15.8041L1.45963 15.7985L1.20564 16.0393ZM14.9039 0.55332C14.131 0.55332 13.4653 1.14601 13.4653 1.92388H14.1653C14.1653 1.57448 14.4744 1.25332 14.9039 1.25332V0.55332ZM19.2583 0.55332H14.9039V1.25332H19.2583V0.55332ZM20.6969 1.92388C20.6969 1.14601 20.0312 0.55332 19.2583 0.55332V1.25332C19.6879 1.25332 19.9969 1.57448 19.9969 1.92388H20.6969ZM19.2583 3.29445C20.0312 3.29445 20.6969 2.70176 20.6969 1.92388H19.9969C19.9969 2.27329 19.6879 2.59445 19.2583 2.59445V3.29445ZM14.9039 3.29445H19.2583V2.59445H14.9039V3.29445ZM13.4653 1.92388C13.4653 2.70176 14.131 3.29445 14.9039 3.29445V2.59445C14.4744 2.59445 14.1653 2.27329 14.1653 1.92388H13.4653ZM13.4653 10.0884C13.4653 10.8662 14.131 11.4589 14.9039 11.4589V10.7589C14.4744 10.7589 14.1653 10.4378 14.1653 10.0884H13.4653ZM14.9039 8.7178C14.131 8.7178 13.4653 9.31049 13.4653 10.0884H14.1653C14.1653 9.73896 14.4744 9.4178 14.9039 9.4178V8.7178ZM23.6127 8.7178H14.9039V9.4178H23.6127V8.7178ZM25.0513 10.0884C25.0513 9.31049 24.3856 8.7178 23.6127 8.7178V9.4178C24.0422 9.4178 24.3513 9.73896 24.3513 10.0884H25.0513ZM23.6127 11.4589C24.3856 11.4589 25.0513 10.8662 25.0513 10.0884H24.3513C24.3513 10.4378 24.0422 10.7589 23.6127 10.7589V11.4589ZM14.9039 11.4589H23.6127V10.7589H14.9039V11.4589ZM13.4653 18.253C13.4653 19.0309 14.131 19.6236 14.9039 19.6236V18.9236C14.4744 18.9236 14.1653 18.6024 14.1653 18.253H13.4653ZM14.9039 16.8825C14.131 16.8825 13.4653 17.4752 13.4653 18.253H14.1653C14.1653 17.9036 14.4744 17.5825 14.9039 17.5825V16.8825ZM27.9671 16.8825H14.9039V17.5825H27.9671V16.8825ZM29.4057 18.253C29.4057 17.4752 28.74 16.8825 27.9671 16.8825V17.5825C28.3966 17.5825 28.7057 17.9036 28.7057 18.253H29.4057ZM27.9671 19.6236C28.74 19.6236 29.4057 19.0309 29.4057 18.253H28.7057C28.7057 18.6024 28.3966 18.9236 27.9671 18.9236V19.6236ZM14.9039 19.6236H27.9671V18.9236H14.9039V19.6236ZM6.28576 21.3047C6.11649 21.3047 5.86228 21.2005 5.52293 20.9358C5.19506 20.68 4.83669 20.3135 4.46703 19.8815C3.72827 19.0181 2.98381 17.9404 2.39159 17.0826L1.81554 17.4803C2.40335 18.3317 3.16854 19.4406 3.93516 20.3366C4.31819 20.7842 4.71143 21.1905 5.09237 21.4877C5.46182 21.7759 5.8736 22.0047 6.28576 22.0047V21.3047ZM10.301 17.0605C9.66661 17.9087 8.85585 18.9922 8.07891 19.8637C7.68996 20.3 7.31872 20.6725 6.99009 20.9333C6.82594 21.0635 6.68 21.1598 6.55433 21.2223C6.42618 21.286 6.33873 21.3047 6.28576 21.3047V22.0047C6.48678 22.0047 6.68453 21.9393 6.86595 21.8491C7.04985 21.7577 7.23786 21.6303 7.42522 21.4816C7.79961 21.1845 8.20158 20.778 8.60141 20.3295C9.40202 19.4315 10.231 18.3227 10.8615 17.4798L10.301 17.0605ZM11.2877 15.7985C11.0814 16.016 10.7218 16.498 10.301 17.0605L10.8615 17.4798C11.2994 16.8945 11.6256 16.4594 11.7957 16.2801L11.2877 15.7985ZM11.2272 14.8674C11.5234 15.1142 11.5462 15.5259 11.2877 15.7985L11.7957 16.2801C12.336 15.7102 12.2778 14.8317 11.6753 14.3296L11.2272 14.8674ZM10.1684 14.924C10.4393 14.6384 10.9179 14.6096 11.2272 14.8674L11.6753 14.3296C11.0859 13.8384 10.1884 13.8855 9.66043 14.4424L10.1684 14.924ZM7.4905 18.1551L10.1839 14.9066L9.64498 14.4598L6.95163 17.7083L7.4905 18.1551ZM7.11228 2.25862L6.87111 17.9263L7.57103 17.9371L7.8122 2.26939L7.11228 2.25862ZM6.37365 1.59344C6.80318 1.59344 7.11224 1.91459 7.11224 2.264H7.81224C7.81224 1.48613 7.14654 0.893439 6.37365 0.893439V1.59344ZM5.63505 2.264C5.63505 1.91459 5.94411 1.59344 6.37365 1.59344V0.893439C5.60075 0.893439 4.93505 1.48613 4.93505 2.264H5.63505ZM5.63505 17.9317V2.264H4.93505V17.9317H5.63505ZM2.55355 14.8941L5.0057 18.1426L5.5644 17.7209L3.11225 14.4724L2.55355 14.8941ZM1.52011 14.8674C1.8294 14.6096 2.30806 14.6384 2.57891 14.924L3.08688 14.4424C2.55889 13.8855 1.66141 13.8384 1.07198 14.3296L1.52011 14.8674ZM1.45963 15.7985C1.20115 15.5259 1.22391 15.1142 1.52011 14.8674L1.07198 14.3296C0.469477 14.8317 0.411285 15.7102 0.95166 16.2801L1.45963 15.7985ZM2.39159 17.0826C2.01345 16.5348 1.68449 16.0573 1.47011 15.81L0.941176 16.2685C1.12332 16.4787 1.42388 16.913 1.81554 17.4803L2.39159 17.0826Z" fill="#28303F"/>
</svg>
