<svg width="27" height="27" viewBox="0 0 27 27" fill="none" xmlns="http://www.w3.org/2000/svg">
<path d="M3.28125 17.5H5.46875V24.0625C5.46875 24.6666 4.97906 25.1563 4.375 25.1563V25.1563C3.77094 25.1563 3.28125 24.6666 3.28125 24.0625V17.5Z" fill="#28303F"/>
<path d="M12.0312 14.2188H14.2188V24.0625C14.2188 24.6666 13.7291 25.1562 13.125 25.1562V25.1562C12.5209 25.1562 12.0312 24.6666 12.0312 24.0625V14.2188Z" fill="#28303F"/>
<path d="M3.28125 2.1875C3.28125 1.58344 3.77094 1.09375 4.375 1.09375V1.09375C4.97906 1.09375 5.46875 1.58344 5.46875 2.1875V12.0312H3.28125V2.1875Z" fill="#28303F"/>
<path d="M20.7812 17.5H22.9688V24.0625C22.9688 24.6666 22.4791 25.1563 21.875 25.1563V25.1563C21.2709 25.1563 20.7812 24.6666 20.7812 24.0625V17.5Z" fill="#28303F"/>
<path d="M20.7812 2.1875C20.7812 1.58344 21.2709 1.09375 21.875 1.09375V1.09375C22.4791 1.09375 22.9688 1.58344 22.9688 2.1875V12.0312H20.7812V2.1875Z" fill="#28303F"/>
<path d="M12.0312 2.1875C12.0312 1.58344 12.5209 1.09375 13.125 1.09375V1.09375C13.7291 1.09375 14.2188 1.58344 14.2188 2.1875V8.75H12.0312V2.1875Z" fill="#28303F"/>
<rect x="17.5" y="14.2188" width="8.75" height="5.46875" rx="2" fill="#28303F"/>
<rect x="8.75" y="6.5625" width="8.75" height="5.46875" rx="2" fill="#28303F"/>
<rect y="14.2188" width="8.75" height="5.46875" rx="2" fill="#28303F"/>
</svg>
