<svg width="23" height="20" viewBox="0 0 23 20" fill="none" xmlns="http://www.w3.org/2000/svg">
<path d="M19.5349 3.50292C19.0707 3.02645 18.5195 2.64848 17.9128 2.39061C17.3061 2.13273 16.6558 2 15.9991 2C15.3424 2 14.6921 2.13273 14.0854 2.39061C13.4787 2.64848 12.9275 3.02645 12.4633 3.50292V3.50292C11.9351 4.04467 11.0644 4.04467 10.5363 3.50292V3.50292C9.5985 2.54094 8.32662 2.0005 7.00043 2.0005C5.67423 2.0005 4.40235 2.54094 3.46459 3.50292C2.52683 4.46491 2 5.76964 2 7.1301C2 8.49055 2.52683 9.79528 3.46459 10.7573L10.0676 17.5309C10.8526 18.3361 12.1469 18.3361 12.9319 17.5309L19.5349 10.7573C19.9994 10.281 20.3678 9.71557 20.6192 9.0932C20.8706 8.47084 21 7.80377 21 7.1301C21 6.45642 20.8706 5.78935 20.6192 5.16699C20.3678 4.54463 19.9994 3.97917 19.5349 3.50292Z" stroke="#28303F" stroke-width="2.5" stroke-linecap="round" stroke-linejoin="round"/>
</svg>
