<svg width="24" height="24" viewBox="0 0 24 24" fill="none" xmlns="http://www.w3.org/2000/svg">
<path fill-rule="evenodd" clip-rule="evenodd" d="M7.96398 2.11013C6.2932 1.92352 4.56369 1.92352 2.89291 2.11013C2.48693 2.15547 2.16677 2.47673 2.12111 2.8669C1.92159 4.57167 1.92159 6.29387 2.12111 7.99865C2.16677 8.38882 2.48693 8.71007 2.89291 8.75542C4.56369 8.94203 6.2932 8.94203 7.96398 8.75542C8.36995 8.71007 8.69012 8.38882 8.73578 7.99865C8.9353 6.29388 8.9353 4.57167 8.73578 2.8669C8.69012 2.47673 8.36995 2.15547 7.96398 2.11013ZM2.67393 0.152149C4.49024 -0.0507164 6.36664 -0.0507164 8.18295 0.152149C9.48522 0.297601 10.5399 1.32207 10.6939 2.63803C10.9112 4.49486 10.9112 6.37068 10.6939 8.22752C10.5399 9.54347 9.48523 10.5679 8.18295 10.7134C6.36664 10.9163 4.49024 10.9163 2.67394 10.7134C1.37166 10.5679 0.317002 9.54347 0.162988 8.22752C-0.0543292 6.37068 -0.0543292 4.49486 0.162988 2.63803C0.317002 1.32207 1.37166 0.297601 2.67393 0.152149Z" fill="#A8A8A8"/>
<path fill-rule="evenodd" clip-rule="evenodd" d="M7.96398 15.2446C6.2932 15.058 4.56369 15.058 2.89291 15.2446C2.48693 15.2899 2.16677 15.6112 2.12111 16.0014C1.92159 17.7061 1.92159 19.4283 2.12111 21.1331C2.16677 21.5233 2.48693 21.8445 2.89291 21.8899C4.56369 22.0765 6.2932 22.0765 7.96398 21.8899C8.36995 21.8445 8.69012 21.5233 8.73578 21.1331C8.9353 19.4283 8.9353 17.7061 8.73578 16.0014C8.69012 15.6112 8.36995 15.2899 7.96398 15.2446ZM2.67393 13.2866C4.49024 13.0837 6.36664 13.0837 8.18295 13.2866C9.48522 13.4321 10.5399 14.4565 10.6939 15.7725C10.9112 17.6293 10.9112 19.5051 10.6939 21.362C10.5399 22.6779 9.48523 23.7024 8.18295 23.8479C6.36664 24.0507 4.49024 24.0507 2.67394 23.8479C1.37166 23.7024 0.317002 22.6779 0.162988 21.362C-0.0543292 19.5051 -0.0543292 17.6293 0.162988 15.7725C0.317002 14.4565 1.37166 13.4321 2.67393 13.2866Z" fill="#A8A8A8"/>
<path fill-rule="evenodd" clip-rule="evenodd" d="M21.1071 2.11013C19.4363 1.92352 17.7068 1.92352 16.036 2.11013C15.63 2.15547 15.3099 2.47673 15.2642 2.8669C15.0647 4.57167 15.0647 6.29387 15.2642 7.99865C15.3099 8.38882 15.63 8.71007 16.036 8.75542C17.7068 8.94203 19.4363 8.94203 21.1071 8.75542C21.5131 8.71007 21.8332 8.38882 21.8789 7.99865C22.0784 6.29388 22.0784 4.57167 21.8789 2.8669C21.8332 2.47673 21.5131 2.15547 21.1071 2.11013ZM15.817 0.152149C17.6334 -0.0507164 19.5098 -0.0507164 21.3261 0.152149C22.6283 0.297601 23.683 1.32207 23.837 2.63803C24.0543 4.49486 24.0543 6.37068 23.837 8.22752C23.683 9.54347 22.6283 10.5679 21.3261 10.7134C19.5098 10.9163 17.6334 10.9163 15.817 10.7134C14.5148 10.5679 13.4601 9.54347 13.3061 8.22752C13.0888 6.37068 13.0888 4.49486 13.3061 2.63803C13.4601 1.32207 14.5148 0.297601 15.817 0.152149Z" fill="#A8A8A8"/>
<path fill-rule="evenodd" clip-rule="evenodd" d="M21.1071 15.2446C19.4363 15.058 17.7068 15.058 16.036 15.2446C15.63 15.2899 15.3099 15.6112 15.2642 16.0014C15.0647 17.7061 15.0647 19.4283 15.2642 21.1331C15.3099 21.5233 15.63 21.8445 16.036 21.8899C17.7068 22.0765 19.4363 22.0765 21.1071 21.8899C21.5131 21.8445 21.8332 21.5233 21.8789 21.1331C22.0784 19.4283 22.0784 17.7061 21.8789 16.0014C21.8332 15.6112 21.5131 15.2899 21.1071 15.2446ZM15.817 13.2866C17.6334 13.0837 19.5098 13.0837 21.3261 13.2866C22.6283 13.4321 23.683 14.4565 23.837 15.7725C24.0543 17.6293 24.0543 19.5051 23.837 21.362C23.683 22.6779 22.6283 23.7024 21.3261 23.8479C19.5098 24.0507 17.6334 24.0507 15.817 23.8479C14.5148 23.7024 13.4601 22.6779 13.3061 21.362C13.0888 19.5051 13.0888 17.6293 13.3061 15.7725C13.4601 14.4565 14.5148 13.4321 15.817 13.2866Z" fill="#A8A8A8"/>
</svg>
