<svg width="26" height="26" viewBox="0 0 26 26" fill="none" xmlns="http://www.w3.org/2000/svg">
<path d="M3.25 10.8334C3.25 9.3376 4.46256 8.12504 5.95833 8.12504C7.4541 8.12504 8.66667 9.3376 8.66667 10.8334V19.5C8.66667 20.9958 7.4541 22.2084 5.95833 22.2084C4.46256 22.2084 3.25 20.9958 3.25 19.5V10.8334Z" stroke="#0B0B0B" stroke-width="2"/>
<path d="M12.54 5.08082L10.1236 9.00749C9.47484 10.0618 9.15045 10.5889 8.9543 11.1666C8.89447 11.3428 8.84375 11.5219 8.80236 11.7033C8.66667 12.2981 8.66667 12.9171 8.66667 14.155V17.875C8.66667 20.2683 10.6068 22.2084 13 22.2084H16.1523C18.204 22.2084 20.0796 21.0492 20.9971 19.2141L22.2414 16.7257C23.4705 14.2674 21.6829 11.375 18.9345 11.375H18.1873C16.3142 11.375 14.8819 9.70548 15.1667 7.85421L15.43 6.14278C15.5763 5.19138 14.8402 4.33337 13.8776 4.33337C13.3322 4.33337 12.8259 4.61632 12.54 5.08082Z" stroke="#0B0B0B" stroke-width="2"/>
</svg>
