<svg width="26" height="26" viewBox="0 0 26 26" fill="none" xmlns="http://www.w3.org/2000/svg">
<path d="M10.1236 9.00749L12.54 5.08082C12.8259 4.61632 13.3322 4.33337 13.8776 4.33337C14.8402 4.33337 15.5763 5.19138 15.43 6.14278L15.1667 7.85421C14.8819 9.70548 16.3142 11.375 18.1873 11.375H18.9345C21.6829 11.375 23.4705 14.2674 22.2414 16.7257L20.9971 19.2141C20.0796 21.0492 18.204 22.2084 16.1523 22.2084H13C11.5398 22.2084 10.2483 21.4861 9.46318 20.3794C9.47376 20.2683 9.47917 20.1556 9.47917 20.0417V11.375C9.47917 11.0165 9.42556 10.6704 9.32592 10.3444C9.51792 9.99176 9.77354 9.57636 10.1236 9.00749Z" fill="#2D264B"/>
<path d="M7.85417 20.0417C7.85417 21.0887 7.00537 21.9375 5.95833 21.9375C4.91129 21.9375 4.0625 21.0887 4.0625 20.0417V11.375C4.0625 10.328 4.91129 9.47921 5.95833 9.47921C7.00537 9.47921 7.85417 10.328 7.85417 11.375V20.0417Z" fill="#2D264B"/>
</svg>
