<svg width="42" height="42" viewBox="0 0 42 42" fill="none" xmlns="http://www.w3.org/2000/svg">
<g clip-path="url(#clip0_532_66)">
<path d="M8.75 17.5C6.825 17.5 5.25 19.075 5.25 21C5.25 22.925 6.825 24.5 8.75 24.5C10.675 24.5 12.25 22.925 12.25 21C12.25 19.075 10.675 17.5 8.75 17.5ZM33.25 17.5C31.325 17.5 29.75 19.075 29.75 21C29.75 22.925 31.325 24.5 33.25 24.5C35.175 24.5 36.75 22.925 36.75 21C36.75 19.075 35.175 17.5 33.25 17.5ZM21 17.5C19.075 17.5 17.5 19.075 17.5 21C17.5 22.925 19.075 24.5 21 24.5C22.925 24.5 24.5 22.925 24.5 21C24.5 19.075 22.925 17.5 21 17.5Z" fill="black"/>
</g>
<defs>
<clipPath id="clip0_532_66">
<rect width="42" height="42" fill="white"/>
</clipPath>
</defs>
</svg>
