<svg width="20" height="24" viewBox="0 0 20 24" fill="none" xmlns="http://www.w3.org/2000/svg">
<path fill-rule="evenodd" clip-rule="evenodd" d="M4.51613 6.0074C4.51613 2.6896 6.97134 0 10 0C13.0287 0 15.4839 2.6896 15.4839 6.0074C15.4839 9.3252 13.0287 12.0148 10 12.0148C6.97134 12.0148 4.51613 9.3252 4.51613 6.0074ZM10 2.12026C8.04028 2.12026 6.45161 3.86059 6.45161 6.0074C6.45161 8.15421 8.04028 9.89454 10 9.89454C11.9597 9.89454 13.5484 8.15421 13.5484 6.0074C13.5484 3.86059 11.9597 2.12026 10 2.12026Z" fill="#A8A8A8"/>
<path fill-rule="evenodd" clip-rule="evenodd" d="M4.83871 16.2553C3.2353 16.2553 1.93548 17.6792 1.93548 19.4357V21.1154C1.93548 21.1409 1.9524 21.1627 1.97544 21.1669C7.28997 22.1174 12.71 22.1174 18.0246 21.1669C18.0476 21.1627 18.0645 21.1409 18.0645 21.1154V19.4357C18.0645 17.6792 16.7647 16.2553 15.1613 16.2553H14.7215C14.6875 16.2553 14.6537 16.2612 14.6213 16.2728L13.5045 16.6723C11.2273 17.4868 8.77266 17.4868 6.49546 16.6723L5.37867 16.2728C5.34634 16.2612 5.31255 16.2553 5.27854 16.2553H4.83871ZM0 19.4357C0 16.5082 2.16636 14.1351 4.83871 14.1351H5.27854C5.51659 14.1351 5.75315 14.1763 5.97945 14.2572L7.09624 14.6567C8.98306 15.3316 11.0169 15.3316 12.9038 14.6567L14.0206 14.2572C14.2468 14.1763 14.4834 14.1351 14.7215 14.1351H15.1613C17.8336 14.1351 20 16.5082 20 19.4357V21.1154C20 22.1801 19.2956 23.0879 18.3364 23.2594C12.8154 24.2469 7.18464 24.2469 1.66358 23.2594C0.704366 23.0879 0 22.18 0 21.1154V19.4357Z" fill="#A8A8A8"/>
</svg>
