<svg width="32" height="33" viewBox="0 0 32 33" fill="none" xmlns="http://www.w3.org/2000/svg">
<path d="M10.9623 1.16435C10.8042 0.928265 10.5194 0.783809 10.212 0.783809H1.75273C1.07258 0.783809 0.652481 1.44846 1.00241 1.97089L10.4525 16.0795C10.6107 16.3155 10.8955 16.46 11.2029 16.46H19.6621C20.3423 16.46 20.7624 15.7954 20.4125 15.2729L10.9623 1.16435Z" fill="#C52229"/>
<path fill-rule="evenodd" clip-rule="evenodd" d="M10.212 0H1.75273C0.392443 0 -0.447767 1.3293 0.252094 2.37415L9.70222 16.4827C10.0185 16.9549 10.5881 17.2438 11.2029 17.2438H19.6621C21.0224 17.2438 21.8626 15.9145 21.1628 14.8697L11.7126 0.761086C11.3964 0.288911 10.8267 0 10.212 0ZM10.212 0.783809C10.5194 0.783809 10.8042 0.928265 10.9623 1.16435L20.4125 15.2729C20.7624 15.7954 20.3423 16.46 19.6621 16.46H11.2029C10.8955 16.46 10.6107 16.3155 10.4525 16.0795L1.00241 1.97089C0.652481 1.44846 1.07258 0.783809 1.75273 0.783809H10.212Z" fill="#9B0F15"/>
<path d="M20.0777 1.16435C20.2358 0.928265 20.5206 0.783809 20.828 0.783809H29.2873C29.9674 0.783809 30.3875 1.44846 30.0376 1.97089L20.5875 16.0795C20.4293 16.3155 20.1445 16.46 19.8371 16.46H11.3779C10.6977 16.46 10.2776 15.7954 10.6275 15.2729L20.0777 1.16435Z" fill="#F1333B"/>
<path fill-rule="evenodd" clip-rule="evenodd" d="M20.828 0H29.2873C30.6476 0 31.4878 1.3293 30.7879 2.37415L21.3378 16.4827C21.0215 16.9549 20.4519 17.2438 19.8371 17.2438H11.3779C10.0176 17.2438 9.17737 15.9145 9.87723 14.8697L19.3274 0.761086C19.6436 0.288911 20.2133 0 20.828 0ZM20.828 0.783809C20.5206 0.783809 20.2358 0.928265 20.0777 1.16435L10.6275 15.2729C10.2776 15.7954 10.6977 16.46 11.3779 16.46H19.8371C20.1445 16.46 20.4293 16.3155 20.5875 16.0795L30.0376 1.97089C30.3875 1.44846 29.9674 0.783809 29.2873 0.783809H20.828Z" fill="#9B0F15"/>
<path fill-rule="evenodd" clip-rule="evenodd" d="M20.9898 1.2287C21.1987 1.33739 21.2698 1.57723 21.1484 1.76441L17.2109 7.83893C17.0895 8.02611 16.8218 8.08974 16.6128 7.98106C16.4039 7.87237 16.3328 7.63253 16.4542 7.44535L20.3917 1.37083C20.5131 1.18365 20.7808 1.12002 20.9898 1.2287Z" fill="#FE666D"/>
<path fill-rule="evenodd" clip-rule="evenodd" d="M1.73763 1.2287C1.52867 1.33739 1.45763 1.57723 1.57896 1.76441L5.51652 7.83893C5.63785 8.02611 5.9056 8.08974 6.11455 7.98106C6.32351 7.87237 6.39455 7.63253 6.27322 7.44535L2.33566 1.37083C2.21433 1.18365 1.94658 1.12002 1.73763 1.2287Z" fill="#DF3840"/>
<path d="M10.0512 2.06975C10.0512 2.34706 9.80633 2.57187 9.50429 2.57187C9.20226 2.57187 8.95741 2.34706 8.95741 2.06975C8.95741 1.79243 9.20226 1.56762 9.50429 1.56762C9.80633 1.56762 10.0512 1.79243 10.0512 2.06975Z" fill="#AA161D"/>
<path d="M8.13042 2.19222C8.13042 2.53717 7.82585 2.81682 7.45015 2.81682C7.07445 2.81682 6.76988 2.53717 6.76988 2.19222C6.76988 1.84726 7.07445 1.56762 7.45015 1.56762C7.82585 1.56762 8.13042 1.84726 8.13042 2.19222Z" fill="#AA161D"/>
<path d="M9.83243 3.98028C9.83243 4.32524 9.52786 4.60488 9.15216 4.60488C8.77646 4.60488 8.47189 4.32524 8.47189 3.98028C8.47189 3.63533 8.77646 3.35568 9.15216 3.35568C9.52786 3.35568 9.83243 3.63533 9.83243 3.98028Z" fill="#AA161D"/>
<path d="M11.3877 3.12911C11.3877 3.30159 11.2354 3.44141 11.0476 3.44141C10.8597 3.44141 10.7074 3.30159 10.7074 3.12911C10.7074 2.95664 10.8597 2.81682 11.0476 2.81682C11.2354 2.81682 11.3877 2.95664 11.3877 3.12911Z" fill="#AA161D"/>
<path d="M7.79028 3.66798C7.79028 3.84046 7.638 3.98028 7.45015 3.98028C7.26229 3.98028 7.11001 3.84046 7.11001 3.66798C7.11001 3.49551 7.26229 3.35568 7.45015 3.35568C7.638 3.35568 7.79028 3.49551 7.79028 3.66798Z" fill="#AA161D"/>
<path d="M5.89487 1.75745C5.89487 1.92993 5.74259 2.06975 5.55474 2.06975C5.36689 2.06975 5.2146 1.92993 5.2146 1.75745C5.2146 1.58497 5.36689 1.44515 5.55474 1.44515C5.74259 1.44515 5.89487 1.58497 5.89487 1.75745Z" fill="#AA161D"/>
<path d="M11.0476 5.30908C11.0476 5.48156 10.8953 5.62138 10.7074 5.62138C10.5196 5.62138 10.3673 5.48156 10.3673 5.30908C10.3673 5.13661 10.5196 4.99679 10.7074 4.99679C10.8953 4.99679 11.0476 5.13661 11.0476 5.30908Z" fill="#AA161D"/>
<path d="M9.29754 5.62138C9.29754 5.79386 9.14526 5.93368 8.95741 5.93368C8.76956 5.93368 8.61728 5.79386 8.61728 5.62138C8.61728 5.44891 8.76956 5.30908 8.95741 5.30908C9.14526 5.30908 9.29754 5.44891 9.29754 5.62138Z" fill="#AA161D"/>
<path d="M12.6895 4.48853C12.6895 4.76923 12.4417 4.99679 12.136 4.99679C11.8303 4.99679 11.5824 4.76923 11.5824 4.48853C11.5824 4.20783 11.8303 3.98028 12.136 3.98028C12.4417 3.98028 12.6895 4.20783 12.6895 4.48853Z" fill="#AA161D"/>
<path d="M13.4112 5.93368C13.4112 6.10616 13.2589 6.24598 13.071 6.24598C12.8832 6.24598 12.7309 6.10616 12.7309 5.93368C12.7309 5.7612 12.8832 5.62138 13.071 5.62138C13.2589 5.62138 13.4112 5.7612 13.4112 5.93368Z" fill="#AA161D"/>
<path d="M27.3327 21.5548C27.3327 27.3987 22.044 32.1362 15.52 32.1362C8.99605 32.1362 3.70734 27.3987 3.70734 21.5548C3.70734 15.7108 8.99605 10.9733 15.52 10.9733C22.044 10.9733 27.3327 15.7108 27.3327 21.5548Z" fill="#BCCCD2"/>
<path fill-rule="evenodd" clip-rule="evenodd" d="M28.2077 21.5548C28.2077 27.8316 22.5272 32.92 15.52 32.92C8.51279 32.92 2.83232 27.8316 2.83232 21.5548C2.83232 15.2779 8.51279 10.1895 15.52 10.1895C22.5272 10.1895 28.2077 15.2779 28.2077 21.5548ZM15.52 32.1362C22.044 32.1362 27.3327 27.3987 27.3327 21.5548C27.3327 15.7108 22.044 10.9733 15.52 10.9733C8.99605 10.9733 3.70734 15.7108 3.70734 21.5548C3.70734 27.3987 8.99605 32.1362 15.52 32.1362Z" fill="#81A5B0"/>
<path fill-rule="evenodd" clip-rule="evenodd" d="M4.58235 21.9467C4.34072 21.9467 4.14484 21.7712 4.14484 21.5548C4.14484 15.9272 9.23768 11.3652 15.52 11.3652C15.7616 11.3652 15.9575 11.5407 15.9575 11.7571C15.9575 11.9736 15.7616 12.149 15.52 12.149C9.72093 12.149 5.01986 16.3601 5.01986 21.5548C5.01986 21.7712 4.82398 21.9467 4.58235 21.9467Z" fill="#D0DEE3"/>
<path fill-rule="evenodd" clip-rule="evenodd" d="M26.4576 21.1629C26.6993 21.1629 26.8952 21.3383 26.8952 21.5548C26.8952 27.1823 21.8023 31.7443 15.52 31.7443C15.2784 31.7443 15.0825 31.5688 15.0825 31.3524C15.0825 31.1359 15.2784 30.9605 15.52 30.9605C21.3191 30.9605 26.0201 26.7494 26.0201 21.5548C26.0201 21.3383 26.216 21.1629 26.4576 21.1629Z" fill="#A2B9C1"/>
<path d="M24.2701 21.5548C24.2701 25.8836 20.3526 29.3929 15.52 29.3929C10.6874 29.3929 6.76988 25.8836 6.76988 21.5548C6.76988 17.2259 10.6874 13.7167 15.52 13.7167C20.3526 13.7167 24.2701 17.2259 24.2701 21.5548Z" fill="#C7D4D8"/>
<path fill-rule="evenodd" clip-rule="evenodd" d="M25.1451 21.5548C25.1451 26.3165 20.8358 30.1767 15.52 30.1767C10.2042 30.1767 5.89487 26.3165 5.89487 21.5548C5.89487 16.793 10.2042 12.9329 15.52 12.9329C20.8358 12.9329 25.1451 16.793 25.1451 21.5548ZM15.52 29.3929C20.3526 29.3929 24.2701 25.8836 24.2701 21.5548C24.2701 17.2259 20.3526 13.7167 15.52 13.7167C10.6874 13.7167 6.76988 17.2259 6.76988 21.5548C6.76988 25.8836 10.6874 29.3929 15.52 29.3929Z" fill="#81A5B0"/>
<path fill-rule="evenodd" clip-rule="evenodd" d="M15.52 28.2171C19.6277 28.2171 22.9576 25.2343 22.9576 21.5548C22.9576 21.3383 23.1535 21.1629 23.3951 21.1629C23.6367 21.1629 23.8326 21.3383 23.8326 21.5548C23.8326 25.6672 20.1109 29.001 15.52 29.001C15.2784 29.001 15.0825 28.8255 15.0825 28.609C15.0825 28.3926 15.2784 28.2171 15.52 28.2171Z" fill="#B5C3C8"/>
<path fill-rule="evenodd" clip-rule="evenodd" d="M15.52 14.8924C11.4123 14.8924 8.0824 17.8752 8.0824 21.5548C8.0824 21.7712 7.88652 21.9467 7.64489 21.9467C7.40326 21.9467 7.20738 21.7712 7.20738 21.5548C7.20738 17.4423 10.9291 14.1086 15.52 14.1086C15.7616 14.1086 15.9575 14.284 15.9575 14.5005C15.9575 14.7169 15.7616 14.8924 15.52 14.8924Z" fill="#D9EAEF"/>
<path d="M18.0818 24.69H12.965V23.7807L15.3799 21.4752C15.7114 21.1506 15.9558 20.8674 16.113 20.6255C16.2737 20.3836 16.354 20.154 16.354 19.9366C16.354 19.6396 16.2703 19.4069 16.1028 19.2385C15.9353 19.0671 15.696 18.9814 15.385 18.9814C15.05 18.9814 14.7851 19.0855 14.5903 19.2937C14.3989 19.4988 14.3032 19.7698 14.3032 20.1066H12.8163C12.8163 19.6993 12.924 19.3273 13.1394 18.9905C13.3581 18.6537 13.6657 18.3904 14.0622 18.2006C14.4587 18.0077 14.9082 17.9113 15.4106 17.9113C16.1797 17.9113 16.7761 18.0766 17.2 18.4073C17.6272 18.7379 17.8408 19.2049 17.8408 19.808C17.8408 20.1387 17.7451 20.4755 17.5537 20.8184C17.3623 21.1613 17.0342 21.5609 16.5693 22.0171L14.8723 23.6199H18.0818V24.69Z" fill="#D9EAEF"/>
<path fill-rule="evenodd" clip-rule="evenodd" d="M18.9568 24.69C18.9568 25.1229 18.5651 25.4738 18.0818 25.4738H12.965C12.4818 25.4738 12.09 25.1229 12.09 24.69V23.7807C12.09 23.5814 12.1747 23.3897 12.3269 23.2444L14.7379 20.9425C15.0463 20.6403 15.244 20.4047 15.3569 20.2311L15.361 20.2248C15.4644 20.0691 15.479 19.9771 15.479 19.9366C15.479 19.8529 15.467 19.8039 15.4584 19.7798C15.4569 19.7758 15.4555 19.7723 15.4543 19.7696C15.4403 19.7674 15.4178 19.7652 15.385 19.7652C15.3196 19.7652 15.2921 19.775 15.2866 19.7772C15.2832 19.7786 15.2808 19.7798 15.2783 19.7816C15.2757 19.7833 15.2698 19.7877 15.2613 19.7968C15.2326 19.8277 15.1782 19.9055 15.1782 20.1066C15.1782 20.5394 14.7864 20.8904 14.3032 20.8904H12.8163C12.3331 20.8904 11.9413 20.5394 11.9413 20.1066C11.9413 19.5697 12.0851 19.0623 12.3801 18.601L12.383 18.5964C12.6858 18.1303 13.1138 17.7665 13.6472 17.5106C14.1852 17.2493 14.7802 17.1275 15.4106 17.1275C16.3123 17.1275 17.14 17.3217 17.7733 17.8152C18.4293 18.3235 18.7158 19.0258 18.7158 19.808C18.7158 20.2784 18.5788 20.7345 18.3364 21.1689C18.0937 21.6036 17.706 22.0642 17.2156 22.5455C17.2118 22.5492 17.208 22.5528 17.2042 22.5565L16.9081 22.8361H18.0818C18.5651 22.8361 18.9568 23.187 18.9568 23.6199V24.69ZM14.8723 23.6199L16.5693 22.0171C17.0342 21.5609 17.3623 21.1613 17.5537 20.8184C17.7451 20.4755 17.8408 20.1387 17.8408 19.808C17.8408 19.2049 17.6272 18.7379 17.2 18.4073C16.7761 18.0766 16.1797 17.9113 15.4106 17.9113C14.9082 17.9113 14.4587 18.0077 14.0622 18.2006C13.6657 18.3904 13.3581 18.6537 13.1394 18.9905C13.0708 19.0977 13.0132 19.2084 12.9665 19.3227C12.8664 19.5676 12.8163 19.8289 12.8163 20.1066H14.3032C14.3032 19.7698 14.3989 19.4988 14.5903 19.2937C14.7851 19.0855 15.05 18.9814 15.385 18.9814C15.696 18.9814 15.9353 19.0671 16.1028 19.2385C16.2703 19.4069 16.354 19.6396 16.354 19.9366C16.354 20.154 16.2737 20.3836 16.113 20.6255C15.9558 20.8674 15.7114 21.1506 15.3799 21.4752L12.965 23.7807V24.69H18.0818V23.6199H14.8723Z" fill="#81A5B0"/>
</svg>
