<svg width="32" height="34" viewBox="0 0 32 34" fill="none" xmlns="http://www.w3.org/2000/svg">
<path d="M10.962 1.19251C10.8039 0.950696 10.5191 0.802734 10.2117 0.802734H1.75257C1.07243 0.802734 0.652336 1.48352 1.00226 2.01862L10.4523 16.4697C10.6104 16.7115 10.8952 16.8594 11.2026 16.8594H19.6617C20.3419 16.8594 20.762 16.1787 20.412 15.6435L10.962 1.19251Z" fill="#C52229"/>
<path fill-rule="evenodd" clip-rule="evenodd" d="M10.2123 0H1.75317C0.392903 0 -0.447295 1.36156 0.252556 2.43178L9.70256 16.8828C10.0188 17.3664 10.5885 17.6624 11.2032 17.6624H19.6623C21.0226 17.6624 21.8628 16.3008 21.1629 15.2306L11.7129 0.77956C11.3967 0.295924 10.827 0 10.2123 0ZM10.2123 0.802835C10.5197 0.802835 10.8045 0.950797 10.9626 1.19262L20.4126 15.6436C20.7626 16.1788 20.3425 16.8595 19.6623 16.8595H11.2032C10.8958 16.8595 10.611 16.7116 10.4529 16.4698L1.00286 2.01873C0.652937 1.48362 1.07304 0.802835 1.75317 0.802835H10.2123Z" fill="#9B0F15"/>
<path d="M20.077 1.19251C20.2352 0.950696 20.52 0.802734 20.8273 0.802734H29.2865C29.9666 0.802734 30.3867 1.48352 30.0368 2.01862L20.5868 16.4697C20.4287 16.7115 20.1438 16.8594 19.8365 16.8594H11.3773C10.6972 16.8594 10.2771 16.1787 10.627 15.6435L20.077 1.19251Z" fill="#F1333B"/>
<path fill-rule="evenodd" clip-rule="evenodd" d="M20.8277 0H29.2869C30.6471 0 31.4873 1.36156 30.7875 2.43178L21.3375 16.8828C21.0212 17.3664 20.4516 17.6624 19.8369 17.6624H11.3777C10.0174 17.6624 9.17724 16.3008 9.87709 15.2306L19.3271 0.77956C19.6434 0.295924 20.213 0 20.8277 0ZM20.8277 0.802835C20.5203 0.802835 20.2355 0.950797 20.0774 1.19262L10.6274 15.6436C10.2775 16.1788 10.6976 16.8595 11.3777 16.8595H19.8369C20.1442 16.8595 20.429 16.7116 20.5872 16.4698L30.0372 2.01873C30.3871 1.48362 29.967 0.802835 29.2869 0.802835H20.8277Z" fill="#9B0F15"/>
<path fill-rule="evenodd" clip-rule="evenodd" d="M20.9893 1.25844C21.1982 1.36977 21.2693 1.61543 21.1479 1.80715L17.2104 8.02912C17.0891 8.22084 16.8214 8.28602 16.6124 8.1747C16.4035 8.06338 16.3324 7.81771 16.4538 7.62599L20.3913 1.40402C20.5126 1.2123 20.7803 1.14712 20.9893 1.25844Z" fill="#FE666D"/>
<path fill-rule="evenodd" clip-rule="evenodd" d="M1.73727 1.25844C1.52832 1.36977 1.45729 1.61543 1.57861 1.80715L5.51611 8.02912C5.63744 8.22084 5.90519 8.28602 6.11414 8.1747C6.3231 8.06338 6.39413 7.81771 6.2728 7.62599L2.3353 1.40402C2.21398 1.2123 1.94623 1.14712 1.73727 1.25844Z" fill="#DF3840"/>
<path d="M10.0508 2.11978C10.0508 2.40383 9.80594 2.6341 9.50391 2.6341C9.20188 2.6341 8.95703 2.40383 8.95703 2.11978C8.95703 1.83574 9.20188 1.60547 9.50391 1.60547C9.80594 1.60547 10.0508 1.83574 10.0508 2.11978Z" fill="#AA161D"/>
<path d="M8.13005 2.24523C8.13005 2.59856 7.82549 2.88499 7.44979 2.88499C7.07409 2.88499 6.76953 2.59856 6.76953 2.24523C6.76953 1.8919 7.07409 1.60547 7.44979 1.60547C7.82549 1.60547 8.13005 1.8919 8.13005 2.24523Z" fill="#AA161D"/>
<path d="M9.83122 4.07677C9.83122 4.4301 9.52666 4.71653 9.15096 4.71653C8.77527 4.71653 8.4707 4.4301 8.4707 4.07677C8.4707 3.72344 8.77527 3.43701 9.15096 3.43701C9.52666 3.43701 9.83122 3.72344 9.83122 4.07677Z" fill="#AA161D"/>
<path d="M11.3873 3.20465C11.3873 3.38131 11.235 3.52452 11.0472 3.52452C10.8593 3.52452 10.707 3.38131 10.707 3.20465C10.707 3.02798 10.8593 2.88477 11.0472 2.88477C11.235 2.88477 11.3873 3.02798 11.3873 3.20465Z" fill="#AA161D"/>
<path d="M7.78963 3.75689C7.78963 3.93356 7.63735 4.07677 7.4495 4.07677C7.26166 4.07677 7.10938 3.93356 7.10938 3.75689C7.10938 3.58023 7.26166 3.43701 7.4495 3.43701C7.63735 3.43701 7.78963 3.58023 7.78963 3.75689Z" fill="#AA161D"/>
<path d="M5.89413 1.79986C5.89413 1.97652 5.74185 2.11974 5.554 2.11974C5.36615 2.11974 5.21387 1.97652 5.21387 1.79986C5.21387 1.6232 5.36615 1.47998 5.554 1.47998C5.74185 1.47998 5.89413 1.6232 5.89413 1.79986Z" fill="#AA161D"/>
<path d="M11.0465 5.43756C11.0465 5.61422 10.8942 5.75744 10.7063 5.75744C10.5185 5.75744 10.3662 5.61422 10.3662 5.43756C10.3662 5.26089 10.5185 5.11768 10.7063 5.11768C10.8942 5.11768 11.0465 5.26089 11.0465 5.43756Z" fill="#AA161D"/>
<path d="M9.29647 5.75738C9.29647 5.93404 9.14419 6.07726 8.95634 6.07726C8.76849 6.07726 8.61621 5.93404 8.61621 5.75738C8.61621 5.58072 8.76849 5.4375 8.95634 5.4375C9.14419 5.4375 9.29647 5.58072 9.29647 5.75738Z" fill="#AA161D"/>
<path d="M12.6891 4.59725C12.6891 4.88476 12.4413 5.11784 12.1356 5.11784C11.8299 5.11784 11.582 4.88476 11.582 4.59725C11.582 4.30974 11.8299 4.07666 12.1356 4.07666C12.4413 4.07666 12.6891 4.30974 12.6891 4.59725Z" fill="#AA161D"/>
<path d="M13.4107 6.07769C13.4107 6.25436 13.2584 6.39757 13.0706 6.39757C12.8828 6.39757 12.7305 6.25436 12.7305 6.07769C12.7305 5.90103 12.8828 5.75781 13.0706 5.75781C13.2584 5.75781 13.4107 5.90103 13.4107 6.07769Z" fill="#AA161D"/>
<path d="M27.5048 21.64C27.5048 27.6252 22.2151 32.4772 15.69 32.4772C9.16485 32.4772 3.87517 27.6252 3.87517 21.64C3.87517 15.6548 9.16485 10.8028 15.69 10.8028C22.2151 10.8028 27.5048 15.6548 27.5048 21.64Z" fill="#DCA16A"/>
<path fill-rule="evenodd" clip-rule="evenodd" d="M28.38 21.64C28.38 28.0686 22.6985 33.28 15.69 33.28C8.68151 33.28 3 28.0686 3 21.64C3 15.2114 8.68151 10 15.69 10C22.6985 10 28.38 15.2114 28.38 21.64ZM15.69 32.4772C22.2151 32.4772 27.5048 27.6252 27.5048 21.64C27.5048 15.6548 22.2151 10.8028 15.69 10.8028C9.16485 10.8028 3.87517 15.6548 3.87517 21.64C3.87517 27.6252 9.16485 32.4772 15.69 32.4772Z" fill="#C38144"/>
<path fill-rule="evenodd" clip-rule="evenodd" d="M4.75034 22.0414C4.50867 22.0414 4.31276 21.8617 4.31276 21.64C4.31276 15.8764 9.40652 11.2041 15.69 11.2041C15.9317 11.2041 16.1276 11.3838 16.1276 11.6055C16.1276 11.8272 15.9317 12.0069 15.69 12.0069C9.88987 12.0069 5.18793 16.3198 5.18793 21.64C5.18793 21.8617 4.99202 22.0414 4.75034 22.0414Z" fill="#F0B57F"/>
<path fill-rule="evenodd" clip-rule="evenodd" d="M26.6297 21.2386C26.8713 21.2386 27.0672 21.4183 27.0672 21.64C27.0672 27.4036 21.9735 32.0759 15.69 32.0759C15.4483 32.0759 15.2524 31.8962 15.2524 31.6745C15.2524 31.4528 15.4483 31.2731 15.69 31.2731C21.4901 31.2731 26.1921 26.9602 26.1921 21.64C26.1921 21.4183 26.388 21.2386 26.6297 21.2386Z" fill="#CF945D"/>
<path d="M24.4417 21.64C24.4417 26.0735 20.5234 29.6676 15.69 29.6676C10.8566 29.6676 6.93828 26.0735 6.93828 21.64C6.93828 17.2065 10.8566 13.6124 15.69 13.6124C20.5234 13.6124 24.4417 17.2065 24.4417 21.64Z" fill="#F7BA82"/>
<path fill-rule="evenodd" clip-rule="evenodd" d="M25.3169 21.64C25.3169 26.5169 21.0068 30.4703 15.69 30.4703C10.3732 30.4703 6.0631 26.5169 6.0631 21.64C6.0631 16.7631 10.3732 12.8097 15.69 12.8097C21.0068 12.8097 25.3169 16.7631 25.3169 21.64ZM15.69 29.6676C20.5234 29.6676 24.4417 26.0735 24.4417 21.64C24.4417 17.2065 20.5234 13.6124 15.69 13.6124C10.8566 13.6124 6.93828 17.2065 6.93828 21.64C6.93828 26.0735 10.8566 29.6676 15.69 29.6676Z" fill="#C38144"/>
<path fill-rule="evenodd" clip-rule="evenodd" d="M15.69 28.4634C19.7984 28.4634 23.129 25.4085 23.129 21.64C23.129 21.4183 23.3249 21.2386 23.5666 21.2386C23.8082 21.2386 24.0041 21.4183 24.0041 21.64C24.0041 25.8518 20.2818 29.2662 15.69 29.2662C15.4483 29.2662 15.2524 29.0865 15.2524 28.8648C15.2524 28.6432 15.4483 28.4634 15.69 28.4634Z" fill="#E6A66C"/>
<path fill-rule="evenodd" clip-rule="evenodd" d="M15.69 14.8166C11.5816 14.8166 8.25103 17.8715 8.25103 21.64C8.25103 21.8617 8.05512 22.0414 7.81345 22.0414C7.57178 22.0414 7.37586 21.8617 7.37586 21.64C7.37586 17.4282 11.0982 14.0138 15.69 14.0138C15.9317 14.0138 16.1276 14.1935 16.1276 14.4152C16.1276 14.6368 15.9317 14.8166 15.69 14.8166Z" fill="#FFD5AE"/>
<path d="M14.6254 21.2984H15.4346C15.82 21.2984 16.1055 21.1987 16.2912 20.9993C16.4768 20.8 16.5697 20.5353 16.5697 20.2055C16.5697 19.8865 16.4768 19.6382 16.2912 19.4606C16.109 19.2829 15.8568 19.1941 15.5345 19.1941C15.2437 19.1941 15.0002 19.2775 14.804 19.4443C14.6078 19.6074 14.5097 19.8212 14.5097 20.0859H12.9911C12.9911 19.6726 13.0979 19.3029 13.3116 18.9766C13.5288 18.6468 13.8301 18.3894 14.2155 18.2045C14.6043 18.0197 15.0317 17.9272 15.4977 17.9272C16.3069 17.9272 16.941 18.1284 17.3999 18.5308C17.8589 18.9295 18.0883 19.4805 18.0883 20.1837C18.0883 20.5462 17.9815 20.8797 17.7678 21.1842C17.5541 21.4887 17.2738 21.7225 16.927 21.8856C17.3579 22.0451 17.6785 22.2843 17.8887 22.6033C18.1024 22.9223 18.2092 23.2993 18.2092 23.7343C18.2092 24.4375 17.9605 25.0012 17.463 25.4253C16.969 25.8494 16.3139 26.0615 15.4977 26.0615C14.734 26.0615 14.1086 25.853 13.6217 25.4362C13.1382 25.0193 12.8965 24.4683 12.8965 23.7832H14.4152C14.4152 24.0805 14.522 24.3233 14.7357 24.5118C14.9529 24.7003 15.2192 24.7946 15.5345 24.7946C15.8953 24.7946 16.1773 24.6967 16.3805 24.501C16.5872 24.3016 16.6905 24.0388 16.6905 23.7125C16.6905 22.9223 16.2701 22.5272 15.4294 22.5272H14.6254V21.2984Z" fill="#FFD5AE"/>
<path fill-rule="evenodd" clip-rule="evenodd" d="M13.7718 20.6607H12.9914C12.4961 20.6607 12.0946 20.2818 12.0946 19.8145C12.0946 19.2771 12.2502 18.7729 12.5696 18.3283L12.5708 18.3266C12.8883 17.887 13.3216 17.5575 13.8386 17.3314L13.8414 17.3301C14.3578 17.1063 14.9145 17 15.498 17C16.4452 17 17.3093 17.2154 17.9786 17.7497C18.668 18.2967 18.9855 19.0507 18.9855 19.9038C18.9855 20.4201 18.8142 20.8969 18.4938 21.3132C18.4731 21.3402 18.4519 21.3667 18.4303 21.3928C18.5009 21.4672 18.5669 21.5464 18.628 21.6306C18.9567 22.0793 19.1064 22.5951 19.1064 23.1414C19.1064 24.0191 18.7509 24.7782 18.0349 25.3354C17.3405 25.8785 16.4648 26.1096 15.498 26.1096C14.5708 26.1096 13.7298 25.8756 13.0503 25.3452L13.0479 25.3433C12.348 24.793 12 24.0468 12 23.186C12 22.7186 12.4015 22.3398 12.8968 22.3398H13.7865C13.7493 22.2468 13.7289 22.146 13.7289 22.0407V20.9202C13.7289 20.8296 13.7439 20.7424 13.7718 20.6607ZM15.2547 22.8868C15.292 22.9798 15.3123 23.0807 15.3123 23.186C15.3123 23.193 15.3127 23.1984 15.313 23.2024L15.3155 23.2044C15.3528 23.2332 15.4086 23.262 15.5348 23.262C15.6382 23.262 15.6999 23.2491 15.7318 23.239C15.7583 23.2306 15.7671 23.2235 15.7693 23.2215M15.2547 22.8868H15.4297C15.6526 22.8868 15.7434 22.923 15.7682 22.9355L15.7701 22.9402C15.7785 22.9617 15.7941 23.0168 15.7941 23.1215C15.7941 23.1771 15.7846 23.2009 15.7827 23.2054C15.7815 23.2082 15.7797 23.2107 15.7797 23.2107C15.7797 23.2107 15.7759 23.2157 15.7693 23.2215M17.4634 24.6833C17.9608 24.2966 18.2096 23.7826 18.2096 23.1414C18.2096 22.7447 18.1027 22.401 17.889 22.1101C17.8544 22.0622 17.8168 22.0163 17.7762 21.9723C17.5703 21.7494 17.2873 21.5771 16.9274 21.4556C17.2518 21.3165 17.5179 21.121 17.7258 20.8691C17.7402 20.8517 17.7543 20.834 17.7681 20.816C17.9818 20.5384 18.0887 20.2343 18.0887 19.9038C18.0887 19.2625 17.8592 18.7601 17.4003 18.3965C16.9414 18.0296 16.3073 17.8462 15.498 17.8462C15.0321 17.8462 14.6047 17.9305 14.2158 18.099C13.8305 18.2676 13.5292 18.5023 13.312 18.8031C13.2733 18.8569 13.2382 18.912 13.2065 18.9683C13.0631 19.2238 12.9914 19.5058 12.9914 19.8145H14.5101C14.5101 19.5732 14.6082 19.3782 14.8044 19.2295C15.0006 19.0774 15.244 19.0014 15.5348 19.0014C15.8571 19.0014 16.1093 19.0824 16.2915 19.2443C16.4772 19.4063 16.57 19.6327 16.57 19.9236C16.57 20.2244 16.4772 20.4657 16.2915 20.6475C16.1058 20.8293 15.8203 20.9202 15.435 20.9202H14.6257V22.0407H15.4297C16.2705 22.0407 16.6909 22.401 16.6909 23.1215C16.6909 23.419 16.5875 23.6586 16.3808 23.8404C16.1777 24.0189 15.8956 24.1082 15.5348 24.1082C15.2195 24.1082 14.9533 24.0222 14.7361 23.8504C14.5224 23.6785 14.4155 23.457 14.4155 23.186H12.8968C12.8968 23.4987 12.9574 23.7807 13.0785 24.0321C13.1994 24.283 13.3806 24.5034 13.622 24.6932C14.109 25.0733 14.7343 25.2634 15.498 25.2634C16.3143 25.2634 16.9694 25.07 17.4634 24.6833ZM15.364 20.074C15.3866 20.0077 15.4008 19.9378 15.4053 19.8654C15.4291 19.8562 15.4683 19.8476 15.5348 19.8476C15.6063 19.8476 15.6483 19.8554 15.6687 19.8608C15.671 19.8741 15.6732 19.8945 15.6732 19.9236C15.6732 19.9921 15.6627 20.0277 15.6574 20.0414C15.6561 20.0446 15.655 20.0472 15.6539 20.0494L15.6514 20.0502C15.6227 20.0594 15.556 20.074 15.435 20.074H15.364Z" fill="#C28044"/>
</svg>
