<svg width="31" height="35" viewBox="0 0 31 35" fill="none" xmlns="http://www.w3.org/2000/svg">
<path d="M10.8175 1.23792C10.6615 0.986916 10.3804 0.833333 10.0771 0.833333H1.72957C1.05842 0.833333 0.643862 1.53998 0.989169 2.09541L10.3145 17.0954C10.4705 17.3464 10.7516 17.5 11.0549 17.5H19.4024C20.0736 17.5 20.4881 16.7934 20.1428 16.2379L10.8175 1.23792Z" fill="#C52229"/>
<path fill-rule="evenodd" clip-rule="evenodd" d="M10.0771 0H1.72957C0.387259 0 -0.441852 1.41329 0.248764 2.52416L9.57407 17.5242C9.88616 18.0262 10.4483 18.3333 11.0549 18.3333H19.4024C20.7447 18.3333 21.5739 16.92 20.8832 15.8092L11.5579 0.809174C11.2458 0.307166 10.6837 0 10.0771 0ZM10.0771 0.833333C10.3804 0.833333 10.6615 0.986916 10.8175 1.23792L20.1428 16.2379C20.4881 16.7934 20.0736 17.5 19.4024 17.5H11.0549C10.7516 17.5 10.4705 17.3464 10.3145 17.0954L0.989169 2.09541C0.643862 1.53998 1.05842 0.833333 1.72957 0.833333H10.0771Z" fill="#9B0F15"/>
<path d="M19.8125 1.23792C19.9685 0.986916 20.2496 0.833333 20.5529 0.833333H28.9004C29.5716 0.833333 29.9861 1.53998 29.6408 2.09541L20.3155 17.0954C20.1595 17.3464 19.8784 17.5 19.5751 17.5H11.2276C10.5564 17.5 10.1419 16.7934 10.4872 16.2379L19.8125 1.23792Z" fill="#F1333B"/>
<path fill-rule="evenodd" clip-rule="evenodd" d="M20.5529 0H28.9004C30.2427 0 31.0719 1.41329 30.3812 2.52416L21.0559 17.5242C20.7438 18.0262 20.1817 18.3333 19.5751 18.3333H11.2276C9.88525 18.3333 9.05614 16.92 9.74676 15.8092L19.0721 0.809174C19.3842 0.307166 19.9463 0 20.5529 0ZM20.5529 0.833333C20.2496 0.833333 19.9685 0.986916 19.8125 1.23792L10.4872 16.2379C10.1419 16.7934 10.5564 17.5 11.2276 17.5H19.5751C19.8784 17.5 20.1595 17.3464 20.3155 17.0954L29.6408 2.09541C29.9861 1.53998 29.5716 0.833333 28.9004 0.833333H20.5529Z" fill="#9B0F15"/>
<path fill-rule="evenodd" clip-rule="evenodd" d="M20.7125 1.30634C20.9187 1.42189 20.9888 1.67689 20.8691 1.87589L16.9835 8.33422C16.8638 8.53323 16.5996 8.60088 16.3934 8.48533C16.1872 8.36978 16.1171 8.11478 16.2368 7.91578L20.1224 1.45744C20.2421 1.25844 20.5063 1.19079 20.7125 1.30634Z" fill="#FE666D"/>
<path fill-rule="evenodd" clip-rule="evenodd" d="M1.71467 1.30634C1.50848 1.42189 1.43838 1.67689 1.55811 1.87589L5.44365 8.33422C5.56338 8.53323 5.82759 8.60088 6.03379 8.48533C6.23999 8.36978 6.31008 8.11478 6.19036 7.91578L2.30481 1.45744C2.18508 1.25844 1.92087 1.19079 1.71467 1.30634Z" fill="#DF3840"/>
<path d="M9.91841 2.20052C9.91841 2.49536 9.6768 2.73438 9.37875 2.73438C9.08071 2.73438 8.83909 2.49536 8.83909 2.20052C8.83909 1.90568 9.08071 1.66667 9.37875 1.66667C9.6768 1.66667 9.91841 1.90568 9.91841 2.20052Z" fill="#AA161D"/>
<path d="M8.02302 2.33073C8.02302 2.69748 7.72248 2.99479 7.35174 2.99479C6.981 2.99479 6.68046 2.69748 6.68046 2.33073C6.68046 1.96398 6.981 1.66667 7.35174 1.66667C7.72248 1.66667 8.02302 1.96398 8.02302 2.33073Z" fill="#AA161D"/>
<path d="M9.70255 4.23177C9.70255 4.59852 9.40201 4.89583 9.03127 4.89583C8.66053 4.89583 8.35999 4.59852 8.35999 4.23177C8.35999 3.86502 8.66053 3.56771 9.03127 3.56771C9.40201 3.56771 9.70255 3.86502 9.70255 4.23177Z" fill="#AA161D"/>
<path d="M11.2373 3.32682C11.2373 3.5102 11.087 3.65885 10.9016 3.65885C10.7163 3.65885 10.566 3.5102 10.566 3.32682C10.566 3.14345 10.7163 2.99479 10.9016 2.99479C11.087 2.99479 11.2373 3.14345 11.2373 3.32682Z" fill="#AA161D"/>
<path d="M7.68738 3.89974C7.68738 4.08312 7.53711 4.23177 7.35174 4.23177C7.16637 4.23177 7.0161 4.08312 7.0161 3.89974C7.0161 3.71636 7.16637 3.56771 7.35174 3.56771C7.53711 3.56771 7.68738 3.71636 7.68738 3.89974Z" fill="#AA161D"/>
<path d="M5.81701 1.86849C5.81701 2.05187 5.66673 2.20052 5.48137 2.20052C5.296 2.20052 5.14572 2.05187 5.14572 1.86849C5.14572 1.68511 5.296 1.53646 5.48137 1.53646C5.66673 1.53646 5.81701 1.68511 5.81701 1.86849Z" fill="#AA161D"/>
<path d="M10.9016 5.64453C10.9016 5.82791 10.7514 5.97656 10.566 5.97656C10.3806 5.97656 10.2304 5.82791 10.2304 5.64453C10.2304 5.46116 10.3806 5.3125 10.566 5.3125C10.7514 5.3125 10.9016 5.46116 10.9016 5.64453Z" fill="#AA161D"/>
<path d="M9.17474 5.97656C9.17474 6.15994 9.02446 6.30859 8.8391 6.30859C8.65372 6.30859 8.50345 6.15994 8.50345 5.97656C8.50345 5.79319 8.65372 5.64453 8.8391 5.64453C9.02446 5.64453 9.17474 5.79319 9.17474 5.97656Z" fill="#AA161D"/>
<path d="M12.5219 4.77214C12.5219 5.07057 12.2774 5.3125 11.9757 5.3125C11.674 5.3125 11.4295 5.07057 11.4295 4.77214C11.4295 4.4737 11.674 4.23177 11.9757 4.23177C12.2774 4.23177 12.5219 4.4737 12.5219 4.77214Z" fill="#AA161D"/>
<path d="M13.234 6.30859C13.234 6.49197 13.0838 6.64062 12.8984 6.64062C12.713 6.64062 12.5627 6.49197 12.5627 6.30859C12.5627 6.12522 12.713 5.97656 12.8984 5.97656C13.0838 5.97656 13.234 6.12522 13.234 6.30859Z" fill="#AA161D"/>
<path d="M26.9716 22.9167C26.9716 29.1299 21.7528 34.1667 15.315 34.1667C8.87722 34.1667 3.65837 29.1299 3.65837 22.9167C3.65837 16.7035 8.87722 11.6667 15.315 11.6667C21.7528 11.6667 26.9716 16.7035 26.9716 22.9167Z" fill="#BCCCD2"/>
<path fill-rule="evenodd" clip-rule="evenodd" d="M27.8351 22.9167C27.8351 29.5901 22.2297 35 15.315 35C8.40035 35 2.79491 29.5901 2.79491 22.9167C2.79491 16.2432 8.40035 10.8333 15.315 10.8333C22.2297 10.8333 27.8351 16.2432 27.8351 22.9167ZM15.315 34.1667C21.7528 34.1667 26.9716 29.1299 26.9716 22.9167C26.9716 16.7035 21.7528 11.6667 15.315 11.6667C8.87722 11.6667 3.65837 16.7035 3.65837 22.9167C3.65837 29.1299 8.87722 34.1667 15.315 34.1667Z" fill="#81A5B0"/>
<path fill-rule="evenodd" clip-rule="evenodd" d="M4.52182 23.3333C4.28339 23.3333 4.0901 23.1468 4.0901 22.9167C4.0901 16.9336 9.11566 12.0833 15.315 12.0833C15.5534 12.0833 15.7467 12.2699 15.7467 12.5C15.7467 12.7301 15.5534 12.9167 15.315 12.9167C9.59253 12.9167 4.95355 17.3938 4.95355 22.9167C4.95355 23.1468 4.76026 23.3333 4.52182 23.3333Z" fill="#D0DEE3"/>
<path fill-rule="evenodd" clip-rule="evenodd" d="M26.1082 22.5C26.3466 22.5 26.5399 22.6865 26.5399 22.9167C26.5399 28.8998 21.5143 33.75 15.315 33.75C15.0766 33.75 14.8833 33.5634 14.8833 33.3333C14.8833 33.1032 15.0766 32.9167 15.315 32.9167C21.0375 32.9167 25.6765 28.4395 25.6765 22.9167C25.6765 22.6865 25.8697 22.5 26.1082 22.5Z" fill="#A2B9C1"/>
<path d="M23.9495 22.9167C23.9495 27.519 20.0837 31.25 15.315 31.25C10.5463 31.25 6.68046 27.519 6.68046 22.9167C6.68046 18.3143 10.5463 14.5833 15.315 14.5833C20.0837 14.5833 23.9495 18.3143 23.9495 22.9167Z" fill="#C7D4D8"/>
<path fill-rule="evenodd" clip-rule="evenodd" d="M24.813 22.9167C24.813 27.9793 20.5606 32.0833 15.315 32.0833C10.0694 32.0833 5.817 27.9793 5.817 22.9167C5.817 17.8541 10.0694 13.75 15.315 13.75C20.5606 13.75 24.813 17.8541 24.813 22.9167ZM15.315 31.25C20.0837 31.25 23.9495 27.519 23.9495 22.9167C23.9495 18.3143 20.0837 14.5833 15.315 14.5833C10.5463 14.5833 6.68046 18.3143 6.68046 22.9167C6.68046 27.519 10.5463 31.25 15.315 31.25Z" fill="#81A5B0"/>
<path fill-rule="evenodd" clip-rule="evenodd" d="M15.315 30C19.3684 30 22.6544 26.8287 22.6544 22.9167C22.6544 22.6865 22.8477 22.5 23.0861 22.5C23.3245 22.5 23.5178 22.6865 23.5178 22.9167C23.5178 27.2889 19.8453 30.8333 15.315 30.8333C15.0766 30.8333 14.8833 30.6468 14.8833 30.4167C14.8833 30.1865 15.0766 30 15.315 30Z" fill="#B5C3C8"/>
<path fill-rule="evenodd" clip-rule="evenodd" d="M15.315 15.8333C11.2616 15.8333 7.97564 19.0047 7.97564 22.9167C7.97564 23.1468 7.78235 23.3333 7.54391 23.3333C7.30548 23.3333 7.11218 23.1468 7.11218 22.9167C7.11218 18.5444 10.7847 15 15.315 15C15.5534 15 15.7467 15.1865 15.7467 15.4167C15.7467 15.6468 15.5534 15.8333 15.315 15.8333Z" fill="#D9EAEF"/>
<path d="M17.843 26.25H12.7938V25.2832L15.1767 22.832C15.5039 22.487 15.745 22.1859 15.9002 21.9287C16.0587 21.6715 16.138 21.4274 16.138 21.1963C16.138 20.8805 16.0553 20.6331 15.8901 20.4541C15.7248 20.2718 15.4887 20.1807 15.1818 20.1807C14.8512 20.1807 14.5898 20.2913 14.3976 20.5127C14.2087 20.7308 14.1143 21.0189 14.1143 21.377H12.6471C12.6471 20.944 12.7533 20.5485 12.9658 20.1904C13.1817 19.8324 13.4852 19.5524 13.8765 19.3506C14.2677 19.1455 14.7113 19.043 15.2071 19.043C15.966 19.043 16.5545 19.2188 16.9728 19.5703C17.3944 19.9219 17.6052 20.4183 17.6052 21.0596C17.6052 21.4111 17.5107 21.7692 17.3219 22.1338C17.133 22.4984 16.8092 22.9232 16.3505 23.4082L14.6758 25.1123H17.843V26.25Z" fill="#D9EAEF"/>
<path fill-rule="evenodd" clip-rule="evenodd" d="M18.7064 26.25C18.7064 26.7102 18.3198 27.0833 17.843 27.0833H12.7938C12.3169 27.0833 11.9303 26.7102 11.9303 26.25V25.2832C11.9303 25.0714 12.0139 24.8675 12.1641 24.713L14.5433 22.2657C14.8475 21.9445 15.0426 21.694 15.154 21.5094L15.1581 21.5026C15.2601 21.3372 15.2745 21.2394 15.2745 21.1963C15.2745 21.1072 15.2627 21.0552 15.2542 21.0296C15.2527 21.0253 15.2514 21.0216 15.2502 21.0187C15.2363 21.0164 15.2142 21.014 15.1818 21.014C15.1172 21.014 15.0901 21.0245 15.0847 21.0268C15.0813 21.0282 15.079 21.0296 15.0765 21.0314C15.0739 21.0333 15.0681 21.0379 15.0597 21.0476C15.0314 21.0805 14.9777 21.1632 14.9777 21.377C14.9777 21.8372 14.5911 22.2103 14.1143 22.2103H12.6471C12.1702 22.2103 11.7836 21.8372 11.7836 21.377C11.7836 20.8061 11.9255 20.2667 12.2165 19.7763L12.2195 19.7713C12.5182 19.2758 12.9406 18.889 13.4669 18.6169C13.9979 18.3392 14.585 18.2096 15.2071 18.2096C16.0968 18.2096 16.9136 18.4161 17.5386 18.9408C18.1859 19.4813 18.4686 20.2279 18.4686 21.0596C18.4686 21.5597 18.3334 22.0446 18.0942 22.5065C17.8547 22.9686 17.4721 23.4583 16.9882 23.97C16.9845 23.9739 16.9808 23.9778 16.977 23.9817L16.6848 24.279H17.843C18.3198 24.279 18.7064 24.6521 18.7064 25.1123V26.25ZM14.6758 25.1123L16.3505 23.4082C16.8092 22.9232 17.133 22.4984 17.3219 22.1338C17.5107 21.7692 17.6052 21.4111 17.6052 21.0596C17.6052 20.4183 17.3944 19.9219 16.9728 19.5703C16.5545 19.2188 15.966 19.043 15.2071 19.043C14.7113 19.043 14.2677 19.1455 13.8765 19.3506C13.4852 19.5524 13.1817 19.8324 12.9658 20.1904C12.8982 20.3044 12.8413 20.4221 12.7952 20.5436C12.6964 20.804 12.6471 21.0818 12.6471 21.377H14.1143C14.1143 21.0189 14.2087 20.7308 14.3976 20.5127C14.5898 20.2913 14.8512 20.1807 15.1818 20.1807C15.4887 20.1807 15.7248 20.2718 15.8901 20.4541C16.0553 20.6331 16.138 20.8805 16.138 21.1963C16.138 21.4274 16.0587 21.6715 15.9002 21.9287C15.745 22.1859 15.5039 22.487 15.1767 22.832L12.7938 25.2832V26.25H17.843V25.1123H14.6758Z" fill="#81A5B0"/>
</svg>