<svg width="32" height="34" viewBox="0 0 32 34" fill="none" xmlns="http://www.w3.org/2000/svg">
<path d="M10.962 1.19251C10.8039 0.950696 10.5191 0.802734 10.2117 0.802734H1.75257C1.07243 0.802734 0.652336 1.48352 1.00226 2.01862L10.4523 16.4697C10.6104 16.7115 10.8952 16.8594 11.2026 16.8594H19.6617C20.3419 16.8594 20.762 16.1787 20.412 15.6435L10.962 1.19251Z" fill="#C52229"/>
<path fill-rule="evenodd" clip-rule="evenodd" d="M10.2123 0H1.75317C0.392903 0 -0.447295 1.36156 0.252556 2.43178L9.70256 16.8828C10.0188 17.3664 10.5885 17.6624 11.2032 17.6624H19.6623C21.0226 17.6624 21.8628 16.3008 21.1629 15.2306L11.7129 0.77956C11.3967 0.295924 10.827 0 10.2123 0ZM10.2123 0.802835C10.5197 0.802835 10.8045 0.950797 10.9626 1.19262L20.4126 15.6436C20.7626 16.1788 20.3425 16.8595 19.6623 16.8595H11.2032C10.8958 16.8595 10.611 16.7116 10.4529 16.4698L1.00286 2.01873C0.652937 1.48362 1.07304 0.802835 1.75317 0.802835H10.2123Z" fill="#9B0F15"/>
<path d="M20.077 1.19251C20.2352 0.950696 20.52 0.802734 20.8273 0.802734H29.2865C29.9666 0.802734 30.3867 1.48352 30.0368 2.01862L20.5868 16.4697C20.4287 16.7115 20.1438 16.8594 19.8365 16.8594H11.3773C10.6972 16.8594 10.2771 16.1787 10.627 15.6435L20.077 1.19251Z" fill="#F1333B"/>
<path fill-rule="evenodd" clip-rule="evenodd" d="M20.8277 0H29.2869C30.6471 0 31.4873 1.36156 30.7875 2.43178L21.3375 16.8828C21.0212 17.3664 20.4516 17.6624 19.8369 17.6624H11.3777C10.0174 17.6624 9.17724 16.3008 9.87709 15.2306L19.3271 0.77956C19.6434 0.295924 20.213 0 20.8277 0ZM20.8277 0.802835C20.5203 0.802835 20.2355 0.950797 20.0774 1.19262L10.6274 15.6436C10.2775 16.1788 10.6976 16.8595 11.3777 16.8595H19.8369C20.1442 16.8595 20.429 16.7116 20.5872 16.4698L30.0372 2.01873C30.3871 1.48362 29.967 0.802835 29.2869 0.802835H20.8277Z" fill="#9B0F15"/>
<path fill-rule="evenodd" clip-rule="evenodd" d="M20.9893 1.25844C21.1982 1.36977 21.2693 1.61543 21.1479 1.80715L17.2104 8.02912C17.0891 8.22084 16.8214 8.28602 16.6124 8.1747C16.4035 8.06338 16.3324 7.81771 16.4538 7.62599L20.3913 1.40402C20.5126 1.2123 20.7803 1.14712 20.9893 1.25844Z" fill="#FE666D"/>
<path fill-rule="evenodd" clip-rule="evenodd" d="M1.73727 1.25844C1.52832 1.36977 1.45729 1.61543 1.57861 1.80715L5.51611 8.02912C5.63744 8.22084 5.90519 8.28602 6.11414 8.1747C6.3231 8.06338 6.39413 7.81771 6.2728 7.62599L2.3353 1.40402C2.21398 1.2123 1.94623 1.14712 1.73727 1.25844Z" fill="#DF3840"/>
<path d="M10.0508 2.11978C10.0508 2.40383 9.80594 2.6341 9.50391 2.6341C9.20188 2.6341 8.95703 2.40383 8.95703 2.11978C8.95703 1.83574 9.20188 1.60547 9.50391 1.60547C9.80594 1.60547 10.0508 1.83574 10.0508 2.11978Z" fill="#AA161D"/>
<path d="M8.13005 2.24523C8.13005 2.59856 7.82549 2.88499 7.44979 2.88499C7.07409 2.88499 6.76953 2.59856 6.76953 2.24523C6.76953 1.8919 7.07409 1.60547 7.44979 1.60547C7.82549 1.60547 8.13005 1.8919 8.13005 2.24523Z" fill="#AA161D"/>
<path d="M9.83122 4.07677C9.83122 4.4301 9.52666 4.71653 9.15096 4.71653C8.77527 4.71653 8.4707 4.4301 8.4707 4.07677C8.4707 3.72344 8.77527 3.43701 9.15096 3.43701C9.52666 3.43701 9.83122 3.72344 9.83122 4.07677Z" fill="#AA161D"/>
<path d="M11.3873 3.20465C11.3873 3.38131 11.235 3.52452 11.0472 3.52452C10.8593 3.52452 10.707 3.38131 10.707 3.20465C10.707 3.02798 10.8593 2.88477 11.0472 2.88477C11.235 2.88477 11.3873 3.02798 11.3873 3.20465Z" fill="#AA161D"/>
<path d="M7.78963 3.75689C7.78963 3.93356 7.63735 4.07677 7.4495 4.07677C7.26166 4.07677 7.10938 3.93356 7.10938 3.75689C7.10938 3.58023 7.26166 3.43701 7.4495 3.43701C7.63735 3.43701 7.78963 3.58023 7.78963 3.75689Z" fill="#AA161D"/>
<path d="M5.89413 1.79986C5.89413 1.97652 5.74185 2.11974 5.554 2.11974C5.36615 2.11974 5.21387 1.97652 5.21387 1.79986C5.21387 1.6232 5.36615 1.47998 5.554 1.47998C5.74185 1.47998 5.89413 1.6232 5.89413 1.79986Z" fill="#AA161D"/>
<path d="M11.0465 5.43756C11.0465 5.61422 10.8942 5.75744 10.7063 5.75744C10.5185 5.75744 10.3662 5.61422 10.3662 5.43756C10.3662 5.26089 10.5185 5.11768 10.7063 5.11768C10.8942 5.11768 11.0465 5.26089 11.0465 5.43756Z" fill="#AA161D"/>
<path d="M9.29647 5.75738C9.29647 5.93404 9.14419 6.07726 8.95634 6.07726C8.76849 6.07726 8.61621 5.93404 8.61621 5.75738C8.61621 5.58072 8.76849 5.4375 8.95634 5.4375C9.14419 5.4375 9.29647 5.58072 9.29647 5.75738Z" fill="#AA161D"/>
<path d="M12.6891 4.59725C12.6891 4.88476 12.4413 5.11784 12.1356 5.11784C11.8299 5.11784 11.582 4.88476 11.582 4.59725C11.582 4.30974 11.8299 4.07666 12.1356 4.07666C12.4413 4.07666 12.6891 4.30974 12.6891 4.59725Z" fill="#AA161D"/>
<path d="M13.4107 6.07769C13.4107 6.25436 13.2584 6.39757 13.0706 6.39757C12.8828 6.39757 12.7305 6.25436 12.7305 6.07769C12.7305 5.90103 12.8828 5.75781 13.0706 5.75781C13.2584 5.75781 13.4107 5.90103 13.4107 6.07769Z" fill="#AA161D"/>
<path d="M27.332 22.078C27.332 28.0638 22.0434 32.9163 15.5195 32.9163C8.99567 32.9163 3.70703 28.0638 3.70703 22.078C3.70703 16.0922 8.99567 11.2397 15.5195 11.2397C22.0434 11.2397 27.332 16.0922 27.332 22.078Z" fill="#FFBB0D"/>
<path fill-rule="evenodd" clip-rule="evenodd" d="M28.207 22.0781C28.207 28.5073 22.5266 33.7192 15.5195 33.7192C8.51242 33.7192 2.83203 28.5073 2.83203 22.0781C2.83203 15.6489 8.51242 10.437 15.5195 10.437C22.5266 10.437 28.207 15.6489 28.207 22.0781ZM15.5195 32.9164C22.0434 32.9164 27.332 28.0639 27.332 22.0781C27.332 16.0923 22.0434 11.2398 15.5195 11.2398C8.99567 11.2398 3.70703 16.0923 3.70703 22.0781C3.70703 28.0639 8.99567 32.9164 15.5195 32.9164Z" fill="#E89B05"/>
<path fill-rule="evenodd" clip-rule="evenodd" d="M4.58203 22.4795C4.34041 22.4795 4.14453 22.2998 4.14453 22.0781C4.14453 16.314 9.23729 11.6412 15.5195 11.6412C15.7612 11.6412 15.957 11.8209 15.957 12.0426C15.957 12.2643 15.7612 12.4441 15.5195 12.4441C9.72054 12.4441 5.01953 16.7574 5.01953 22.0781C5.01953 22.2998 4.82366 22.4795 4.58203 22.4795Z" fill="#E8AA0A"/>
<path fill-rule="evenodd" clip-rule="evenodd" d="M26.457 21.6768C26.6987 21.6768 26.8945 21.8565 26.8945 22.0782C26.8945 27.8423 21.8018 32.515 15.5195 32.515C15.2779 32.515 15.082 32.3353 15.082 32.1136C15.082 31.8919 15.2779 31.7122 15.5195 31.7122C21.3185 31.7122 26.0195 27.3989 26.0195 22.0782C26.0195 21.8565 26.2154 21.6768 26.457 21.6768Z" fill="#E8AA0A"/>
<path d="M24.2695 22.0782C24.2695 26.5121 20.352 30.1065 15.5195 30.1065C10.687 30.1065 6.76953 26.5121 6.76953 22.0782C6.76953 17.6442 10.687 14.0498 15.5195 14.0498C20.352 14.0498 24.2695 17.6442 24.2695 22.0782Z" fill="#FFDD28"/>
<path fill-rule="evenodd" clip-rule="evenodd" d="M25.1445 22.0783C25.1445 26.9556 20.8353 30.9094 15.5195 30.9094C10.2038 30.9094 5.89453 26.9556 5.89453 22.0783C5.89453 17.2009 10.2038 13.2471 15.5195 13.2471C20.8353 13.2471 25.1445 17.2009 25.1445 22.0783ZM15.5195 30.1066C20.352 30.1066 24.2695 26.5122 24.2695 22.0783C24.2695 17.6443 20.352 14.0499 15.5195 14.0499C10.687 14.0499 6.76953 17.6443 6.76953 22.0783C6.76953 26.5122 10.687 30.1066 15.5195 30.1066Z" fill="#E89B05"/>
<path fill-rule="evenodd" clip-rule="evenodd" d="M15.5195 28.9022C19.6271 28.9022 22.957 25.847 22.957 22.0781C22.957 21.8564 23.1529 21.6767 23.3945 21.6767C23.6362 21.6767 23.832 21.8564 23.832 22.0781C23.832 26.2904 20.1104 29.7051 15.5195 29.7051C15.2779 29.7051 15.082 29.5254 15.082 29.3037C15.082 29.082 15.2779 28.9022 15.5195 28.9022Z" fill="#ECC704"/>
<path fill-rule="evenodd" clip-rule="evenodd" d="M15.5195 15.254C11.4119 15.254 8.08203 18.3093 8.08203 22.0781C8.08203 22.2998 7.88616 22.4795 7.64453 22.4795C7.40291 22.4795 7.20703 22.2998 7.20703 22.0781C7.20703 17.8659 10.9287 14.4512 15.5195 14.4512C15.7612 14.4512 15.957 14.6309 15.957 14.8526C15.957 15.0743 15.7612 15.254 15.5195 15.254Z" fill="#FFEF9C"/>
<path d="M16.564 25.2893H15.0823V20.0489L13.3135 20.5522V19.4468L16.405 18.4307H16.564V25.2893Z" fill="#FFEF9C"/>
<path fill-rule="evenodd" clip-rule="evenodd" d="M17.439 25.2894C17.439 25.7328 17.0472 26.0922 16.564 26.0922H15.0823C14.599 26.0922 14.2073 25.7328 14.2073 25.2894V21.1385L13.5727 21.3191C13.3071 21.3947 13.0182 21.35 12.7944 21.1986C12.5706 21.0473 12.4385 20.8074 12.4385 20.5523V19.4469C12.4385 19.1078 12.6706 18.8054 13.0184 18.691L16.11 17.675C16.2046 17.6438 16.3045 17.6279 16.405 17.6279H16.564C17.0472 17.6279 17.439 17.9874 17.439 18.4308V25.2894ZM15.0823 20.049V25.2894H16.564V18.4308H16.405L13.3135 19.4469V20.5523L15.0823 20.049Z" fill="#E89B05"/>
</svg>
