<svg width="32" height="38" viewBox="0 0 32 38" fill="none" xmlns="http://www.w3.org/2000/svg">
<path d="M11.4425 1.92482C11.2844 1.66126 10.9996 1.5 10.6922 1.5H2.23304C1.5529 1.5 1.1328 2.24197 1.48273 2.82518L10.9327 18.5752C11.0909 18.8387 11.3757 19 11.683 19H20.1422C20.8223 19 21.2424 18.258 20.8925 17.6748L11.4425 1.92482Z" fill="#C52229"/>
<path fill-rule="evenodd" clip-rule="evenodd" d="M10.6928 0.625H2.23364C0.873371 0.625 0.0331735 2.10895 0.733024 3.27537L10.183 19.0254C10.4993 19.5525 11.0689 19.875 11.6836 19.875H20.1428C21.5031 19.875 22.3433 18.391 21.6434 17.2246L12.1934 1.47463C11.8772 0.947524 11.3075 0.625 10.6928 0.625ZM10.6928 1.5C11.0002 1.5 11.285 1.66126 11.4431 1.92482L20.8931 17.6748C21.243 18.258 20.8229 19 20.1428 19H11.6836C11.3763 19 11.0915 18.8387 10.9333 18.5752L1.48333 2.82518C1.13341 2.24197 1.5535 1.5 2.23364 1.5H10.6928Z" fill="#9B0F15"/>
<path d="M20.5575 1.92482C20.7156 1.66126 21.0004 1.5 21.3078 1.5H29.767C30.4471 1.5 30.8672 2.24197 30.5173 2.82518L21.0673 18.5752C20.9091 18.8387 20.6243 19 20.317 19H11.8578C11.1777 19 10.7576 18.258 11.1075 17.6748L20.5575 1.92482Z" fill="#F1333B"/>
<path fill-rule="evenodd" clip-rule="evenodd" d="M21.3082 0.625H29.7673C31.1276 0.625 31.9678 2.10895 31.268 3.27537L21.818 19.0254C21.5017 19.5525 20.932 19.875 20.3173 19.875H11.8582C10.4979 19.875 9.65771 18.391 10.3576 17.2246L19.8076 1.47463C20.1238 0.947524 20.6935 0.625 21.3082 0.625ZM21.3082 1.5C21.0008 1.5 20.716 1.66126 20.5579 1.92482L11.1079 17.6748C10.7579 18.258 11.178 19 11.8582 19H20.3173C20.6247 19 20.9095 18.8387 21.0676 18.5752L30.5176 2.82518C30.8676 2.24197 30.4475 1.5 29.7673 1.5H21.3082Z" fill="#9B0F15"/>
<path fill-rule="evenodd" clip-rule="evenodd" d="M21.4698 1.99673C21.6787 2.11806 21.7497 2.3858 21.6284 2.59476L17.6909 9.37601C17.5696 9.58496 17.3018 9.656 17.0929 9.53467C16.8839 9.41334 16.8129 9.14559 16.9342 8.93664L20.8717 2.15539C20.9931 1.94643 21.2608 1.8754 21.4698 1.99673Z" fill="#FE666D"/>
<path fill-rule="evenodd" clip-rule="evenodd" d="M2.21774 1.99673C2.00879 2.11806 1.93775 2.3858 2.05908 2.59476L5.99658 9.37601C6.11791 9.58496 6.38566 9.656 6.59461 9.53467C6.80357 9.41334 6.8746 9.14559 6.75327 8.93664L2.81577 2.15539C2.69444 1.94643 2.4267 1.8754 2.21774 1.99673Z" fill="#DF3840"/>
<path d="M10.5312 2.93555C10.5312 3.24513 10.2864 3.49609 9.98437 3.49609C9.68234 3.49609 9.4375 3.24513 9.4375 2.93555C9.4375 2.62597 9.68234 2.375 9.98437 2.375C10.2864 2.375 10.5312 2.62597 10.5312 2.93555Z" fill="#AA161D"/>
<path d="M8.61052 3.07227C8.61052 3.45735 8.30596 3.76953 7.93026 3.76953C7.55456 3.76953 7.25 3.45735 7.25 3.07227C7.25 2.68718 7.55456 2.375 7.93026 2.375C8.30596 2.375 8.61052 2.68718 8.61052 3.07227Z" fill="#AA161D"/>
<path d="M10.3117 5.06836C10.3117 5.45345 10.0071 5.76562 9.63143 5.76562C9.25573 5.76562 8.95117 5.45345 8.95117 5.06836C8.95117 4.68327 9.25573 4.37109 9.63143 4.37109C10.0071 4.37109 10.3117 4.68327 10.3117 5.06836Z" fill="#AA161D"/>
<path d="M11.8678 4.11816C11.8678 4.31071 11.7155 4.4668 11.5276 4.4668C11.3398 4.4668 11.1875 4.31071 11.1875 4.11816C11.1875 3.92562 11.3398 3.76953 11.5276 3.76953C11.7155 3.76953 11.8678 3.92562 11.8678 4.11816Z" fill="#AA161D"/>
<path d="M8.2701 4.71973C8.2701 4.91227 8.11782 5.06836 7.92997 5.06836C7.74212 5.06836 7.58984 4.91227 7.58984 4.71973C7.58984 4.52718 7.74212 4.37109 7.92997 4.37109C8.11782 4.37109 8.2701 4.52718 8.2701 4.71973Z" fill="#AA161D"/>
<path d="M6.3746 2.58691C6.3746 2.77946 6.22231 2.93555 6.03447 2.93555C5.84662 2.93555 5.69434 2.77946 5.69434 2.58691C5.69434 2.39437 5.84662 2.23828 6.03447 2.23828C6.22231 2.23828 6.3746 2.39437 6.3746 2.58691Z" fill="#AA161D"/>
<path d="M11.5269 6.55176C11.5269 6.7443 11.3747 6.90039 11.1868 6.90039C10.999 6.90039 10.8467 6.7443 10.8467 6.55176C10.8467 6.35921 10.999 6.20312 11.1868 6.20312C11.3747 6.20312 11.5269 6.35921 11.5269 6.55176Z" fill="#AA161D"/>
<path d="M9.77694 6.89941C9.77694 7.09196 9.62466 7.24805 9.43681 7.24805C9.24896 7.24805 9.09668 7.09196 9.09668 6.89941C9.09668 6.70687 9.24896 6.55078 9.43681 6.55078C9.62466 6.55078 9.77694 6.70687 9.77694 6.89941Z" fill="#AA161D"/>
<path d="M13.1696 5.63574C13.1696 5.9491 12.9218 6.20312 12.616 6.20312C12.3103 6.20312 12.0625 5.9491 12.0625 5.63574C12.0625 5.32239 12.3103 5.06836 12.616 5.06836C12.9218 5.06836 13.1696 5.32239 13.1696 5.63574Z" fill="#AA161D"/>
<path d="M13.8912 7.24902C13.8912 7.44157 13.7389 7.59766 13.5511 7.59766C13.3632 7.59766 13.2109 7.44157 13.2109 7.24902C13.2109 7.05648 13.3632 6.90039 13.5511 6.90039C13.7389 6.90039 13.8912 7.05648 13.8912 7.24902Z" fill="#AA161D"/>
<path d="M27.8125 24.6875C27.8125 31.2114 22.5239 36.5 16 36.5C9.47614 36.5 4.1875 31.2114 4.1875 24.6875C4.1875 18.1636 9.47614 12.875 16 12.875C22.5239 12.875 27.8125 18.1636 27.8125 24.6875Z" fill="#FFBB0D"/>
<path fill-rule="evenodd" clip-rule="evenodd" d="M28.6875 24.6875C28.6875 31.6946 23.0071 37.375 16 37.375C8.99289 37.375 3.3125 31.6946 3.3125 24.6875C3.3125 17.6804 8.99289 12 16 12C23.0071 12 28.6875 17.6804 28.6875 24.6875ZM16 36.5C22.5239 36.5 27.8125 31.2114 27.8125 24.6875C27.8125 18.1636 22.5239 12.875 16 12.875C9.47614 12.875 4.1875 18.1636 4.1875 24.6875C4.1875 31.2114 9.47614 36.5 16 36.5Z" fill="#E89B05"/>
<path fill-rule="evenodd" clip-rule="evenodd" d="M5.0625 25.125C4.82088 25.125 4.625 24.9291 4.625 24.6875C4.625 18.4053 9.71776 13.3125 16 13.3125C16.2416 13.3125 16.4375 13.5084 16.4375 13.75C16.4375 13.9916 16.2416 14.1875 16 14.1875C10.201 14.1875 5.5 18.8885 5.5 24.6875C5.5 24.9291 5.30412 25.125 5.0625 25.125Z" fill="#E8AA0A"/>
<path fill-rule="evenodd" clip-rule="evenodd" d="M26.9375 24.25C27.1791 24.25 27.375 24.4459 27.375 24.6875C27.375 30.9697 22.2822 36.0625 16 36.0625C15.7584 36.0625 15.5625 35.8666 15.5625 35.625C15.5625 35.3834 15.7584 35.1875 16 35.1875C21.799 35.1875 26.5 30.4865 26.5 24.6875C26.5 24.4459 26.6959 24.25 26.9375 24.25Z" fill="#E8AA0A"/>
<path d="M24.75 24.6875C24.75 29.52 20.8325 33.4375 16 33.4375C11.1675 33.4375 7.25 29.52 7.25 24.6875C7.25 19.855 11.1675 15.9375 16 15.9375C20.8325 15.9375 24.75 19.855 24.75 24.6875Z" fill="#FFDD28"/>
<path fill-rule="evenodd" clip-rule="evenodd" d="M25.625 24.6875C25.625 30.0032 21.3157 34.3125 16 34.3125C10.6843 34.3125 6.375 30.0032 6.375 24.6875C6.375 19.3718 10.6843 15.0625 16 15.0625C21.3157 15.0625 25.625 19.3718 25.625 24.6875ZM16 33.4375C20.8325 33.4375 24.75 29.52 24.75 24.6875C24.75 19.855 20.8325 15.9375 16 15.9375C11.1675 15.9375 7.25 19.855 7.25 24.6875C7.25 29.52 11.1675 33.4375 16 33.4375Z" fill="#E89B05"/>
<path fill-rule="evenodd" clip-rule="evenodd" d="M16 32.125C20.1076 32.125 23.4375 28.7951 23.4375 24.6875C23.4375 24.4459 23.6334 24.25 23.875 24.25C24.1166 24.25 24.3125 24.4459 24.3125 24.6875C24.3125 29.2784 20.5909 33 16 33C15.7584 33 15.5625 32.8041 15.5625 32.5625C15.5625 32.3209 15.7584 32.125 16 32.125Z" fill="#ECC704"/>
<path fill-rule="evenodd" clip-rule="evenodd" d="M16 17.25C11.8924 17.25 8.5625 20.5799 8.5625 24.6875C8.5625 24.9291 8.36662 25.125 8.125 25.125C7.88338 25.125 7.6875 24.9291 7.6875 24.6875C7.6875 20.0966 11.4091 16.375 16 16.375C16.2416 16.375 16.4375 16.5709 16.4375 16.8125C16.4375 17.0541 16.2416 17.25 16 17.25Z" fill="#FFEF9C"/>
<path d="M17.0444 28.188H15.5627V22.4766L13.7939 23.0251V21.8203L16.8855 20.7129H17.0444V28.188Z" fill="#FFEF9C"/>
<path fill-rule="evenodd" clip-rule="evenodd" d="M17.9194 28.188C17.9194 28.6712 17.5277 29.063 17.0444 29.063H15.5627C15.0795 29.063 14.6877 28.6712 14.6877 28.188V23.6641L14.0531 23.8609C13.7876 23.9432 13.4987 23.8945 13.2749 23.7296C13.0511 23.5646 12.9189 23.3032 12.9189 23.0251V21.8203C12.9189 21.4508 13.151 21.1212 13.4989 20.9966L16.5904 19.8891C16.6851 19.8552 16.7849 19.8379 16.8855 19.8379H17.0444C17.5277 19.8379 17.9194 20.2296 17.9194 20.7129V28.188ZM15.5627 22.4766V28.188H17.0444V20.7129H16.8855L13.7939 21.8203V23.0251L15.5627 22.4766Z" fill="#E89B05"/>
</svg>