<svg width="25" height="25" viewBox="0 0 25 25" fill="none" xmlns="http://www.w3.org/2000/svg">
<path d="M22.1411 21.0682L18.4311 17.3882C19.8712 15.5926 20.5686 13.3135 20.3799 11.0195C20.1912 8.72553 19.1307 6.59101 17.4166 5.05487C15.7024 3.51873 13.4649 2.69773 11.164 2.7607C8.8631 2.82366 6.67378 3.76579 5.0462 5.39337C3.41862 7.02095 2.47649 9.21026 2.41353 11.5111C2.35057 13.812 3.17156 16.0496 4.7077 17.7637C6.24384 19.4779 8.37836 20.5383 10.6724 20.727C12.9664 20.9157 15.2455 20.2183 17.0411 18.7782L20.7211 22.4582C20.814 22.552 20.9246 22.6263 21.0465 22.6771C21.1683 22.7279 21.299 22.754 21.4311 22.754C21.5631 22.754 21.6938 22.7279 21.8156 22.6771C21.9375 22.6263 22.0481 22.552 22.1411 22.4582C22.3213 22.2718 22.422 22.0226 22.422 21.7632C22.422 21.5039 22.3213 21.2547 22.1411 21.0682ZM11.4311 18.7782C10.0466 18.7782 8.69321 18.3677 7.54207 17.5985C6.39092 16.8293 5.49371 15.7361 4.9639 14.457C4.43409 13.1779 4.29546 11.7705 4.56556 10.4126C4.83566 9.05473 5.50234 7.80745 6.48131 6.82848C7.46028 5.84951 8.70756 5.18282 10.0654 4.91273C11.4233 4.64263 12.8308 4.78125 14.1098 5.31107C15.3889 5.84088 16.4822 6.73809 17.2513 7.88923C18.0205 9.04038 18.4311 10.3938 18.4311 11.7782C18.4311 13.6347 17.6936 15.4152 16.3808 16.728C15.068 18.0407 13.2876 18.7782 11.4311 18.7782Z" fill="#1A0404"/>
</svg>
