<svg width="26" height="26" viewBox="0 0 26 26" fill="none" xmlns="http://www.w3.org/2000/svg">
<path d="M22.2875 14.225C22.3375 13.825 22.375 13.425 22.375 13C22.375 12.575 22.3375 12.175 22.2875 11.775L24.925 9.7125C25.1625 9.525 25.225 9.1875 25.075 8.9125L22.575 4.5875C22.425 4.3125 22.0875 4.2125 21.8125 4.3125L18.7 5.5625C18.05 5.0625 17.35 4.65 16.5875 4.3375L16.1125 1.025C16.075 0.725 15.8125 0.5 15.5 0.5H10.5C10.1875 0.5 9.92504 0.725 9.88754 1.025L9.41254 4.3375C8.65004 4.65 7.95004 5.075 7.30004 5.5625L4.18754 4.3125C3.90004 4.2 3.57504 4.3125 3.42504 4.5875L0.925043 8.9125C0.762543 9.1875 0.837544 9.525 1.07504 9.7125L3.71254 11.775C3.66254 12.175 3.62504 12.5875 3.62504 13C3.62504 13.4125 3.66254 13.825 3.71254 14.225L1.07504 16.2875C0.837544 16.475 0.775043 16.8125 0.925043 17.0875L3.42504 21.4125C3.57504 21.6875 3.91254 21.7875 4.18754 21.6875L7.30004 20.4375C7.95004 20.9375 8.65004 21.35 9.41254 21.6625L9.88754 24.975C9.92504 25.275 10.1875 25.5 10.5 25.5H15.5C15.8125 25.5 16.075 25.275 16.1125 24.975L16.5875 21.6625C17.35 21.35 18.05 20.925 18.7 20.4375L21.8125 21.6875C22.1 21.8 22.425 21.6875 22.575 21.4125L25.075 17.0875C25.225 16.8125 25.1625 16.475 24.925 16.2875L22.2875 14.225V14.225ZM13 17.375C10.5875 17.375 8.62504 15.4125 8.62504 13C8.62504 10.5875 10.5875 8.625 13 8.625C15.4125 8.625 17.375 10.5875 17.375 13C17.375 15.4125 15.4125 17.375 13 17.375Z" fill="black"/>
</svg>
